{"glyphs":{"0":{"ha":694,"x_min":61,"x_max":633,"o":"m 149 243 l 518 693 l 547 603 l 178 156 l 149 243 m 347 -15 q 194 36 258 -15 q 95 187 129 88 q 61 428 61 286 q 95 668 61 568 q 194 822 129 768 q 347 875 258 875 q 501 822 436 875 q 599 668 565 768 q 633 428 633 568 q 599 187 633 286 q 501 36 565 88 q 347 -15 436 -15 m 347 92 q 433 131 399 92 q 485 246 467 171 q 503 428 503 321 q 485 607 503 532 q 433 723 467 682 q 347 764 399 764 q 263 723 297 764 q 210 607 228 682 q 192 428 192 532 q 210 246 192 321 q 263 131 228 171 q 347 92 297 92 z "},"1":{"ha":694,"x_min":106,"x_max":436,"o":"m 299 0 l 299 713 l 136 658 l 106 744 l 336 867 l 436 867 l 436 0 l 299 0 z "},"2":{"ha":694,"x_min":67,"x_max":618,"o":"m 88 103 q 228 242 165 181 q 338 355 290 304 q 418 449 386 406 q 466 536 450 493 q 482 628 482 579 q 473 688 482 663 q 447 728 464 713 q 406 752 431 744 q 351 760 382 760 q 294 752 321 760 q 242 728 267 744 q 197 688 218 713 q 181 658 183 668 q 179 638 178 649 l 172 628 l 161 635 l 67 708 q 140 800 96 763 q 238 856 183 838 q 351 875 292 875 q 487 844 428 875 q 581 758 546 814 q 615 626 615 703 q 598 522 615 572 q 549 424 581 472 q 474 328 517 376 q 378 226 431 279 q 265 114 325 174 l 554 114 q 588 117 578 114 q 606 126 597 119 l 618 126 l 618 114 l 618 0 l 88 0 l 88 103 z "},"3":{"ha":694,"x_min":72,"x_max":607,"o":"m 329 -15 q 186 10 256 -15 q 72 86 117 35 l 147 189 l 156 200 l 165 192 q 171 171 167 182 q 190 143 175 160 q 249 109 217 122 q 322 96 281 96 q 403 115 371 96 q 451 167 435 133 q 468 244 468 201 q 453 322 468 290 q 408 371 438 353 q 335 394 378 389 q 236 394 292 400 l 236 503 q 340 513 299 501 q 405 544 382 524 q 437 590 428 564 q 446 646 446 617 q 438 694 446 672 q 414 731 429 715 q 377 754 399 746 q 329 763 356 763 q 274 756 301 763 q 221 734 246 749 q 174 696 196 719 l 94 776 q 206 853 143 831 q 332 875 269 875 q 463 847 407 875 q 549 769 518 819 q 581 656 581 719 q 563 569 581 608 q 515 501 546 529 q 444 460 485 474 q 526 417 489 446 q 585 344 563 388 q 607 240 607 300 q 574 111 607 169 q 478 19 540 53 q 329 -15 417 -15 l 329 -15 z "},"4":{"ha":694,"x_min":58,"x_max":658,"o":"m 411 0 l 411 207 l 58 207 l 58 300 l 440 867 l 546 867 l 546 318 l 658 318 l 658 206 l 546 206 l 546 0 l 411 0 m 201 318 l 413 318 l 413 643 l 201 318 z "},"5":{"ha":694,"x_min":79,"x_max":632,"o":"m 349 -15 q 192 19 263 -15 q 79 121 121 53 l 179 199 l 189 207 l 197 199 q 201 178 196 188 q 219 150 206 168 q 276 110 244 124 q 350 97 307 97 q 409 110 382 97 q 457 147 436 124 q 489 203 478 171 q 500 275 500 236 q 489 351 500 317 q 457 408 478 385 q 408 445 436 432 q 344 458 379 458 q 288 451 315 458 q 238 426 261 443 q 196 386 215 410 l 113 411 l 142 865 l 597 865 l 597 751 l 257 751 l 244 538 q 285 556 264 549 q 330 566 307 563 q 374 569 353 569 q 478 550 431 569 q 560 494 525 531 q 613 403 594 457 q 632 281 632 350 q 595 122 632 189 q 494 20 558 56 q 349 -15 431 -15 l 349 -15 z "},"6":{"ha":694,"x_min":79,"x_max":624,"o":"m 361 -15 q 208 35 271 -15 q 112 179 144 86 q 79 396 79 272 q 119 657 79 550 q 231 821 160 764 q 396 878 303 878 q 508 858 453 878 q 606 794 563 839 l 529 707 l 519 697 l 511 706 q 503 724 510 717 q 478 746 497 732 q 457 755 468 751 q 433 760 446 758 q 407 763 421 763 q 360 756 386 763 q 310 731 335 749 q 265 683 286 714 q 229 601 243 651 q 213 481 215 551 q 259 526 232 507 q 317 555 286 544 q 381 565 349 565 q 476 547 432 565 q 553 493 519 529 q 605 404 586 457 q 624 283 624 351 q 589 129 624 197 q 496 23 554 61 q 361 -15 438 -15 l 361 -15 m 365 97 q 415 110 392 97 q 457 147 439 124 q 485 205 475 171 q 496 282 496 239 q 484 359 496 326 q 453 413 472 392 q 411 445 435 435 q 363 456 388 456 q 319 448 340 456 q 281 426 299 440 q 247 394 263 413 q 217 353 231 376 q 223 256 214 303 q 251 174 232 210 q 299 118 271 139 q 365 97 328 97 l 365 97 z "},"7":{"ha":694,"x_min":97,"x_max":611,"o":"m 188 0 q 270 253 228 129 q 358 499 313 376 q 451 744 403 621 l 97 744 l 97 865 l 611 865 l 611 790 q 533 597 571 693 q 460 401 496 500 q 393 203 425 303 q 331 0 361 104 l 188 0 z "},"8":{"ha":694,"x_min":68,"x_max":628,"o":"m 347 -15 q 199 16 263 -15 q 102 101 136 47 q 68 221 68 154 q 89 319 68 275 q 147 400 110 364 q 235 461 185 436 q 169 514 197 483 q 124 582 140 544 q 108 660 108 619 q 138 770 108 721 q 223 849 168 819 q 354 879 278 879 q 490 851 436 879 q 571 774 543 822 q 599 668 599 726 q 590 604 599 635 q 565 547 582 574 q 526 497 549 519 q 474 458 503 475 q 538 417 510 442 q 587 361 567 392 q 617 297 607 331 q 628 226 628 263 q 593 101 628 156 q 495 16 558 47 q 347 -15 432 -15 m 350 101 q 428 119 397 101 q 476 165 460 136 q 492 232 492 194 q 480 288 492 261 q 447 337 468 314 q 394 378 425 360 q 325 408 363 396 q 276 377 299 394 q 238 338 254 360 q 213 290 222 315 q 204 236 204 265 q 222 168 204 199 q 272 119 239 138 q 350 101 304 101 m 374 503 q 413 535 396 517 q 443 572 431 553 q 462 614 456 592 q 468 658 468 636 q 455 712 468 688 q 415 751 442 736 q 351 767 389 767 q 289 752 314 767 q 251 714 264 738 q 239 663 239 690 q 249 612 239 635 q 278 569 260 589 q 322 533 297 550 q 374 503 346 517 z "},"9":{"ha":694,"x_min":75,"x_max":618,"o":"m 313 -15 q 191 3 249 -15 q 86 63 133 22 l 158 164 l 168 175 l 178 167 q 185 147 179 157 q 208 124 190 138 q 253 103 229 110 q 306 97 278 97 q 386 124 351 97 q 444 196 421 150 q 478 303 467 242 q 492 432 490 364 q 476 624 492 551 q 428 731 461 697 q 344 764 394 764 q 287 751 313 764 q 242 715 261 739 q 214 658 224 692 q 204 582 204 625 q 215 515 204 544 q 244 467 225 486 q 290 437 264 447 q 344 426 315 426 q 415 435 383 426 q 472 466 446 444 q 517 524 497 488 l 531 401 q 479 356 508 375 q 414 325 450 336 q 335 314 378 314 q 232 333 279 314 q 149 388 185 353 q 94 474 114 424 q 75 586 75 524 q 96 700 75 647 q 153 792 117 753 q 240 853 190 832 q 346 875 289 875 q 494 828 433 875 q 587 695 556 782 q 618 486 618 608 q 582 210 618 321 q 478 42 546 99 q 313 -15 410 -14 l 313 -15 z "},"A":{"ha":694,"x_min":19,"x_max":676,"o":"m 504 219 l 175 219 l 196 318 l 481 318 l 504 219 m 347 607 l 154 0 l 19 0 l 321 875 l 375 875 l 676 0 l 538 0 l 347 607 z "},"Á":{"ha":694,"x_min":19,"x_max":676,"o":"m 504 219 l 175 219 l 196 318 l 481 318 l 504 219 m 347 607 l 154 0 l 19 0 l 321 875 l 375 875 l 676 0 l 538 0 l 347 607 z "},"Ă":{"ha":694,"x_min":19,"x_max":676,"o":"m 504 219 l 175 219 l 196 318 l 481 318 l 504 219 m 347 607 l 154 0 l 19 0 l 321 875 l 375 875 l 676 0 l 538 0 l 347 607 z "},"Ắ":{"ha":694,"x_min":19,"x_max":676,"o":"m 504 219 l 175 219 l 196 318 l 481 318 l 504 219 m 347 607 l 154 0 l 19 0 l 321 875 l 375 875 l 676 0 l 538 0 l 347 607 z "},"Ặ":{"ha":694,"x_min":19,"x_max":676,"o":"m 504 219 l 175 219 l 196 318 l 481 318 l 504 219 m 347 607 l 154 0 l 19 0 l 321 875 l 375 875 l 676 0 l 538 0 l 347 607 z "},"Ằ":{"ha":694,"x_min":19,"x_max":676,"o":"m 504 219 l 175 219 l 196 318 l 481 318 l 504 219 m 347 607 l 154 0 l 19 0 l 321 875 l 375 875 l 676 0 l 538 0 l 347 607 z "},"Ẳ":{"ha":694,"x_min":19,"x_max":676,"o":"m 504 219 l 175 219 l 196 318 l 481 318 l 504 219 m 347 607 l 154 0 l 19 0 l 321 875 l 375 875 l 676 0 l 538 0 l 347 607 m 478 1235 q 464 1187 478 1206 q 433 1153 450 1168 q 402 1123 415 1139 q 389 1085 389 1107 l 389 1074 l 300 1074 l 300 1113 q 313 1148 300 1132 q 342 1178 325 1164 q 371 1204 358 1192 q 383 1231 383 1217 q 370 1260 383 1250 q 338 1271 357 1271 q 297 1260 315 1271 q 267 1221 278 1250 l 211 1289 q 272 1337 238 1322 q 346 1350 307 1351 q 413 1335 383 1350 q 460 1295 443 1321 q 478 1235 478 1269 z "},"Ẵ":{"ha":694,"x_min":19,"x_max":676,"o":"m 504 219 l 175 219 l 196 318 l 481 318 l 504 219 m 347 607 l 154 0 l 19 0 l 321 875 l 375 875 l 676 0 l 538 0 l 347 607 m 456 1303 l 529 1267 q 474 1186 504 1211 q 407 1161 443 1161 q 359 1172 381 1161 q 320 1199 338 1183 q 287 1225 303 1214 q 256 1236 271 1236 q 222 1222 238 1236 q 196 1179 207 1207 l 122 1215 q 174 1292 139 1264 q 244 1321 210 1321 q 294 1310 271 1321 q 336 1284 317 1299 q 372 1258 356 1269 q 403 1247 389 1247 q 431 1260 418 1247 q 456 1303 443 1272 z "},"Â":{"ha":694,"x_min":19,"x_max":676,"o":"m 504 219 l 175 219 l 196 318 l 481 318 l 504 219 m 347 607 l 154 0 l 19 0 l 321 875 l 375 875 l 676 0 l 538 0 l 347 607 m 161 904 l 113 972 l 328 1107 l 367 1107 l 582 974 l 533 904 l 349 999 l 161 904 z "},"Ấ":{"ha":694,"x_min":19,"x_max":761,"o":"m 504 219 l 175 219 l 196 318 l 481 318 l 504 219 m 347 607 l 154 0 l 19 0 l 321 875 l 375 875 l 676 0 l 538 0 l 347 607 z "},"Ậ":{"ha":694,"x_min":19,"x_max":676,"o":"m 504 219 l 175 219 l 196 318 l 481 318 l 504 219 m 347 607 l 154 0 l 19 0 l 321 875 l 375 875 l 676 0 l 538 0 l 347 607 m 161 904 l 113 972 l 328 1107 l 367 1107 l 582 974 l 533 904 l 349 999 l 161 904 z "},"Ầ":{"ha":694,"x_min":19,"x_max":676,"o":"m 504 219 l 175 219 l 196 318 l 481 318 l 504 219 m 347 607 l 154 0 l 19 0 l 321 875 l 375 875 l 676 0 l 538 0 l 347 607 z "},"Ẩ":{"ha":694,"x_min":19,"x_max":676,"o":"m 504 219 l 175 219 l 196 318 l 481 318 l 504 219 m 347 607 l 154 0 l 19 0 l 321 875 l 375 875 l 676 0 l 538 0 l 347 607 z "},"Ẫ":{"ha":694,"x_min":19,"x_max":676,"o":"m 504 219 l 175 219 l 196 318 l 481 318 l 504 219 m 347 607 l 154 0 l 19 0 l 321 875 l 375 875 l 676 0 l 538 0 l 347 607 z "},"Ȁ":{"ha":694,"x_min":19,"x_max":676,"o":"m 504 219 l 175 219 l 196 318 l 481 318 l 504 219 m 347 607 l 154 0 l 19 0 l 321 875 l 375 875 l 676 0 l 538 0 l 347 607 z "},"Ä":{"ha":694,"x_min":19,"x_max":676,"o":"m 504 219 l 175 219 l 196 318 l 481 318 l 504 219 m 347 607 l 154 0 l 19 0 l 321 875 l 375 875 l 676 0 l 538 0 l 347 607 z "},"Ạ":{"ha":694,"x_min":19,"x_max":676,"o":"m 504 219 l 175 219 l 196 318 l 481 318 l 504 219 m 347 607 l 154 0 l 19 0 l 321 875 l 375 875 l 676 0 l 538 0 l 347 607 z "},"À":{"ha":694,"x_min":19,"x_max":676,"o":"m 504 219 l 175 219 l 196 318 l 481 318 l 504 219 m 347 607 l 154 0 l 19 0 l 321 875 l 375 875 l 676 0 l 538 0 l 347 607 z "},"Ả":{"ha":694,"x_min":19,"x_max":676,"o":"m 504 219 l 175 219 l 196 318 l 481 318 l 504 219 m 347 607 l 154 0 l 19 0 l 321 875 l 375 875 l 676 0 l 538 0 l 347 607 m 492 1108 q 478 1060 492 1079 q 447 1027 464 1042 q 416 997 429 1013 q 403 958 403 981 l 403 947 l 314 947 l 314 986 q 326 1022 314 1006 q 356 1051 339 1038 q 385 1078 372 1065 q 397 1104 397 1090 q 384 1134 397 1124 q 351 1144 371 1144 q 310 1134 329 1144 q 281 1094 292 1124 l 225 1163 q 286 1210 251 1196 q 360 1224 321 1225 q 427 1209 397 1224 q 474 1169 457 1194 q 492 1108 492 1143 z "},"Ȃ":{"ha":694,"x_min":19,"x_max":676,"o":"m 504 219 l 175 219 l 196 318 l 481 318 l 504 219 m 347 607 l 154 0 l 19 0 l 321 875 l 375 875 l 676 0 l 538 0 l 347 607 m 232 951 l 143 992 q 229 1096 176 1060 q 349 1132 282 1132 q 469 1096 417 1132 q 554 992 522 1060 l 465 951 q 416 1025 444 1001 q 349 1049 388 1049 q 302 1038 324 1049 q 263 1007 281 1028 q 232 951 246 986 z "},"Ā":{"ha":694,"x_min":19,"x_max":676,"o":"m 504 219 l 175 219 l 196 318 l 481 318 l 504 219 m 347 607 l 154 0 l 19 0 l 321 875 l 375 875 l 676 0 l 538 0 l 347 607 z "},"Ą":{"ha":694,"x_min":19,"x_max":676,"o":"m 504 219 l 175 219 l 196 318 l 481 318 l 504 219 m 347 607 l 154 0 l 19 0 l 321 875 l 375 875 l 676 0 l 538 0 l 347 607 m 631 -222 l 582 -325 q 486 -291 525 -312 q 427 -242 447 -269 q 407 -181 407 -214 q 428 -108 407 -144 q 490 -35 449 -71 q 590 33 532 1 l 640 0 q 586 -52 608 -26 q 552 -101 564 -78 q 540 -146 540 -125 q 563 -192 540 -172 q 631 -222 585 -212 z "},"Å":{"ha":694,"x_min":19,"x_max":676,"o":"m 504 219 l 175 219 l 196 318 l 481 318 l 504 219 m 347 607 l 154 0 l 19 0 l 321 875 l 375 875 l 676 0 l 538 0 l 347 607 z "},"Ǻ":{"ha":694,"x_min":19,"x_max":676,"o":"m 504 219 l 175 219 l 196 318 l 481 318 l 504 219 m 347 607 l 154 0 l 19 0 l 321 875 l 375 875 l 676 0 l 538 0 l 347 607 z "},"Ã":{"ha":694,"x_min":19,"x_max":676,"o":"m 504 219 l 175 219 l 196 318 l 481 318 l 504 219 m 347 607 l 154 0 l 19 0 l 321 875 l 375 875 l 676 0 l 538 0 l 347 607 z "},"Æ":{"ha":694,"x_min":7,"x_max":690,"o":"m 7 0 l 275 865 l 690 865 l 690 753 l 465 753 l 465 507 l 656 507 l 656 393 l 465 393 l 465 113 l 688 113 l 688 0 l 342 0 l 342 225 l 203 225 l 136 0 l 7 0 m 228 338 l 342 338 l 347 725 l 340 725 l 228 338 z "},"Ǽ":{"ha":694,"x_min":7,"x_max":690,"o":"m 7 0 l 275 865 l 690 865 l 690 753 l 465 753 l 465 507 l 656 507 l 656 393 l 465 393 l 465 113 l 688 113 l 688 0 l 342 0 l 342 225 l 203 225 l 136 0 l 7 0 m 228 338 l 342 338 l 347 725 l 340 725 l 228 338 z "},"B":{"ha":694,"x_min":57,"x_max":649,"o":"m 57 0 l 57 865 l 315 865 q 448 850 392 865 q 541 806 504 835 q 596 737 578 776 q 614 650 614 697 q 599 574 614 613 q 558 506 585 536 q 489 461 531 476 q 554 425 525 447 q 604 374 583 403 q 637 314 625 346 q 649 247 649 282 q 628 146 649 192 q 565 67 607 100 q 461 17 524 35 q 314 0 399 0 l 57 0 m 193 115 l 329 115 q 422 130 383 115 q 483 175 461 144 q 504 253 504 206 q 485 331 504 297 q 424 385 467 365 q 307 404 381 404 l 193 404 l 193 115 m 193 515 l 301 515 q 406 531 368 515 q 460 574 444 546 q 476 636 476 601 q 467 683 476 663 q 439 720 458 704 q 389 744 419 736 q 317 753 358 753 l 193 753 l 193 515 z "},"C":{"ha":694,"x_min":47,"x_max":661,"o":"m 390 -15 q 258 11 319 -15 q 149 92 196 38 q 74 229 101 146 q 47 428 47 313 q 67 605 47 529 q 122 733 88 681 q 201 816 157 785 q 294 862 246 847 q 392 876 343 876 q 558 831 489 876 q 661 707 626 786 l 568 644 l 557 638 l 550 647 q 549 669 553 658 q 533 697 546 679 q 468 751 503 738 q 397 765 433 765 q 313 744 353 765 q 244 681 274 722 q 199 577 215 639 q 182 435 182 515 q 198 295 182 357 q 242 190 214 233 q 309 123 271 146 q 392 100 347 100 q 456 110 426 100 q 510 142 485 119 q 554 197 535 165 l 651 129 q 542 19 606 53 q 390 -15 478 -15 l 390 -15 z "},"Ć":{"ha":694,"x_min":47,"x_max":661,"o":"m 390 -15 q 258 11 319 -15 q 149 92 196 38 q 74 229 101 146 q 47 428 47 313 q 67 605 47 529 q 122 733 88 681 q 201 816 157 785 q 294 862 246 847 q 392 876 343 876 q 558 831 489 876 q 661 707 626 786 l 568 644 l 557 638 l 550 647 q 549 669 553 658 q 533 697 546 679 q 468 751 503 738 q 397 765 433 765 q 313 744 353 765 q 244 681 274 722 q 199 577 215 639 q 182 435 182 515 q 198 295 182 357 q 242 190 214 233 q 309 123 271 146 q 392 100 347 100 q 456 110 426 100 q 510 142 485 119 q 554 197 535 165 l 651 129 q 542 19 606 53 q 390 -15 478 -15 l 390 -15 z "},"Č":{"ha":694,"x_min":47,"x_max":661,"o":"m 390 -15 q 258 11 319 -15 q 149 92 196 38 q 74 229 101 146 q 47 428 47 313 q 67 605 47 529 q 122 733 88 681 q 201 816 157 785 q 294 862 246 847 q 392 876 343 876 q 558 831 489 876 q 661 707 626 786 l 568 644 l 557 638 l 550 647 q 549 669 553 658 q 533 697 546 679 q 468 751 503 738 q 397 765 433 765 q 313 744 353 765 q 244 681 274 722 q 199 577 215 639 q 182 435 182 515 q 198 295 182 357 q 242 190 214 233 q 309 123 271 146 q 392 100 347 100 q 456 110 426 100 q 510 142 485 119 q 554 197 535 165 l 651 129 q 542 19 606 53 q 390 -15 478 -15 l 390 -15 z "},"Ç":{"ha":694,"x_min":47,"x_max":661,"o":"m 390 -15 q 258 11 319 -15 q 149 92 196 38 q 74 229 101 146 q 47 428 47 313 q 67 605 47 529 q 122 733 88 681 q 201 816 157 785 q 294 862 246 847 q 392 876 343 876 q 558 831 489 876 q 661 707 626 786 l 568 644 l 557 638 l 550 647 q 549 669 553 658 q 533 697 546 679 q 468 751 503 738 q 397 765 433 765 q 313 744 353 765 q 244 681 274 722 q 199 577 215 639 q 182 435 182 515 q 198 295 182 357 q 242 190 214 233 q 309 123 271 146 q 392 100 347 100 q 456 110 426 100 q 510 142 485 119 q 554 197 535 165 l 651 129 q 542 19 606 53 q 390 -15 478 -15 l 390 -15 z "},"Ḉ":{"ha":694,"x_min":47,"x_max":661,"o":"m 390 -15 q 258 11 319 -15 q 149 92 196 38 q 74 229 101 146 q 47 428 47 313 q 67 605 47 529 q 122 733 88 681 q 201 816 157 785 q 294 862 246 847 q 392 876 343 876 q 558 831 489 876 q 661 707 626 786 l 568 644 l 557 638 l 550 647 q 549 669 553 658 q 533 697 546 679 q 468 751 503 738 q 397 765 433 765 q 313 744 353 765 q 244 681 274 722 q 199 577 215 639 q 182 435 182 515 q 198 295 182 357 q 242 190 214 233 q 309 123 271 146 q 392 100 347 100 q 456 110 426 100 q 510 142 485 119 q 554 197 535 165 l 651 129 q 542 19 606 53 q 390 -15 478 -15 l 390 -15 z "},"Ĉ":{"ha":694,"x_min":47,"x_max":661,"o":"m 390 -15 q 258 11 319 -15 q 149 92 196 38 q 74 229 101 146 q 47 428 47 313 q 67 605 47 529 q 122 733 88 681 q 201 816 157 785 q 294 862 246 847 q 392 876 343 876 q 558 831 489 876 q 661 707 626 786 l 568 644 l 557 638 l 550 647 q 549 669 553 658 q 533 697 546 679 q 468 751 503 738 q 397 765 433 765 q 313 744 353 765 q 244 681 274 722 q 199 577 215 639 q 182 435 182 515 q 198 295 182 357 q 242 190 214 233 q 309 123 271 146 q 392 100 347 100 q 456 110 426 100 q 510 142 485 119 q 554 197 535 165 l 651 129 q 542 19 606 53 q 390 -15 478 -15 l 390 -15 m 188 904 l 139 972 l 354 1107 l 393 1107 l 608 974 l 560 904 l 375 999 l 188 904 z "},"Ċ":{"ha":694,"x_min":47,"x_max":661,"o":"m 390 -15 q 258 11 319 -15 q 149 92 196 38 q 74 229 101 146 q 47 428 47 313 q 67 605 47 529 q 122 733 88 681 q 201 816 157 785 q 294 862 246 847 q 392 876 343 876 q 558 831 489 876 q 661 707 626 786 l 568 644 l 557 638 l 550 647 q 549 669 553 658 q 533 697 546 679 q 468 751 503 738 q 397 765 433 765 q 313 744 353 765 q 244 681 274 722 q 199 577 215 639 q 182 435 182 515 q 198 295 182 357 q 242 190 214 233 q 309 123 271 146 q 392 100 347 100 q 456 110 426 100 q 510 142 485 119 q 554 197 535 165 l 651 129 q 542 19 606 53 q 390 -15 478 -15 l 390 -15 z "},"D":{"ha":694,"x_min":64,"x_max":650,"o":"m 64 -1 l 64 865 l 279 865 q 408 851 356 865 q 497 811 460 838 q 561 746 533 785 q 610 658 590 707 q 640 552 631 610 q 650 428 650 494 q 626 249 649 328 q 556 114 603 169 q 438 28 510 58 q 263 -1 365 -1 l 64 -1 m 196 107 l 260 107 q 409 145 353 107 q 491 255 465 183 q 517 424 517 326 q 493 600 517 526 q 417 715 469 674 q 274 756 365 756 l 196 756 l 196 107 z "},"Ð":{"ha":694,"x_min":29,"x_max":661,"o":"m 88 0 l 88 403 l 29 403 l 29 513 l 88 513 l 88 865 l 299 865 q 411 853 363 865 q 496 818 460 840 q 558 769 532 796 q 601 714 583 742 q 632 644 618 686 q 653 548 646 603 q 661 428 661 493 q 639 249 661 328 q 570 114 617 169 q 451 29 524 58 q 282 0 379 0 l 88 0 m 215 111 l 279 111 q 418 147 363 111 q 501 253 474 183 q 529 424 529 324 q 505 599 529 525 q 428 710 481 672 q 293 749 376 749 l 215 749 l 215 513 l 351 513 l 351 403 l 215 403 l 215 111 z "},"Ď":{"ha":694,"x_min":64,"x_max":650,"o":"m 64 -1 l 64 865 l 279 865 q 408 851 356 865 q 497 811 460 838 q 561 746 533 785 q 610 658 590 707 q 640 552 631 610 q 650 428 650 494 q 626 249 649 328 q 556 114 603 169 q 438 28 510 58 q 263 -1 365 -1 l 64 -1 m 196 107 l 260 107 q 409 145 353 107 q 491 255 465 183 q 517 424 517 326 q 493 600 517 526 q 417 715 469 674 q 274 756 365 756 l 196 756 l 196 107 z "},"Đ":{"ha":694,"x_min":29,"x_max":661,"o":"m 88 0 l 88 403 l 29 403 l 29 513 l 88 513 l 88 865 l 299 865 q 411 853 363 865 q 496 818 460 840 q 558 769 532 796 q 601 714 583 742 q 632 644 618 686 q 653 548 646 603 q 661 428 661 493 q 639 249 661 328 q 570 114 617 169 q 451 29 524 58 q 282 0 379 0 l 88 0 m 215 111 l 279 111 q 418 147 363 111 q 501 253 474 183 q 529 424 529 324 q 505 599 529 525 q 428 710 481 672 q 293 749 376 749 l 215 749 l 215 513 l 351 513 l 351 403 l 215 403 l 215 111 z "},"Ḍ":{"ha":694,"x_min":64,"x_max":650,"o":"m 64 -1 l 64 865 l 279 865 q 408 851 356 865 q 497 811 460 838 q 561 746 533 785 q 610 658 590 707 q 640 552 631 610 q 650 428 650 494 q 626 249 649 328 q 556 114 603 169 q 438 28 510 58 q 263 -1 365 -1 l 64 -1 m 196 107 l 260 107 q 409 145 353 107 q 491 255 465 183 q 517 424 517 326 q 493 600 517 526 q 417 715 469 674 q 274 756 365 756 l 196 756 l 196 107 z "},"Ḏ":{"ha":694,"x_min":64,"x_max":650,"o":"m 64 -1 l 64 865 l 279 865 q 408 851 356 865 q 497 811 460 838 q 561 746 533 785 q 610 658 590 707 q 640 552 631 610 q 650 428 650 494 q 626 249 649 328 q 556 114 603 169 q 438 28 510 58 q 263 -1 365 -1 l 64 -1 m 196 107 l 260 107 q 409 145 353 107 q 491 255 465 183 q 517 424 517 326 q 493 600 517 526 q 417 715 469 674 q 274 756 365 756 l 196 756 l 196 107 z "},"E":{"ha":694,"x_min":75,"x_max":626,"o":"m 75 0 l 75 867 l 626 867 l 626 753 l 207 753 l 207 508 l 553 508 l 553 393 l 207 393 l 207 114 l 624 114 l 624 0 l 75 0 z "},"É":{"ha":694,"x_min":75,"x_max":626,"o":"m 75 0 l 75 867 l 626 867 l 626 753 l 207 753 l 207 508 l 553 508 l 553 393 l 207 393 l 207 114 l 624 114 l 624 0 l 75 0 z "},"Ĕ":{"ha":694,"x_min":75,"x_max":626,"o":"m 75 0 l 75 867 l 626 867 l 626 753 l 207 753 l 207 508 l 553 508 l 553 393 l 207 393 l 207 114 l 624 114 l 624 0 l 75 0 z "},"Ě":{"ha":694,"x_min":75,"x_max":626,"o":"m 75 0 l 75 867 l 626 867 l 626 753 l 207 753 l 207 508 l 553 508 l 553 393 l 207 393 l 207 114 l 624 114 l 624 0 l 75 0 z "},"Ḝ":{"ha":694,"x_min":75,"x_max":626,"o":"m 75 0 l 75 867 l 626 867 l 626 753 l 207 753 l 207 508 l 553 508 l 553 393 l 207 393 l 207 114 l 624 114 l 624 0 l 75 0 z "},"Ê":{"ha":694,"x_min":75,"x_max":626,"o":"m 75 0 l 75 867 l 626 867 l 626 753 l 207 753 l 207 508 l 553 508 l 553 393 l 207 393 l 207 114 l 624 114 l 624 0 l 75 0 m 179 904 l 131 972 l 346 1107 l 385 1107 l 600 974 l 551 904 l 367 999 l 179 904 z "},"Ế":{"ha":694,"x_min":75,"x_max":779,"o":"m 75 0 l 75 867 l 626 867 l 626 753 l 207 753 l 207 508 l 553 508 l 553 393 l 207 393 l 207 114 l 624 114 l 624 0 l 75 0 z "},"Ệ":{"ha":694,"x_min":75,"x_max":626,"o":"m 75 0 l 75 867 l 626 867 l 626 753 l 207 753 l 207 508 l 553 508 l 553 393 l 207 393 l 207 114 l 624 114 l 624 0 l 75 0 m 179 904 l 131 972 l 346 1107 l 385 1107 l 600 974 l 551 904 l 367 999 l 179 904 z "},"Ề":{"ha":694,"x_min":75,"x_max":626,"o":"m 75 0 l 75 867 l 626 867 l 626 753 l 207 753 l 207 508 l 553 508 l 553 393 l 207 393 l 207 114 l 624 114 l 624 0 l 75 0 z "},"Ể":{"ha":694,"x_min":75,"x_max":685,"o":"m 75 0 l 75 867 l 626 867 l 626 753 l 207 753 l 207 508 l 553 508 l 553 393 l 207 393 l 207 114 l 624 114 l 624 0 l 75 0 z "},"Ễ":{"ha":694,"x_min":75,"x_max":626,"o":"m 75 0 l 75 867 l 626 867 l 626 753 l 207 753 l 207 508 l 553 508 l 553 393 l 207 393 l 207 114 l 624 114 l 624 0 l 75 0 z "},"Ȅ":{"ha":694,"x_min":75,"x_max":626,"o":"m 75 0 l 75 867 l 626 867 l 626 753 l 207 753 l 207 508 l 553 508 l 553 393 l 207 393 l 207 114 l 624 114 l 624 0 l 75 0 z "},"Ë":{"ha":694,"x_min":75,"x_max":626,"o":"m 75 0 l 75 867 l 626 867 l 626 753 l 207 753 l 207 508 l 553 508 l 553 393 l 207 393 l 207 114 l 624 114 l 624 0 l 75 0 z "},"Ė":{"ha":694,"x_min":75,"x_max":626,"o":"m 75 0 l 75 867 l 626 867 l 626 753 l 207 753 l 207 508 l 553 508 l 553 393 l 207 393 l 207 114 l 624 114 l 624 0 l 75 0 z "},"Ẹ":{"ha":694,"x_min":75,"x_max":626,"o":"m 75 0 l 75 867 l 626 867 l 626 753 l 207 753 l 207 508 l 553 508 l 553 393 l 207 393 l 207 114 l 624 114 l 624 0 l 75 0 z "},"È":{"ha":694,"x_min":75,"x_max":626,"o":"m 75 0 l 75 867 l 626 867 l 626 753 l 207 753 l 207 508 l 553 508 l 553 393 l 207 393 l 207 114 l 624 114 l 624 0 l 75 0 z "},"Ẻ":{"ha":694,"x_min":75,"x_max":626,"o":"m 75 0 l 75 867 l 626 867 l 626 753 l 207 753 l 207 508 l 553 508 l 553 393 l 207 393 l 207 114 l 624 114 l 624 0 l 75 0 m 510 1108 q 496 1060 510 1079 q 465 1027 482 1042 q 434 997 447 1013 q 421 958 421 981 l 421 947 l 332 947 l 332 986 q 344 1022 332 1006 q 374 1051 357 1038 q 403 1078 390 1065 q 415 1104 415 1090 q 402 1134 415 1124 q 369 1144 389 1144 q 328 1134 347 1144 q 299 1094 310 1124 l 243 1163 q 304 1210 269 1196 q 378 1224 339 1225 q 445 1209 415 1224 q 492 1169 475 1194 q 510 1108 510 1143 z "},"Ȇ":{"ha":694,"x_min":75,"x_max":626,"o":"m 75 0 l 75 867 l 626 867 l 626 753 l 207 753 l 207 508 l 553 508 l 553 393 l 207 393 l 207 114 l 624 114 l 624 0 l 75 0 m 250 951 l 161 992 q 247 1096 194 1060 q 367 1132 300 1132 q 488 1096 435 1132 q 572 992 540 1060 l 483 951 q 434 1025 463 1001 q 367 1049 406 1049 q 320 1038 342 1049 q 281 1007 299 1028 q 250 951 264 986 z "},"Ē":{"ha":694,"x_min":75,"x_max":626,"o":"m 75 0 l 75 867 l 626 867 l 626 753 l 207 753 l 207 508 l 553 508 l 553 393 l 207 393 l 207 114 l 624 114 l 624 0 l 75 0 z "},"Ḗ":{"ha":694,"x_min":75,"x_max":626,"o":"m 75 0 l 75 867 l 626 867 l 626 753 l 207 753 l 207 508 l 553 508 l 553 393 l 207 393 l 207 114 l 624 114 l 624 0 l 75 0 z "},"Ḕ":{"ha":694,"x_min":75,"x_max":626,"o":"m 75 0 l 75 867 l 626 867 l 626 753 l 207 753 l 207 508 l 553 508 l 553 393 l 207 393 l 207 114 l 624 114 l 624 0 l 75 0 z "},"Ę":{"ha":694,"x_min":75,"x_max":626,"o":"m 75 0 l 75 867 l 626 867 l 626 753 l 207 753 l 207 508 l 553 508 l 553 393 l 207 393 l 207 114 l 624 114 l 624 0 l 75 0 m 539 -222 l 490 -325 q 394 -291 433 -312 q 335 -242 356 -269 q 315 -181 315 -214 q 336 -108 315 -144 q 399 -35 357 -71 q 499 33 440 1 l 549 0 q 494 -52 517 -26 q 460 -101 472 -78 q 449 -146 449 -125 q 471 -192 449 -172 q 539 -222 493 -212 z "},"Ẽ":{"ha":694,"x_min":75,"x_max":626,"o":"m 75 0 l 75 867 l 626 867 l 626 753 l 207 753 l 207 508 l 553 508 l 553 393 l 207 393 l 207 114 l 624 114 l 624 0 l 75 0 z "},"Ƹ":{"ha":694,"x_min":78,"x_max":618,"o":"m 371 -22 q 214 14 279 -22 q 113 109 149 50 q 78 240 78 168 q 101 358 78 304 q 169 449 125 411 q 272 508 213 488 q 406 529 332 529 l 467 529 l 467 422 q 352 414 400 425 q 274 381 304 403 q 228 324 243 358 q 214 247 214 290 q 235 165 214 199 q 294 113 257 131 q 381 94 332 94 q 458 106 426 94 q 515 142 490 117 q 535 169 531 160 q 538 189 539 179 l 546 199 l 556 190 l 618 85 q 510 4 571 31 q 371 -22 449 -22 l 371 -22 m 103 760 l 103 865 l 567 865 l 567 746 l 265 746 l 467 529 l 351 499 l 103 760 z "},"F":{"ha":694,"x_min":97,"x_max":622,"o":"m 97 0 l 97 867 l 622 867 l 622 753 l 224 753 l 224 524 l 546 524 l 546 410 l 224 410 l 224 0 l 97 0 z "},"G":{"ha":694,"x_min":39,"x_max":650,"o":"m 385 -15 q 200 40 278 -15 q 81 194 122 94 q 40 426 40 294 q 62 616 39 538 q 122 746 85 694 q 206 826 160 797 q 297 867 251 856 q 382 878 343 878 q 488 860 436 878 q 581 809 539 842 q 649 729 624 776 l 565 650 l 554 640 l 546 650 q 543 671 547 661 q 525 699 539 681 q 487 733 507 719 q 442 755 467 747 q 383 763 417 763 q 319 752 350 763 q 263 719 289 742 q 217 658 236 696 q 186 567 197 621 q 175 443 175 514 q 190 293 175 357 q 233 186 206 229 q 299 121 260 143 q 385 99 338 99 q 420 101 401 99 q 458 109 439 104 q 494 124 476 114 q 526 144 511 133 l 526 321 l 379 321 l 379 435 l 650 435 l 650 75 q 522 6 589 28 q 385 -15 454 -15 l 385 -15 z "},"Ğ":{"ha":694,"x_min":39,"x_max":650,"o":"m 385 -15 q 200 40 278 -15 q 81 194 122 94 q 40 426 40 294 q 62 616 39 538 q 122 746 85 694 q 206 826 160 797 q 297 867 251 856 q 382 878 343 878 q 488 860 436 878 q 581 809 539 842 q 649 729 624 776 l 565 650 l 554 640 l 546 650 q 543 671 547 661 q 525 699 539 681 q 487 733 507 719 q 442 755 467 747 q 383 763 417 763 q 319 752 350 763 q 263 719 289 742 q 217 658 236 696 q 186 567 197 621 q 175 443 175 514 q 190 293 175 357 q 233 186 206 229 q 299 121 260 143 q 385 99 338 99 q 420 101 401 99 q 458 109 439 104 q 494 124 476 114 q 526 144 511 133 l 526 321 l 379 321 l 379 435 l 650 435 l 650 75 q 522 6 589 28 q 385 -15 454 -15 l 385 -15 z "},"Ǧ":{"ha":694,"x_min":39,"x_max":650,"o":"m 385 -15 q 200 40 278 -15 q 81 194 122 94 q 40 426 40 294 q 62 616 39 538 q 122 746 85 694 q 206 826 160 797 q 297 867 251 856 q 382 878 343 878 q 488 860 436 878 q 581 809 539 842 q 649 729 624 776 l 565 650 l 554 640 l 546 650 q 543 671 547 661 q 525 699 539 681 q 487 733 507 719 q 442 755 467 747 q 383 763 417 763 q 319 752 350 763 q 263 719 289 742 q 217 658 236 696 q 186 567 197 621 q 175 443 175 514 q 190 293 175 357 q 233 186 206 229 q 299 121 260 143 q 385 99 338 99 q 420 101 401 99 q 458 109 439 104 q 494 124 476 114 q 526 144 511 133 l 526 321 l 379 321 l 379 435 l 650 435 l 650 75 q 522 6 589 28 q 385 -15 454 -15 l 385 -15 z "},"Ĝ":{"ha":694,"x_min":39,"x_max":650,"o":"m 385 -15 q 200 40 278 -15 q 81 194 122 94 q 40 426 40 294 q 62 616 39 538 q 122 746 85 694 q 206 826 160 797 q 297 867 251 856 q 382 878 343 878 q 488 860 436 878 q 581 809 539 842 q 649 729 624 776 l 565 650 l 554 640 l 546 650 q 543 671 547 661 q 525 699 539 681 q 487 733 507 719 q 442 755 467 747 q 383 763 417 763 q 319 752 350 763 q 263 719 289 742 q 217 658 236 696 q 186 567 197 621 q 175 443 175 514 q 190 293 175 357 q 233 186 206 229 q 299 121 260 143 q 385 99 338 99 q 420 101 401 99 q 458 109 439 104 q 494 124 476 114 q 526 144 511 133 l 526 321 l 379 321 l 379 435 l 650 435 l 650 75 q 522 6 589 28 q 385 -15 454 -15 l 385 -15 m 189 904 l 140 972 l 356 1107 l 394 1107 l 610 974 l 561 904 l 376 999 l 189 904 z "},"Ģ":{"ha":694,"x_min":39,"x_max":650,"o":"m 385 -15 q 200 40 278 -15 q 81 194 122 94 q 40 426 40 294 q 62 616 39 538 q 122 746 85 694 q 206 826 160 797 q 297 867 251 856 q 382 878 343 878 q 488 860 436 878 q 581 809 539 842 q 649 729 624 776 l 565 650 l 554 640 l 546 650 q 543 671 547 661 q 525 699 539 681 q 487 733 507 719 q 442 755 467 747 q 383 763 417 763 q 319 752 350 763 q 263 719 289 742 q 217 658 236 696 q 186 567 197 621 q 175 443 175 514 q 190 293 175 357 q 233 186 206 229 q 299 121 260 143 q 385 99 338 99 q 420 101 401 99 q 458 109 439 104 q 494 124 476 114 q 526 144 511 133 l 526 321 l 379 321 l 379 435 l 650 435 l 650 75 q 522 6 589 28 q 385 -15 454 -15 l 385 -15 m 339 -401 l 274 -346 q 328 -280 307 -314 q 349 -224 349 -246 q 333 -190 349 -206 q 303 -158 318 -175 q 289 -112 289 -140 q 315 -53 289 -75 q 378 -31 340 -31 q 449 -63 421 -31 q 476 -149 476 -96 q 461 -226 476 -186 q 415 -310 446 -267 q 339 -401 385 -353 z "},"Ġ":{"ha":694,"x_min":39,"x_max":650,"o":"m 385 -15 q 200 40 278 -15 q 81 194 122 94 q 40 426 40 294 q 62 616 39 538 q 122 746 85 694 q 206 826 160 797 q 297 867 251 856 q 382 878 343 878 q 488 860 436 878 q 581 809 539 842 q 649 729 624 776 l 565 650 l 554 640 l 546 650 q 543 671 547 661 q 525 699 539 681 q 487 733 507 719 q 442 755 467 747 q 383 763 417 763 q 319 752 350 763 q 263 719 289 742 q 217 658 236 696 q 186 567 197 621 q 175 443 175 514 q 190 293 175 357 q 233 186 206 229 q 299 121 260 143 q 385 99 338 99 q 420 101 401 99 q 458 109 439 104 q 494 124 476 114 q 526 144 511 133 l 526 321 l 379 321 l 379 435 l 650 435 l 650 75 q 522 6 589 28 q 385 -15 454 -15 l 385 -15 z "},"Ḡ":{"ha":694,"x_min":39,"x_max":650,"o":"m 385 -15 q 200 40 278 -15 q 81 194 122 94 q 40 426 40 294 q 62 616 39 538 q 122 746 85 694 q 206 826 160 797 q 297 867 251 856 q 382 878 343 878 q 488 860 436 878 q 581 809 539 842 q 649 729 624 776 l 565 650 l 554 640 l 546 650 q 543 671 547 661 q 525 699 539 681 q 487 733 507 719 q 442 755 467 747 q 383 763 417 763 q 319 752 350 763 q 263 719 289 742 q 217 658 236 696 q 186 567 197 621 q 175 443 175 514 q 190 293 175 357 q 233 186 206 229 q 299 121 260 143 q 385 99 338 99 q 420 101 401 99 q 458 109 439 104 q 494 124 476 114 q 526 144 511 133 l 526 321 l 379 321 l 379 435 l 650 435 l 650 75 q 522 6 589 28 q 385 -15 454 -15 l 385 -15 z "},"H":{"ha":694,"x_min":58,"x_max":640,"o":"m 58 865 l 197 865 l 210 865 l 210 853 q 200 835 201 844 q 199 801 199 825 l 199 508 l 489 508 l 489 865 l 626 865 l 640 865 l 640 853 q 630 835 632 844 q 628 801 628 825 l 628 0 l 488 0 l 488 397 l 199 397 l 199 0 l 58 0 l 58 865 z "},"Ħ":{"ha":694,"x_min":8,"x_max":683,"o":"m 8 676 l 8 783 l 683 783 l 683 676 l 8 676 m 58 865 l 197 865 l 210 865 l 210 853 q 200 835 201 844 q 199 801 199 825 l 199 508 l 489 508 l 489 865 l 626 865 l 640 865 l 640 853 q 630 835 632 844 q 628 801 628 825 l 628 0 l 488 0 l 488 397 l 199 397 l 199 0 l 58 0 l 58 865 z "},"Ḫ":{"ha":694,"x_min":58,"x_max":640,"o":"m 58 865 l 197 865 l 210 865 l 210 853 q 200 835 201 844 q 199 801 199 825 l 199 508 l 489 508 l 489 865 l 626 865 l 640 865 l 640 853 q 630 835 632 844 q 628 801 628 825 l 628 0 l 488 0 l 488 397 l 199 397 l 199 0 l 58 0 l 58 865 z "},"Ĥ":{"ha":694,"x_min":58,"x_max":640,"o":"m 58 865 l 197 865 l 210 865 l 210 853 q 200 835 201 844 q 199 801 199 825 l 199 508 l 489 508 l 489 865 l 626 865 l 640 865 l 640 853 q 630 835 632 844 q 628 801 628 825 l 628 0 l 488 0 l 488 397 l 199 397 l 199 0 l 58 0 l 58 865 m 160 904 l 111 972 l 326 1107 l 365 1107 l 581 974 l 532 904 l 347 999 l 160 904 z "},"Ḥ":{"ha":694,"x_min":58,"x_max":640,"o":"m 58 865 l 197 865 l 210 865 l 210 853 q 200 835 201 844 q 199 801 199 825 l 199 508 l 489 508 l 489 865 l 626 865 l 640 865 l 640 853 q 630 835 632 844 q 628 801 628 825 l 628 0 l 488 0 l 488 397 l 199 397 l 199 0 l 58 0 l 58 865 z "},"I":{"ha":694,"x_min":103,"x_max":582,"o":"m 103 0 l 103 113 l 272 113 l 272 753 l 111 753 l 111 865 l 574 865 l 574 753 l 404 753 l 404 111 l 582 111 l 582 0 l 103 0 z "},"Í":{"ha":694,"x_min":103,"x_max":582,"o":"m 103 0 l 103 113 l 272 113 l 272 753 l 111 753 l 111 865 l 574 865 l 574 753 l 404 753 l 404 111 l 582 111 l 582 0 l 103 0 z "},"Ĭ":{"ha":694,"x_min":103,"x_max":582,"o":"m 103 0 l 103 113 l 272 113 l 272 753 l 111 753 l 111 865 l 574 865 l 574 753 l 404 753 l 404 111 l 582 111 l 582 0 l 103 0 z "},"Î":{"ha":694,"x_min":101,"x_max":582,"o":"m 103 0 l 103 113 l 272 113 l 272 753 l 111 753 l 111 865 l 574 865 l 574 753 l 404 753 l 404 111 l 582 111 l 582 0 l 103 0 m 151 904 l 103 972 l 318 1107 l 357 1107 l 572 974 l 524 904 l 339 999 l 151 904 z "},"Ȉ":{"ha":694,"x_min":94,"x_max":582,"o":"m 103 0 l 103 113 l 272 113 l 272 753 l 111 753 l 111 865 l 574 865 l 574 753 l 404 753 l 404 111 l 582 111 l 582 0 l 103 0 z "},"Ï":{"ha":694,"x_min":103,"x_max":582,"o":"m 103 0 l 103 113 l 272 113 l 272 753 l 111 753 l 111 865 l 574 865 l 574 753 l 404 753 l 404 111 l 582 111 l 582 0 l 103 0 z "},"Ḯ":{"ha":694,"x_min":103,"x_max":582,"o":"m 103 0 l 103 113 l 272 113 l 272 753 l 111 753 l 111 865 l 574 865 l 574 753 l 404 753 l 404 111 l 582 111 l 582 0 l 103 0 z "},"İ":{"ha":694,"x_min":103,"x_max":582,"o":"m 103 0 l 103 113 l 272 113 l 272 753 l 111 753 l 111 865 l 574 865 l 574 753 l 404 753 l 404 111 l 582 111 l 582 0 l 103 0 z "},"Ị":{"ha":694,"x_min":103,"x_max":582,"o":"m 103 0 l 103 113 l 272 113 l 272 753 l 111 753 l 111 865 l 574 865 l 574 753 l 404 753 l 404 111 l 582 111 l 582 0 l 103 0 z "},"Ì":{"ha":694,"x_min":103,"x_max":582,"o":"m 103 0 l 103 113 l 272 113 l 272 753 l 111 753 l 111 865 l 574 865 l 574 753 l 404 753 l 404 111 l 582 111 l 582 0 l 103 0 z "},"Ỉ":{"ha":694,"x_min":103,"x_max":582,"o":"m 103 0 l 103 113 l 272 113 l 272 753 l 111 753 l 111 865 l 574 865 l 574 753 l 404 753 l 404 111 l 582 111 l 582 0 l 103 0 m 482 1108 q 468 1060 482 1079 q 437 1027 454 1042 q 406 997 419 1013 q 393 958 393 981 l 393 947 l 304 947 l 304 986 q 317 1022 304 1006 q 346 1051 329 1038 q 375 1078 363 1065 q 388 1104 388 1090 q 374 1134 388 1124 q 342 1144 361 1144 q 301 1134 319 1144 q 271 1094 282 1124 l 215 1163 q 276 1210 242 1196 q 350 1224 311 1225 q 417 1209 388 1224 q 465 1169 447 1194 q 482 1108 482 1143 z "},"Ȋ":{"ha":694,"x_min":103,"x_max":582,"o":"m 103 0 l 103 113 l 272 113 l 272 753 l 111 753 l 111 865 l 574 865 l 574 753 l 404 753 l 404 111 l 582 111 l 582 0 l 103 0 m 222 951 l 133 992 q 219 1096 167 1060 q 339 1132 272 1132 q 460 1096 407 1132 q 544 992 513 1060 l 456 951 q 406 1025 435 1001 q 339 1049 378 1049 q 292 1038 314 1049 q 253 1007 271 1028 q 222 951 236 986 z "},"Ī":{"ha":694,"x_min":103,"x_max":582,"o":"m 103 0 l 103 113 l 272 113 l 272 753 l 111 753 l 111 865 l 574 865 l 574 753 l 404 753 l 404 111 l 582 111 l 582 0 l 103 0 z "},"Į":{"ha":694,"x_min":103,"x_max":586,"o":"m 103 0 l 103 113 l 272 113 l 272 753 l 111 753 l 111 865 l 574 865 l 574 753 l 404 753 l 404 111 l 582 111 l 582 0 l 103 0 m 576 -222 l 528 -325 q 432 -291 471 -312 q 373 -242 393 -269 q 353 -181 353 -214 q 374 -108 353 -144 q 436 -35 394 -71 q 536 33 478 1 l 586 0 q 532 -52 554 -26 q 498 -101 510 -78 q 486 -146 486 -125 q 508 -192 486 -172 q 576 -222 531 -212 z "},"Ĩ":{"ha":694,"x_min":103,"x_max":582,"o":"m 103 0 l 103 113 l 272 113 l 272 753 l 111 753 l 111 865 l 574 865 l 574 753 l 404 753 l 404 111 l 582 111 l 582 0 l 103 0 z "},"J":{"ha":694,"x_min":51,"x_max":644,"o":"m 269 -18 q 149 5 206 -18 q 51 78 92 28 l 121 182 l 131 193 l 140 186 q 147 165 142 175 q 168 139 151 154 q 211 115 189 124 q 261 106 233 106 q 327 126 301 106 q 365 190 353 146 q 378 301 378 233 l 378 753 l 217 753 l 217 865 l 644 865 l 644 753 l 515 753 l 515 293 q 497 153 517 213 q 441 55 476 93 q 362 -1 406 17 q 269 -18 318 -18 l 269 -18 z "},"Ĵ":{"ha":694,"x_min":51,"x_max":681,"o":"m 269 -18 q 149 5 206 -18 q 51 78 92 28 l 121 182 l 131 193 l 140 186 q 147 165 142 175 q 168 139 151 154 q 211 115 189 124 q 261 106 233 106 q 327 126 301 106 q 365 190 353 146 q 378 301 378 233 l 378 753 l 217 753 l 217 865 l 644 865 l 644 753 l 515 753 l 515 293 q 497 153 517 213 q 441 55 476 93 q 362 -1 406 17 q 269 -18 318 -18 l 269 -18 m 260 904 l 211 972 l 426 1107 l 465 1107 l 681 974 l 632 904 l 447 999 l 260 904 z "},"K":{"ha":694,"x_min":53,"x_max":674,"o":"m 251 406 l 190 331 l 190 0 l 53 0 l 53 865 l 189 865 l 203 865 l 203 853 q 192 835 194 844 q 190 801 190 825 l 190 496 l 504 872 q 525 869 513 871 q 550 867 538 868 q 574 866 563 867 q 596 865 586 865 l 656 865 l 350 499 l 674 0 l 513 -6 l 251 406 z "},"Ķ":{"ha":694,"x_min":53,"x_max":674,"o":"m 251 406 l 190 331 l 190 0 l 53 0 l 53 865 l 189 865 l 203 865 l 203 853 q 192 835 194 844 q 190 801 190 825 l 190 496 l 504 872 q 525 869 513 871 q 550 867 538 868 q 574 866 563 867 q 596 865 586 865 l 656 865 l 350 499 l 674 0 l 513 -6 l 251 406 m 300 -401 l 235 -346 q 289 -280 268 -314 q 310 -224 310 -246 q 294 -190 310 -206 q 265 -158 279 -175 q 250 -112 250 -140 q 276 -53 250 -75 q 339 -31 301 -31 q 410 -63 382 -31 q 438 -149 438 -96 q 422 -226 438 -186 q 376 -310 407 -267 q 300 -401 346 -353 z "},"Ƙ":{"ha":694,"x_min":56,"x_max":663,"o":"m 56 865 l 196 865 l 208 865 l 208 853 q 199 835 201 844 q 197 801 197 825 l 197 507 q 313 677 260 607 q 413 790 367 747 q 503 853 460 833 q 590 872 546 872 q 627 869 610 872 q 657 858 644 865 l 657 726 l 657 713 l 644 713 q 627 729 636 721 q 596 742 618 738 q 590 742 593 742 q 583 742 586 742 q 538 731 563 742 q 481 694 513 719 q 409 621 450 668 q 316 501 368 574 q 197 328 264 429 l 197 0 l 56 0 l 56 865 m 206 467 l 300 560 l 663 1 l 504 -7 l 206 467 z "},"L":{"ha":694,"x_min":83,"x_max":626,"o":"m 83 865 l 222 865 l 235 865 l 235 853 q 225 835 226 844 q 224 801 224 825 l 224 114 l 626 114 l 626 0 l 83 0 l 83 865 z "},"Ǉ":{"ha":694,"x_min":75,"x_max":638,"o":"m 394 -236 q 287 -212 336 -236 q 200 -142 238 -187 l 286 -43 q 297 -56 296 -50 q 300 -67 299 -61 q 308 -85 301 -74 q 327 -101 315 -92 q 356 -117 339 -110 q 396 -124 374 -124 q 455 -103 432 -124 q 489 -37 478 -82 q 500 79 500 8 l 500 756 l 347 756 l 347 865 l 636 865 l 636 751 l 636 751 l 636 68 q 619 -70 638 -12 q 566 -165 600 -128 q 488 -219 532 -201 q 394 -236 444 -236 m 75 0 l 75 865 l 226 865 q 223 853 226 856 q 217 845 219 851 q 214 817 214 839 l 214 113 l 407 113 l 407 0 l 75 0 z "},"Ĺ":{"ha":694,"x_min":83,"x_max":626,"o":"m 83 865 l 222 865 l 235 865 l 235 853 q 225 835 226 844 q 224 801 224 825 l 224 114 l 626 114 l 626 0 l 83 0 l 83 865 z "},"Ľ":{"ha":694,"x_min":83,"x_max":626,"o":"m 475 557 l 417 606 q 465 665 447 635 q 483 715 483 696 q 470 744 483 731 q 444 774 457 758 q 431 814 431 790 q 453 867 431 847 q 510 886 476 886 q 572 857 547 886 q 597 782 597 828 q 584 712 597 747 q 544 638 571 676 q 475 557 517 600 m 83 865 l 222 865 l 235 865 l 235 853 q 226 835 228 844 q 224 801 224 825 l 224 114 l 626 114 l 626 0 l 83 0 l 83 865 z "},"Ļ":{"ha":694,"x_min":83,"x_max":626,"o":"m 83 865 l 222 865 l 235 865 l 235 853 q 225 835 226 844 q 224 801 224 825 l 224 114 l 626 114 l 626 0 l 83 0 l 83 865 m 317 -401 l 251 -346 q 306 -280 285 -314 q 326 -224 326 -246 q 311 -190 326 -206 q 281 -158 296 -175 q 267 -112 267 -140 q 292 -53 267 -75 q 356 -31 318 -31 q 426 -63 399 -31 q 454 -149 454 -96 q 439 -226 454 -186 q 393 -310 424 -267 q 317 -401 363 -353 z "},"Ŀ":{"ha":694,"x_min":83,"x_max":626,"o":"m 83 865 l 222 865 l 235 865 l 235 853 q 225 835 226 844 q 224 801 224 825 l 224 114 l 626 114 l 626 0 l 83 0 l 83 865 m 438 365 q 367 393 396 365 q 339 461 339 421 q 368 531 339 503 q 438 558 397 558 q 506 530 476 558 q 536 463 536 501 q 507 394 536 422 q 438 365 478 365 z "},"Ḷ":{"ha":694,"x_min":83,"x_max":626,"o":"m 83 865 l 222 865 l 235 865 l 235 853 q 225 835 226 844 q 224 801 224 825 l 224 114 l 626 114 l 626 0 l 83 0 l 83 865 z "},"ǈ":{"ha":694,"x_min":88,"x_max":631,"o":"m 88 0 l 88 865 l 238 865 q 232 842 238 851 q 226 817 226 833 l 226 115 l 397 115 l 397 0 l 88 0 m 357 -244 q 291 -236 324 -244 q 231 -210 258 -228 q 181 -169 203 -193 l 267 -57 q 274 -69 272 -62 q 278 -83 275 -76 q 288 -98 281 -90 q 314 -115 296 -106 q 328 -121 321 -118 q 344 -126 336 -124 q 363 -128 353 -128 q 408 -119 388 -128 q 445 -92 429 -110 q 470 -44 461 -74 q 479 26 479 -14 l 479 532 l 319 532 l 319 644 l 617 644 l 617 32 q 597 -94 617 -42 q 541 -178 576 -146 q 458 -227 506 -211 q 357 -244 411 -243 m 540 757 q 477 783 503 757 q 451 843 451 808 q 476 906 451 882 q 540 931 501 931 q 603 905 576 931 q 631 843 631 879 q 603 783 631 808 q 540 757 576 757 z "},"Ḻ":{"ha":694,"x_min":83,"x_max":626,"o":"m 83 865 l 222 865 l 235 865 l 235 853 q 225 835 226 844 q 224 801 224 825 l 224 114 l 626 114 l 626 0 l 83 0 l 83 865 z "},"Ł":{"ha":694,"x_min":19,"x_max":638,"o":"m 96 0 l 96 317 l 19 293 l 19 408 l 96 433 l 96 865 l 246 865 q 249 863 249 864 q 249 860 249 861 q 244 849 249 854 q 236 817 239 843 l 236 479 l 440 546 q 465 556 454 551 q 486 568 476 561 l 486 440 l 236 360 l 236 114 l 638 114 l 638 0 l 96 0 z "},"M":{"ha":694,"x_min":49,"x_max":650,"o":"m 49 0 l 49 865 l 165 865 l 349 460 l 535 867 l 650 867 l 650 0 l 529 0 l 529 621 l 376 292 l 313 292 l 168 618 l 168 0 l 49 0 z "},"Ṃ":{"ha":694,"x_min":49,"x_max":650,"o":"m 49 0 l 49 865 l 165 865 l 349 460 l 535 867 l 650 867 l 650 0 l 529 0 l 529 621 l 376 292 l 313 292 l 168 618 l 168 0 l 49 0 z "},"N":{"ha":694,"x_min":57,"x_max":647,"o":"m 57 865 l 197 865 l 515 271 l 510 865 l 633 865 l 647 865 l 647 853 q 637 835 639 844 q 635 801 635 825 l 635 0 l 513 0 l 182 631 l 182 0 l 57 0 l 57 865 z "},"Ń":{"ha":694,"x_min":57,"x_max":647,"o":"m 57 865 l 197 865 l 515 271 l 510 865 l 633 865 l 647 865 l 647 853 q 637 835 639 844 q 635 801 635 825 l 635 0 l 513 0 l 182 631 l 182 0 l 57 0 l 57 865 z "},"Ň":{"ha":694,"x_min":57,"x_max":647,"o":"m 57 865 l 197 865 l 515 271 l 510 865 l 633 865 l 647 865 l 647 853 q 637 835 639 844 q 635 801 635 825 l 635 0 l 513 0 l 182 631 l 182 0 l 57 0 l 57 865 z "},"Ņ":{"ha":694,"x_min":57,"x_max":647,"o":"m 57 865 l 197 865 l 515 271 l 510 865 l 633 865 l 647 865 l 647 853 q 637 835 639 844 q 635 801 635 825 l 635 0 l 513 0 l 182 631 l 182 0 l 57 0 l 57 865 m 317 -401 l 251 -346 q 306 -280 285 -314 q 326 -224 326 -246 q 311 -190 326 -206 q 281 -158 296 -175 q 267 -112 267 -140 q 292 -53 267 -75 q 356 -31 318 -31 q 426 -63 399 -31 q 454 -149 454 -96 q 439 -226 454 -186 q 393 -310 424 -267 q 317 -401 363 -353 z "},"Ṅ":{"ha":694,"x_min":57,"x_max":647,"o":"m 57 865 l 197 865 l 515 271 l 510 865 l 633 865 l 647 865 l 647 853 q 637 835 639 844 q 635 801 635 825 l 635 0 l 513 0 l 182 631 l 182 0 l 57 0 l 57 865 z "},"Ṇ":{"ha":694,"x_min":57,"x_max":647,"o":"m 57 865 l 197 865 l 515 271 l 510 865 l 633 865 l 647 865 l 647 853 q 637 835 639 844 q 635 801 635 825 l 635 0 l 513 0 l 182 631 l 182 0 l 57 0 l 57 865 z "},"Ŋ":{"ha":694,"x_min":56,"x_max":647,"o":"m 517 865 l 647 865 q 642 840 647 850 q 638 813 638 831 l 638 0 q 610 -146 638 -86 q 533 -237 582 -206 q 422 -269 485 -269 q 347 -257 385 -269 q 274 -219 310 -244 l 338 -107 q 354 -113 349 -107 q 366 -127 360 -119 q 383 -140 372 -135 q 417 -146 394 -146 q 471 -128 450 -146 q 502 -76 492 -111 q 513 11 513 -40 l 181 631 l 181 0 l 56 0 l 56 865 l 194 865 l 517 271 l 517 865 z "},"Ṉ":{"ha":694,"x_min":57,"x_max":647,"o":"m 57 865 l 197 865 l 515 271 l 510 865 l 633 865 l 647 865 l 647 853 q 637 835 639 844 q 635 801 635 825 l 635 0 l 513 0 l 182 631 l 182 0 l 57 0 l 57 865 z "},"Ñ":{"ha":694,"x_min":57,"x_max":647,"o":"m 57 865 l 197 865 l 515 271 l 510 865 l 633 865 l 647 865 l 647 853 q 637 835 639 844 q 635 801 635 825 l 635 0 l 513 0 l 182 631 l 182 0 l 57 0 l 57 865 z "},"O":{"ha":694,"x_min":31,"x_max":668,"o":"m 349 -15 q 174 36 246 -15 q 67 188 103 88 q 31 431 31 288 q 67 670 31 571 q 174 822 103 769 q 349 875 246 875 q 524 822 453 875 q 631 670 594 769 q 668 431 668 571 q 631 188 668 288 q 524 36 594 88 q 349 -15 453 -15 m 349 97 q 446 135 406 97 q 508 247 486 172 q 531 432 531 321 q 508 610 531 536 q 446 723 486 683 q 349 763 406 763 q 251 723 292 763 q 189 610 210 683 q 168 432 168 536 q 189 247 168 321 q 251 135 210 172 q 349 97 292 97 z "},"Ó":{"ha":694,"x_min":31,"x_max":668,"o":"m 349 -15 q 174 36 246 -15 q 67 188 103 88 q 31 431 31 288 q 67 670 31 571 q 174 822 103 769 q 349 875 246 875 q 524 822 453 875 q 631 670 594 769 q 668 431 668 571 q 631 188 668 288 q 524 36 594 88 q 349 -15 453 -15 m 349 97 q 446 135 406 97 q 508 247 486 172 q 531 432 531 321 q 508 610 531 536 q 446 723 486 683 q 349 763 406 763 q 251 723 292 763 q 189 610 210 683 q 168 432 168 536 q 189 247 168 321 q 251 135 210 172 q 349 97 292 97 z "},"Ŏ":{"ha":694,"x_min":31,"x_max":668,"o":"m 349 -15 q 174 36 246 -15 q 67 188 103 88 q 31 431 31 288 q 67 670 31 571 q 174 822 103 769 q 349 875 246 875 q 524 822 453 875 q 631 670 594 769 q 668 431 668 571 q 631 188 668 288 q 524 36 594 88 q 349 -15 453 -15 m 349 97 q 446 135 406 97 q 508 247 486 172 q 531 432 531 321 q 508 610 531 536 q 446 723 486 683 q 349 763 406 763 q 251 723 292 763 q 189 610 210 683 q 168 432 168 536 q 189 247 168 321 q 251 135 210 172 q 349 97 292 97 z "},"Ô":{"ha":694,"x_min":31,"x_max":668,"o":"m 349 -15 q 174 36 246 -15 q 67 188 103 88 q 31 431 31 288 q 67 670 31 571 q 174 822 103 769 q 349 875 246 875 q 524 822 453 875 q 631 670 594 769 q 668 431 668 571 q 631 188 668 288 q 524 36 594 88 q 349 -15 453 -15 m 349 97 q 446 135 406 97 q 508 247 486 172 q 531 432 531 321 q 508 610 531 536 q 446 723 486 683 q 349 763 406 763 q 251 723 292 763 q 189 610 210 683 q 168 432 168 536 q 189 247 168 321 q 251 135 210 172 q 349 97 292 97 m 161 907 l 113 975 l 328 1110 l 367 1110 l 582 976 l 533 907 l 349 1001 l 161 907 z "},"Ố":{"ha":694,"x_min":31,"x_max":761,"o":"m 349 -15 q 174 36 246 -15 q 67 188 103 88 q 31 431 31 288 q 67 670 31 571 q 174 822 103 769 q 349 875 246 875 q 524 822 453 875 q 631 670 594 769 q 668 431 668 571 q 631 188 668 288 q 524 36 594 88 q 349 -15 453 -15 m 349 97 q 446 135 406 97 q 508 247 486 172 q 531 432 531 321 q 508 610 531 536 q 446 723 486 683 q 349 763 406 763 q 251 723 292 763 q 189 610 210 683 q 168 432 168 536 q 189 247 168 321 q 251 135 210 172 q 349 97 292 97 z "},"Ộ":{"ha":694,"x_min":31,"x_max":668,"o":"m 349 -15 q 174 36 246 -15 q 67 188 103 88 q 31 431 31 288 q 67 670 31 571 q 174 822 103 769 q 349 875 246 875 q 524 822 453 875 q 631 670 594 769 q 668 431 668 571 q 631 188 668 288 q 524 36 594 88 q 349 -15 453 -15 m 349 97 q 446 135 406 97 q 508 247 486 172 q 531 432 531 321 q 508 610 531 536 q 446 723 486 683 q 349 763 406 763 q 251 723 292 763 q 189 610 210 683 q 168 432 168 536 q 189 247 168 321 q 251 135 210 172 q 349 97 292 97 m 161 907 l 113 975 l 328 1110 l 367 1110 l 582 976 l 533 907 l 349 1001 l 161 907 z "},"Ồ":{"ha":694,"x_min":31,"x_max":668,"o":"m 349 -15 q 174 36 246 -15 q 67 188 103 88 q 31 431 31 288 q 67 670 31 571 q 174 822 103 769 q 349 875 246 875 q 524 822 453 875 q 631 670 594 769 q 668 431 668 571 q 631 188 668 288 q 524 36 594 88 q 349 -15 453 -15 m 349 97 q 446 135 406 97 q 508 247 486 172 q 531 432 531 321 q 508 610 531 536 q 446 723 486 683 q 349 763 406 763 q 251 723 292 763 q 189 610 210 683 q 168 432 168 536 q 189 247 168 321 q 251 135 210 172 q 349 97 292 97 z "},"Ổ":{"ha":694,"x_min":31,"x_max":668,"o":"m 349 -15 q 174 36 246 -15 q 67 188 103 88 q 31 431 31 288 q 67 670 31 571 q 174 822 103 769 q 349 875 246 875 q 524 822 453 875 q 631 670 594 769 q 668 431 668 571 q 631 188 668 288 q 524 36 594 88 q 349 -15 453 -15 m 349 97 q 446 135 406 97 q 508 247 486 172 q 531 432 531 321 q 508 610 531 536 q 446 723 486 683 q 349 763 406 763 q 251 723 292 763 q 189 610 210 683 q 168 432 168 536 q 189 247 168 321 q 251 135 210 172 q 349 97 292 97 z "},"Ỗ":{"ha":694,"x_min":31,"x_max":668,"o":"m 349 -15 q 174 36 246 -15 q 67 188 103 88 q 31 431 31 288 q 67 670 31 571 q 174 822 103 769 q 349 875 246 875 q 524 822 453 875 q 631 670 594 769 q 668 431 668 571 q 631 188 668 288 q 524 36 594 88 q 349 -15 453 -15 m 349 97 q 446 135 406 97 q 508 247 486 172 q 531 432 531 321 q 508 610 531 536 q 446 723 486 683 q 349 763 406 763 q 251 723 292 763 q 189 610 210 683 q 168 432 168 536 q 189 247 168 321 q 251 135 210 172 q 349 97 292 97 z "},"Ȍ":{"ha":694,"x_min":31,"x_max":668,"o":"m 349 -15 q 174 36 246 -15 q 67 188 103 88 q 31 431 31 288 q 67 670 31 571 q 174 822 103 769 q 349 875 246 875 q 524 822 453 875 q 631 670 594 769 q 668 431 668 571 q 631 188 668 288 q 524 36 594 88 q 349 -15 453 -15 m 349 97 q 446 135 406 97 q 508 247 486 172 q 531 432 531 321 q 508 610 531 536 q 446 723 486 683 q 349 763 406 763 q 251 723 292 763 q 189 610 210 683 q 168 432 168 536 q 189 247 168 321 q 251 135 210 172 q 349 97 292 97 z "},"Ö":{"ha":694,"x_min":31,"x_max":668,"o":"m 349 -15 q 174 36 246 -15 q 67 188 103 88 q 31 431 31 288 q 67 670 31 571 q 174 822 103 769 q 349 875 246 875 q 524 822 453 875 q 631 670 594 769 q 668 431 668 571 q 631 188 668 288 q 524 36 594 88 q 349 -15 453 -15 m 349 97 q 446 135 406 97 q 508 247 486 172 q 531 432 531 321 q 508 610 531 536 q 446 723 486 683 q 349 763 406 763 q 251 723 292 763 q 189 610 210 683 q 168 432 168 536 q 189 247 168 321 q 251 135 210 172 q 349 97 292 97 z "},"Ȫ":{"ha":694,"x_min":31,"x_max":668,"o":"m 349 -15 q 174 36 246 -15 q 67 188 103 88 q 31 431 31 288 q 67 670 31 571 q 174 822 103 769 q 349 875 246 875 q 524 822 453 875 q 631 670 594 769 q 668 431 668 571 q 631 188 668 288 q 524 36 594 88 q 349 -15 453 -15 m 349 97 q 446 135 406 97 q 508 247 486 172 q 531 432 531 321 q 508 610 531 536 q 446 723 486 683 q 349 763 406 763 q 251 723 292 763 q 189 610 210 683 q 168 432 168 536 q 189 247 168 321 q 251 135 210 172 q 349 97 292 97 z "},"Ȱ":{"ha":694,"x_min":31,"x_max":668,"o":"m 349 -15 q 174 36 246 -15 q 67 188 103 88 q 31 431 31 288 q 67 670 31 571 q 174 822 103 769 q 349 875 246 875 q 524 822 453 875 q 631 670 594 769 q 668 431 668 571 q 631 188 668 288 q 524 36 594 88 q 349 -15 453 -15 m 349 97 q 446 135 406 97 q 508 247 486 172 q 531 432 531 321 q 508 610 531 536 q 446 723 486 683 q 349 763 406 763 q 251 723 292 763 q 189 610 210 683 q 168 432 168 536 q 189 247 168 321 q 251 135 210 172 q 349 97 292 97 z "},"Ọ":{"ha":694,"x_min":31,"x_max":668,"o":"m 349 -15 q 174 36 246 -15 q 67 188 103 88 q 31 431 31 288 q 67 670 31 571 q 174 822 103 769 q 349 875 246 875 q 524 822 453 875 q 631 670 594 769 q 668 431 668 571 q 631 188 668 288 q 524 36 594 88 q 349 -15 453 -15 m 349 97 q 446 135 406 97 q 508 247 486 172 q 531 432 531 321 q 508 610 531 536 q 446 723 486 683 q 349 763 406 763 q 251 723 292 763 q 189 610 210 683 q 168 432 168 536 q 189 247 168 321 q 251 135 210 172 q 349 97 292 97 z "},"Ò":{"ha":694,"x_min":31,"x_max":668,"o":"m 349 -15 q 174 36 246 -15 q 67 188 103 88 q 31 431 31 288 q 67 670 31 571 q 174 822 103 769 q 349 875 246 875 q 524 822 453 875 q 631 670 594 769 q 668 431 668 571 q 631 188 668 288 q 524 36 594 88 q 349 -15 453 -15 m 349 97 q 446 135 406 97 q 508 247 486 172 q 531 432 531 321 q 508 610 531 536 q 446 723 486 683 q 349 763 406 763 q 251 723 292 763 q 189 610 210 683 q 168 432 168 536 q 189 247 168 321 q 251 135 210 172 q 349 97 292 97 z "},"Ỏ":{"ha":694,"x_min":31,"x_max":668,"o":"m 349 -15 q 174 36 246 -15 q 67 188 103 88 q 31 431 31 288 q 67 670 31 571 q 174 822 103 769 q 349 875 246 875 q 524 822 453 875 q 631 670 594 769 q 668 431 668 571 q 631 188 668 288 q 524 36 594 88 q 349 -15 453 -15 m 349 97 q 446 135 406 97 q 508 247 486 172 q 531 432 531 321 q 508 610 531 536 q 446 723 486 683 q 349 763 406 763 q 251 723 292 763 q 189 610 210 683 q 168 432 168 536 q 189 247 168 321 q 251 135 210 172 q 349 97 292 97 m 492 1111 q 478 1063 492 1082 q 447 1030 464 1044 q 416 999 429 1015 q 403 961 403 983 l 403 950 l 314 950 l 314 989 q 326 1024 314 1008 q 356 1054 339 1040 q 385 1081 372 1068 q 397 1107 397 1093 q 384 1137 397 1126 q 351 1147 371 1147 q 310 1137 329 1147 q 281 1097 292 1126 l 225 1165 q 286 1213 251 1199 q 360 1226 321 1228 q 427 1212 397 1226 q 474 1172 457 1197 q 492 1111 492 1146 z "},"Ơ":{"ha":694,"x_min":31,"x_max":671,"o":"m 349 -15 q 174 36 246 -15 q 67 188 103 88 q 31 431 31 288 q 67 670 31 571 q 174 822 103 769 q 349 875 246 875 q 524 822 453 875 q 631 670 594 769 q 668 431 668 571 q 631 188 668 288 q 524 36 594 88 q 349 -15 453 -15 m 349 97 q 446 135 406 97 q 508 247 486 172 q 531 432 531 321 q 508 610 531 536 q 446 723 486 683 q 349 763 406 763 q 251 723 292 763 q 189 610 210 683 q 168 432 168 536 q 189 247 168 321 q 251 135 210 172 q 349 97 292 97 m 547 717 l 533 807 q 565 819 556 807 q 576 860 574 831 q 579 938 579 889 l 671 938 q 663 816 671 865 q 628 742 654 767 q 547 717 603 717 z "},"Ớ":{"ha":694,"x_min":31,"x_max":671,"o":"m 349 -15 q 174 36 246 -15 q 67 188 103 88 q 31 431 31 288 q 67 670 31 571 q 174 822 103 769 q 349 875 246 875 q 524 822 453 875 q 631 670 594 769 q 668 431 668 571 q 631 188 668 288 q 524 36 594 88 q 349 -15 453 -15 m 349 97 q 446 135 406 97 q 508 247 486 172 q 531 432 531 321 q 508 610 531 536 q 446 723 486 683 q 349 763 406 763 q 251 723 292 763 q 189 610 210 683 q 168 432 168 536 q 189 247 168 321 q 251 135 210 172 q 349 97 292 97 m 547 717 l 533 807 q 565 819 556 807 q 576 860 574 831 q 579 938 579 889 l 671 938 q 663 816 671 865 q 628 742 654 767 q 547 717 603 717 z "},"Ợ":{"ha":694,"x_min":31,"x_max":671,"o":"m 349 -15 q 174 36 246 -15 q 67 188 103 88 q 31 431 31 288 q 67 670 31 571 q 174 822 103 769 q 349 875 246 875 q 524 822 453 875 q 631 670 594 769 q 668 431 668 571 q 631 188 668 288 q 524 36 594 88 q 349 -15 453 -15 m 349 97 q 446 135 406 97 q 508 247 486 172 q 531 432 531 321 q 508 610 531 536 q 446 723 486 683 q 349 763 406 763 q 251 723 292 763 q 189 610 210 683 q 168 432 168 536 q 189 247 168 321 q 251 135 210 172 q 349 97 292 97 m 547 717 l 533 807 q 565 819 556 807 q 576 860 574 831 q 579 938 579 889 l 671 938 q 663 816 671 865 q 628 742 654 767 q 547 717 603 717 z "},"Ờ":{"ha":694,"x_min":31,"x_max":671,"o":"m 349 -15 q 174 36 246 -15 q 67 188 103 88 q 31 431 31 288 q 67 670 31 571 q 174 822 103 769 q 349 875 246 875 q 524 822 453 875 q 631 670 594 769 q 668 431 668 571 q 631 188 668 288 q 524 36 594 88 q 349 -15 453 -15 m 349 97 q 446 135 406 97 q 508 247 486 172 q 531 432 531 321 q 508 610 531 536 q 446 723 486 683 q 349 763 406 763 q 251 723 292 763 q 189 610 210 683 q 168 432 168 536 q 189 247 168 321 q 251 135 210 172 q 349 97 292 97 m 547 717 l 533 807 q 565 819 556 807 q 576 860 574 831 q 579 938 579 889 l 671 938 q 663 816 671 865 q 628 742 654 767 q 547 717 603 717 z "},"Ở":{"ha":694,"x_min":31,"x_max":671,"o":"m 349 -15 q 174 36 246 -15 q 67 188 103 88 q 31 431 31 288 q 67 670 31 571 q 174 822 103 769 q 349 875 246 875 q 524 822 453 875 q 631 670 594 769 q 668 431 668 571 q 631 188 668 288 q 524 36 594 88 q 349 -15 453 -15 m 349 97 q 446 135 406 97 q 508 247 486 172 q 531 432 531 321 q 508 610 531 536 q 446 723 486 683 q 349 763 406 763 q 251 723 292 763 q 189 610 210 683 q 168 432 168 536 q 189 247 168 321 q 251 135 210 172 q 349 97 292 97 m 547 717 l 533 807 q 565 819 556 807 q 576 860 574 831 q 579 938 579 889 l 671 938 q 663 816 671 865 q 628 742 654 767 q 547 717 603 717 m 492 1111 q 478 1063 492 1082 q 447 1030 464 1044 q 416 999 429 1015 q 403 961 403 983 l 403 950 l 314 950 l 314 989 q 326 1024 314 1008 q 356 1054 339 1040 q 385 1081 372 1068 q 397 1107 397 1093 q 384 1137 397 1126 q 351 1147 371 1147 q 310 1137 329 1147 q 281 1097 292 1126 l 225 1165 q 286 1213 251 1199 q 360 1226 321 1228 q 427 1212 397 1226 q 474 1172 457 1197 q 492 1111 492 1146 z "},"Ỡ":{"ha":694,"x_min":31,"x_max":671,"o":"m 349 -15 q 174 36 246 -15 q 67 188 103 88 q 31 431 31 288 q 67 670 31 571 q 174 822 103 769 q 349 875 246 875 q 524 822 453 875 q 631 670 594 769 q 668 431 668 571 q 631 188 668 288 q 524 36 594 88 q 349 -15 453 -15 m 349 97 q 446 135 406 97 q 508 247 486 172 q 531 432 531 321 q 508 610 531 536 q 446 723 486 683 q 349 763 406 763 q 251 723 292 763 q 189 610 210 683 q 168 432 168 536 q 189 247 168 321 q 251 135 210 172 q 349 97 292 97 m 547 717 l 533 807 q 565 819 556 807 q 576 860 574 831 q 579 938 579 889 l 671 938 q 663 816 671 865 q 628 742 654 767 q 547 717 603 717 z "},"Ő":{"ha":694,"x_min":31,"x_max":668,"o":"m 349 -15 q 174 36 246 -15 q 67 188 103 88 q 31 431 31 288 q 67 670 31 571 q 174 822 103 769 q 349 875 246 875 q 524 822 453 875 q 631 670 594 769 q 668 431 668 571 q 631 188 668 288 q 524 36 594 88 q 349 -15 453 -15 m 349 97 q 446 135 406 97 q 508 247 486 172 q 531 432 531 321 q 508 610 531 536 q 446 723 486 683 q 349 763 406 763 q 251 723 292 763 q 189 610 210 683 q 168 432 168 536 q 189 247 168 321 q 251 135 210 172 q 349 97 292 97 z "},"Ȏ":{"ha":694,"x_min":31,"x_max":668,"o":"m 349 -15 q 174 36 246 -15 q 67 188 103 88 q 31 431 31 288 q 67 670 31 571 q 174 822 103 769 q 349 875 246 875 q 524 822 453 875 q 631 670 594 769 q 668 431 668 571 q 631 188 668 288 q 524 36 594 88 q 349 -15 453 -15 m 349 97 q 446 135 406 97 q 508 247 486 172 q 531 432 531 321 q 508 610 531 536 q 446 723 486 683 q 349 763 406 763 q 251 723 292 763 q 189 610 210 683 q 168 432 168 536 q 189 247 168 321 q 251 135 210 172 q 349 97 292 97 m 232 954 l 143 994 q 229 1099 176 1063 q 349 1135 282 1135 q 469 1099 417 1135 q 554 994 522 1063 l 465 954 q 416 1028 444 1004 q 349 1051 388 1051 q 302 1041 324 1051 q 263 1010 281 1031 q 232 954 246 989 z "},"Ō":{"ha":694,"x_min":31,"x_max":668,"o":"m 349 -15 q 174 36 246 -15 q 67 188 103 88 q 31 431 31 288 q 67 670 31 571 q 174 822 103 769 q 349 875 246 875 q 524 822 453 875 q 631 670 594 769 q 668 431 668 571 q 631 188 668 288 q 524 36 594 88 q 349 -15 453 -15 m 349 97 q 446 135 406 97 q 508 247 486 172 q 531 432 531 321 q 508 610 531 536 q 446 723 486 683 q 349 763 406 763 q 251 723 292 763 q 189 610 210 683 q 168 432 168 536 q 189 247 168 321 q 251 135 210 172 q 349 97 292 97 z "},"Ṓ":{"ha":694,"x_min":31,"x_max":668,"o":"m 349 -15 q 174 36 246 -15 q 67 188 103 88 q 31 431 31 288 q 67 670 31 571 q 174 822 103 769 q 349 875 246 875 q 524 822 453 875 q 631 670 594 769 q 668 431 668 571 q 631 188 668 288 q 524 36 594 88 q 349 -15 453 -15 m 349 97 q 446 135 406 97 q 508 247 486 172 q 531 432 531 321 q 508 610 531 536 q 446 723 486 683 q 349 763 406 763 q 251 723 292 763 q 189 610 210 683 q 168 432 168 536 q 189 247 168 321 q 251 135 210 172 q 349 97 292 97 z "},"Ṑ":{"ha":694,"x_min":31,"x_max":668,"o":"m 349 -15 q 174 36 246 -15 q 67 188 103 88 q 31 431 31 288 q 67 670 31 571 q 174 822 103 769 q 349 875 246 875 q 524 822 453 875 q 631 670 594 769 q 668 431 668 571 q 631 188 668 288 q 524 36 594 88 q 349 -15 453 -15 m 349 97 q 446 135 406 97 q 508 247 486 172 q 531 432 531 321 q 508 610 531 536 q 446 723 486 683 q 349 763 406 763 q 251 723 292 763 q 189 610 210 683 q 168 432 168 536 q 189 247 168 321 q 251 135 210 172 q 349 97 292 97 z "},"Ǫ":{"ha":694,"x_min":31,"x_max":668,"o":"m 349 -15 q 174 36 246 -15 q 67 188 103 88 q 31 431 31 288 q 67 670 31 571 q 174 822 103 769 q 349 875 246 875 q 524 822 453 875 q 631 670 594 769 q 668 431 668 571 q 631 188 668 288 q 524 36 594 88 q 349 -15 453 -15 m 349 97 q 446 135 406 97 q 508 247 486 172 q 531 432 531 321 q 508 610 531 536 q 446 723 486 683 q 349 763 406 763 q 251 723 292 763 q 189 610 210 683 q 168 432 168 536 q 189 247 168 321 q 251 135 210 172 q 349 97 292 97 m 478 -204 l 429 -307 q 333 -273 372 -294 q 274 -224 294 -251 q 254 -162 254 -196 q 275 -90 254 -126 q 338 -17 296 -53 q 438 51 379 19 l 488 18 q 433 -34 456 -8 q 399 -83 411 -60 q 388 -128 388 -107 q 410 -174 388 -154 q 478 -204 432 -194 z "},"Ø":{"ha":694,"x_min":31,"x_max":668,"o":"m 121 -71 l 49 -36 l 569 947 l 640 910 l 121 -71 m 349 -15 q 174 36 246 -15 q 67 188 103 88 q 31 431 31 288 q 67 670 31 571 q 174 822 103 769 q 349 875 246 875 q 524 822 453 875 q 631 670 594 769 q 668 431 668 571 q 631 188 668 288 q 524 36 594 88 q 349 -15 453 -15 m 349 97 q 446 135 406 97 q 508 247 486 172 q 531 432 531 321 q 508 610 531 536 q 446 723 486 683 q 349 763 406 763 q 251 723 292 763 q 189 610 210 683 q 168 432 168 536 q 189 247 168 321 q 251 135 210 172 q 349 97 292 97 z "},"Ǿ":{"ha":694,"x_min":31,"x_max":668,"o":"m 121 -71 l 49 -36 l 569 947 l 640 910 l 121 -71 m 349 -15 q 174 36 246 -15 q 67 188 103 88 q 31 431 31 288 q 67 670 31 571 q 174 822 103 769 q 349 875 246 875 q 524 822 453 875 q 631 670 594 769 q 668 431 668 571 q 631 188 668 288 q 524 36 594 88 q 349 -15 453 -15 m 349 97 q 446 135 406 97 q 508 247 486 172 q 531 432 531 321 q 508 610 531 536 q 446 723 486 683 q 349 763 406 763 q 251 723 292 763 q 189 610 210 683 q 168 432 168 536 q 189 247 168 321 q 251 135 210 172 q 349 97 292 97 z "},"Õ":{"ha":694,"x_min":31,"x_max":668,"o":"m 349 -15 q 174 36 246 -15 q 67 188 103 88 q 31 431 31 288 q 67 670 31 571 q 174 822 103 769 q 349 875 246 875 q 524 822 453 875 q 631 670 594 769 q 668 431 668 571 q 631 188 668 288 q 524 36 594 88 q 349 -15 453 -15 m 349 97 q 446 135 406 97 q 508 247 486 172 q 531 432 531 321 q 508 610 531 536 q 446 723 486 683 q 349 763 406 763 q 251 723 292 763 q 189 610 210 683 q 168 432 168 536 q 189 247 168 321 q 251 135 210 172 q 349 97 292 97 z "},"Ṍ":{"ha":694,"x_min":31,"x_max":668,"o":"m 349 -15 q 174 36 246 -15 q 67 188 103 88 q 31 431 31 288 q 67 670 31 571 q 174 822 103 769 q 349 875 246 875 q 524 822 453 875 q 631 670 594 769 q 668 431 668 571 q 631 188 668 288 q 524 36 594 88 q 349 -15 453 -15 m 349 97 q 446 135 406 97 q 508 247 486 172 q 531 432 531 321 q 508 610 531 536 q 446 723 486 683 q 349 763 406 763 q 251 723 292 763 q 189 610 210 683 q 168 432 168 536 q 189 247 168 321 q 251 135 210 172 q 349 97 292 97 z "},"Ṏ":{"ha":694,"x_min":31,"x_max":668,"o":"m 349 -15 q 174 36 246 -15 q 67 188 103 88 q 31 431 31 288 q 67 670 31 571 q 174 822 103 769 q 349 875 246 875 q 524 822 453 875 q 631 670 594 769 q 668 431 668 571 q 631 188 668 288 q 524 36 594 88 q 349 -15 453 -15 m 349 97 q 446 135 406 97 q 508 247 486 172 q 531 432 531 321 q 508 610 531 536 q 446 723 486 683 q 349 763 406 763 q 251 723 292 763 q 189 610 210 683 q 168 432 168 536 q 189 247 168 321 q 251 135 210 172 q 349 97 292 97 z "},"Ȭ":{"ha":694,"x_min":31,"x_max":668,"o":"m 349 -15 q 174 36 246 -15 q 67 188 103 88 q 31 431 31 288 q 67 670 31 571 q 174 822 103 769 q 349 875 246 875 q 524 822 453 875 q 631 670 594 769 q 668 431 668 571 q 631 188 668 288 q 524 36 594 88 q 349 -15 453 -15 m 349 97 q 446 135 406 97 q 508 247 486 172 q 531 432 531 321 q 508 610 531 536 q 446 723 486 683 q 349 763 406 763 q 251 723 292 763 q 189 610 210 683 q 168 432 168 536 q 189 247 168 321 q 251 135 210 172 q 349 97 292 97 m 479 1160 l 553 1124 q 497 1043 528 1068 q 431 1018 467 1018 q 383 1029 404 1018 q 344 1056 361 1040 q 310 1082 326 1071 q 279 1093 294 1093 q 246 1078 261 1093 q 219 1036 231 1064 l 146 1072 q 198 1149 163 1121 q 268 1178 233 1178 q 317 1167 294 1178 q 360 1141 340 1156 q 396 1115 379 1126 q 426 1104 413 1104 q 454 1117 442 1104 q 479 1160 467 1129 z "},"Œ":{"ha":694,"x_min":7,"x_max":681,"o":"m 243 -10 q 147 17 190 -10 q 72 98 103 43 q 24 236 40 153 q 7 433 7 319 q 35 679 7 581 q 117 828 64 778 q 247 878 171 878 q 294 868 269 878 q 339 839 318 858 l 339 867 l 681 867 l 681 754 l 458 754 l 458 508 l 646 508 l 646 394 l 458 394 l 458 113 l 678 113 l 678 0 l 338 0 l 338 29 q 292 0 317 10 q 243 -10 267 -10 m 257 107 q 306 131 286 107 q 332 193 326 154 l 332 667 q 301 736 322 707 q 246 765 281 765 q 203 749 224 765 q 168 696 183 733 q 144 594 153 658 q 136 435 136 531 q 149 258 136 331 q 190 146 163 185 q 257 107 217 107 z "},"P":{"ha":694,"x_min":71,"x_max":647,"o":"m 71 0 l 71 865 l 361 865 q 523 831 460 865 q 617 740 586 797 q 647 615 647 683 q 631 519 647 564 q 580 441 614 475 q 493 388 546 407 q 368 369 440 369 l 211 369 l 211 0 l 71 0 m 211 485 l 357 485 q 441 501 408 485 q 490 547 474 517 q 507 614 507 576 q 490 681 507 651 q 441 727 474 710 q 358 744 408 744 l 211 744 l 211 485 z "},"Þ":{"ha":694,"x_min":74,"x_max":647,"o":"m 74 0 l 74 865 l 222 865 q 225 863 225 864 q 225 860 225 861 q 220 847 225 854 q 213 822 215 840 l 213 710 l 361 710 q 525 676 463 710 q 617 584 588 642 q 647 457 647 526 q 618 333 647 389 q 528 243 589 276 q 368 210 467 210 l 211 210 l 211 0 l 74 0 m 211 321 l 361 321 q 445 339 413 321 q 493 388 478 357 q 508 454 508 418 q 492 522 508 490 q 444 573 476 553 q 358 593 411 593 l 213 593 l 211 321 z "},"Q":{"ha":694,"x_min":32,"x_max":667,"o":"m 536 -201 q 423 -195 469 -204 q 348 -163 376 -186 q 306 -102 319 -140 q 290 -8 292 -64 q 158 60 217 6 q 66 207 100 114 q 32 431 32 300 q 59 640 32 554 q 131 778 86 725 q 233 854 176 831 q 349 878 290 878 q 472 851 414 878 q 574 771 531 825 q 642 633 618 717 q 665 432 667 549 q 648 256 665 333 q 599 126 631 179 q 521 39 567 72 q 418 -7 475 6 q 428 -51 419 -32 q 453 -80 436 -69 q 503 -90 471 -90 l 617 -83 l 613 -201 l 536 -201 m 353 101 q 419 119 388 101 q 476 174 450 136 q 517 273 501 213 q 532 418 532 333 q 516 585 532 518 q 474 691 500 651 q 415 748 447 731 q 350 765 382 765 q 271 741 306 765 q 213 674 236 717 q 178 574 190 632 q 165 446 165 515 q 189 261 165 339 q 254 142 213 183 q 353 101 296 101 z "},"R":{"ha":694,"x_min":67,"x_max":658,"o":"m 67 0 l 67 865 l 336 865 q 506 834 440 865 q 603 747 572 803 q 635 614 635 690 q 615 517 635 565 q 556 433 594 469 q 467 379 518 396 l 658 0 l 513 0 l 331 367 l 207 367 l 207 0 l 67 0 m 207 482 l 346 482 q 458 517 421 482 q 494 611 494 553 q 478 678 494 647 q 430 726 463 708 q 346 744 397 744 l 207 744 l 207 482 z "},"Ŕ":{"ha":694,"x_min":67,"x_max":658,"o":"m 67 0 l 67 865 l 336 865 q 506 834 440 865 q 603 747 572 803 q 635 614 635 690 q 615 517 635 565 q 556 433 594 469 q 467 379 518 396 l 658 0 l 513 0 l 331 367 l 207 367 l 207 0 l 67 0 m 207 482 l 346 482 q 458 517 421 482 q 494 611 494 553 q 478 678 494 647 q 430 726 463 708 q 346 744 397 744 l 207 744 l 207 482 z "},"Ř":{"ha":694,"x_min":67,"x_max":658,"o":"m 67 0 l 67 865 l 336 865 q 506 834 440 865 q 603 747 572 803 q 635 614 635 690 q 615 517 635 565 q 556 433 594 469 q 467 379 518 396 l 658 0 l 513 0 l 331 367 l 207 367 l 207 0 l 67 0 m 207 482 l 346 482 q 458 517 421 482 q 494 611 494 553 q 478 678 494 647 q 430 726 463 708 q 346 744 397 744 l 207 744 l 207 482 z "},"Ŗ":{"ha":694,"x_min":67,"x_max":658,"o":"m 67 0 l 67 865 l 336 865 q 506 834 440 865 q 603 747 572 803 q 635 614 635 690 q 615 517 635 565 q 556 433 594 469 q 467 379 518 396 l 658 0 l 513 0 l 331 367 l 207 367 l 207 0 l 67 0 m 207 482 l 346 482 q 458 517 421 482 q 494 611 494 553 q 478 678 494 647 q 430 726 463 708 q 346 744 397 744 l 207 744 l 207 482 m 317 -401 l 251 -346 q 306 -280 285 -314 q 326 -224 326 -246 q 311 -190 326 -206 q 281 -158 296 -175 q 267 -112 267 -140 q 292 -53 267 -75 q 356 -31 318 -31 q 426 -63 399 -31 q 454 -149 454 -96 q 439 -226 454 -186 q 393 -310 424 -267 q 317 -401 363 -353 z "},"Ȑ":{"ha":694,"x_min":67,"x_max":658,"o":"m 67 0 l 67 865 l 336 865 q 506 834 440 865 q 603 747 572 803 q 635 614 635 690 q 615 517 635 565 q 556 433 594 469 q 467 379 518 396 l 658 0 l 513 0 l 331 367 l 207 367 l 207 0 l 67 0 m 207 482 l 346 482 q 458 517 421 482 q 494 611 494 553 q 478 678 494 647 q 430 726 463 708 q 346 744 397 744 l 207 744 l 207 482 z "},"Ṛ":{"ha":694,"x_min":67,"x_max":658,"o":"m 67 0 l 67 865 l 336 865 q 506 834 440 865 q 603 747 572 803 q 635 614 635 690 q 615 517 635 565 q 556 433 594 469 q 467 379 518 396 l 658 0 l 513 0 l 331 367 l 207 367 l 207 0 l 67 0 m 207 482 l 346 482 q 458 517 421 482 q 494 611 494 553 q 478 678 494 647 q 430 726 463 708 q 346 744 397 744 l 207 744 l 207 482 z "},"Ȓ":{"ha":694,"x_min":67,"x_max":658,"o":"m 67 0 l 67 865 l 336 865 q 506 834 440 865 q 603 747 572 803 q 635 614 635 690 q 615 517 635 565 q 556 433 594 469 q 467 379 518 396 l 658 0 l 513 0 l 331 367 l 207 367 l 207 0 l 67 0 m 207 482 l 346 482 q 458 517 421 482 q 494 611 494 553 q 478 678 494 647 q 430 726 463 708 q 346 744 397 744 l 207 744 l 207 482 m 231 951 l 142 992 q 228 1096 175 1060 q 347 1132 281 1132 q 468 1096 415 1132 q 553 992 521 1060 l 464 951 q 415 1025 443 1001 q 347 1049 386 1049 q 301 1038 322 1049 q 262 1007 279 1028 q 231 951 244 986 z "},"Ṟ":{"ha":694,"x_min":67,"x_max":658,"o":"m 67 0 l 67 865 l 336 865 q 506 834 440 865 q 603 747 572 803 q 635 614 635 690 q 615 517 635 565 q 556 433 594 469 q 467 379 518 396 l 658 0 l 513 0 l 331 367 l 207 367 l 207 0 l 67 0 m 207 482 l 346 482 q 458 517 421 482 q 494 611 494 553 q 478 678 494 647 q 430 726 463 708 q 346 744 397 744 l 207 744 l 207 482 z "},"S":{"ha":694,"x_min":56,"x_max":640,"o":"m 339 -15 q 180 11 253 -15 q 56 90 107 38 l 124 206 l 131 218 l 142 211 q 149 190 144 201 q 169 163 153 179 q 249 119 204 136 q 346 101 293 101 q 410 110 382 101 q 460 135 439 119 q 493 174 482 151 q 504 225 504 197 q 500 262 504 244 q 485 294 496 279 q 453 324 474 308 q 401 356 433 339 q 325 393 369 374 q 183 472 235 432 q 108 558 131 511 q 86 660 86 604 q 121 773 86 724 q 217 851 156 822 q 358 879 279 879 q 457 866 411 879 q 543 828 503 853 q 615 768 583 804 l 535 674 l 526 663 l 517 671 q 512 693 515 682 q 493 721 508 704 q 431 757 464 747 q 354 767 399 767 q 301 759 325 767 q 259 737 276 751 q 233 704 242 722 q 224 665 224 686 q 228 631 224 646 q 244 600 232 615 q 277 569 256 585 q 332 535 299 553 q 414 497 365 518 q 523 440 479 468 q 592 383 567 413 q 629 317 618 353 q 640 238 640 282 q 609 117 640 175 q 511 22 578 60 q 339 -15 444 -15 l 339 -15 z "},"Ś":{"ha":694,"x_min":56,"x_max":640,"o":"m 339 -15 q 180 11 253 -15 q 56 90 107 38 l 124 206 l 131 218 l 142 211 q 149 190 144 201 q 169 163 153 179 q 249 119 204 136 q 346 101 293 101 q 410 110 382 101 q 460 135 439 119 q 493 174 482 151 q 504 225 504 197 q 500 262 504 244 q 485 294 496 279 q 453 324 474 308 q 401 356 433 339 q 325 393 369 374 q 183 472 235 432 q 108 558 131 511 q 86 660 86 604 q 121 773 86 724 q 217 851 156 822 q 358 879 279 879 q 457 866 411 879 q 543 828 503 853 q 615 768 583 804 l 535 674 l 526 663 l 517 671 q 512 693 515 682 q 493 721 508 704 q 431 757 464 747 q 354 767 399 767 q 301 759 325 767 q 259 737 276 751 q 233 704 242 722 q 224 665 224 686 q 228 631 224 646 q 244 600 232 615 q 277 569 256 585 q 332 535 299 553 q 414 497 365 518 q 523 440 479 468 q 592 383 567 413 q 629 317 618 353 q 640 238 640 282 q 609 117 640 175 q 511 22 578 60 q 339 -15 444 -15 l 339 -15 z "},"Ṥ":{"ha":694,"x_min":56,"x_max":640,"o":"m 339 -15 q 180 11 253 -15 q 56 90 107 38 l 124 206 l 131 218 l 142 211 q 149 190 144 201 q 169 163 153 179 q 249 119 204 136 q 346 101 293 101 q 410 110 382 101 q 460 135 439 119 q 493 174 482 151 q 504 225 504 197 q 500 262 504 244 q 485 294 496 279 q 453 324 474 308 q 401 356 433 339 q 325 393 369 374 q 183 472 235 432 q 108 558 131 511 q 86 660 86 604 q 121 773 86 724 q 217 851 156 822 q 358 879 279 879 q 457 866 411 879 q 543 828 503 853 q 615 768 583 804 l 535 674 l 526 663 l 517 671 q 512 693 515 682 q 493 721 508 704 q 431 757 464 747 q 354 767 399 767 q 301 759 325 767 q 259 737 276 751 q 233 704 242 722 q 224 665 224 686 q 228 631 224 646 q 244 600 232 615 q 277 569 256 585 q 332 535 299 553 q 414 497 365 518 q 523 440 479 468 q 592 383 567 413 q 629 317 618 353 q 640 238 640 282 q 609 117 640 175 q 511 22 578 60 q 339 -15 444 -15 l 339 -15 z "},"Š":{"ha":694,"x_min":56,"x_max":640,"o":"m 339 -15 q 180 11 253 -15 q 56 90 107 38 l 124 206 l 131 218 l 142 211 q 149 190 144 201 q 169 163 153 179 q 249 119 204 136 q 346 101 293 101 q 410 110 382 101 q 460 135 439 119 q 493 174 482 151 q 504 225 504 197 q 500 262 504 244 q 485 294 496 279 q 453 324 474 308 q 401 356 433 339 q 325 393 369 374 q 183 472 235 432 q 108 558 131 511 q 86 660 86 604 q 121 773 86 724 q 217 851 156 822 q 358 879 279 879 q 457 866 411 879 q 543 828 503 853 q 615 768 583 804 l 535 674 l 526 663 l 517 671 q 512 693 515 682 q 493 721 508 704 q 431 757 464 747 q 354 767 399 767 q 301 759 325 767 q 259 737 276 751 q 233 704 242 722 q 224 665 224 686 q 228 631 224 646 q 244 600 232 615 q 277 569 256 585 q 332 535 299 553 q 414 497 365 518 q 523 440 479 468 q 592 383 567 413 q 629 317 618 353 q 640 238 640 282 q 609 117 640 175 q 511 22 578 60 q 339 -15 444 -15 l 339 -15 z "},"Ṧ":{"ha":694,"x_min":56,"x_max":640,"o":"m 339 -15 q 180 11 253 -15 q 56 90 107 38 l 124 206 l 131 218 l 142 211 q 149 190 144 201 q 169 163 153 179 q 249 119 204 136 q 346 101 293 101 q 410 110 382 101 q 460 135 439 119 q 493 174 482 151 q 504 225 504 197 q 500 262 504 244 q 485 294 496 279 q 453 324 474 308 q 401 356 433 339 q 325 393 369 374 q 183 472 235 432 q 108 558 131 511 q 86 660 86 604 q 121 773 86 724 q 217 851 156 822 q 358 879 279 879 q 457 866 411 879 q 543 828 503 853 q 615 768 583 804 l 535 674 l 526 663 l 517 671 q 512 693 515 682 q 493 721 508 704 q 431 757 464 747 q 354 767 399 767 q 301 759 325 767 q 259 737 276 751 q 233 704 242 722 q 224 665 224 686 q 228 631 224 646 q 244 600 232 615 q 277 569 256 585 q 332 535 299 553 q 414 497 365 518 q 523 440 479 468 q 592 383 567 413 q 629 317 618 353 q 640 238 640 282 q 609 117 640 175 q 511 22 578 60 q 339 -15 444 -15 l 339 -15 z "},"Ş":{"ha":694,"x_min":56,"x_max":640,"o":"m 339 -15 q 180 11 253 -15 q 56 90 107 38 l 124 206 l 131 218 l 142 211 q 149 190 144 201 q 169 163 153 179 q 249 119 204 136 q 346 101 293 101 q 410 110 382 101 q 460 135 439 119 q 493 174 482 151 q 504 225 504 197 q 500 262 504 244 q 485 294 496 279 q 453 324 474 308 q 401 356 433 339 q 325 393 369 374 q 183 472 235 432 q 108 558 131 511 q 86 660 86 604 q 121 773 86 724 q 217 851 156 822 q 358 879 279 879 q 457 866 411 879 q 543 828 503 853 q 615 768 583 804 l 535 674 l 526 663 l 517 671 q 512 693 515 682 q 493 721 508 704 q 431 757 464 747 q 354 767 399 767 q 301 759 325 767 q 259 737 276 751 q 233 704 242 722 q 224 665 224 686 q 228 631 224 646 q 244 600 232 615 q 277 569 256 585 q 332 535 299 553 q 414 497 365 518 q 523 440 479 468 q 592 383 567 413 q 629 317 618 353 q 640 238 640 282 q 609 117 640 175 q 511 22 578 60 q 339 -15 444 -15 l 339 -15 z "},"Ŝ":{"ha":694,"x_min":56,"x_max":640,"o":"m 339 -15 q 180 11 253 -15 q 56 90 107 38 l 124 206 l 131 218 l 142 211 q 149 190 144 201 q 169 163 153 179 q 249 119 204 136 q 346 101 293 101 q 410 110 382 101 q 460 135 439 119 q 493 174 482 151 q 504 225 504 197 q 500 262 504 244 q 485 294 496 279 q 453 324 474 308 q 401 356 433 339 q 325 393 369 374 q 183 472 235 432 q 108 558 131 511 q 86 660 86 604 q 121 773 86 724 q 217 851 156 822 q 358 879 279 879 q 457 866 411 879 q 543 828 503 853 q 615 768 583 804 l 535 674 l 526 663 l 517 671 q 512 693 515 682 q 493 721 508 704 q 431 757 464 747 q 354 767 399 767 q 301 759 325 767 q 259 737 276 751 q 233 704 242 722 q 224 665 224 686 q 228 631 224 646 q 244 600 232 615 q 277 569 256 585 q 332 535 299 553 q 414 497 365 518 q 523 440 479 468 q 592 383 567 413 q 629 317 618 353 q 640 238 640 282 q 609 117 640 175 q 511 22 578 60 q 339 -15 444 -15 l 339 -15 m 169 904 l 121 972 l 336 1107 l 375 1107 l 590 974 l 542 904 l 357 999 l 169 904 z "},"Ș":{"ha":694,"x_min":56,"x_max":640,"o":"m 339 -15 q 180 11 253 -15 q 56 90 107 38 l 124 206 l 131 218 l 142 211 q 149 190 144 201 q 169 163 153 179 q 249 119 204 136 q 346 101 293 101 q 410 110 382 101 q 460 135 439 119 q 493 174 482 151 q 504 225 504 197 q 500 262 504 244 q 485 294 496 279 q 453 324 474 308 q 401 356 433 339 q 325 393 369 374 q 183 472 235 432 q 108 558 131 511 q 86 660 86 604 q 121 773 86 724 q 217 851 156 822 q 358 879 279 879 q 457 866 411 879 q 543 828 503 853 q 615 768 583 804 l 535 674 l 526 663 l 517 671 q 512 693 515 682 q 493 721 508 704 q 431 757 464 747 q 354 767 399 767 q 301 759 325 767 q 259 737 276 751 q 233 704 242 722 q 224 665 224 686 q 228 631 224 646 q 244 600 232 615 q 277 569 256 585 q 332 535 299 553 q 414 497 365 518 q 523 440 479 468 q 592 383 567 413 q 629 317 618 353 q 640 238 640 282 q 609 117 640 175 q 511 22 578 60 q 339 -15 444 -15 l 339 -15 m 319 -401 l 254 -346 q 308 -280 288 -314 q 329 -224 329 -246 q 314 -190 329 -206 q 284 -158 299 -175 q 269 -112 269 -140 q 295 -53 269 -75 q 358 -31 321 -31 q 429 -63 401 -31 q 457 -149 457 -96 q 442 -226 457 -186 q 396 -310 426 -267 q 319 -401 365 -353 z "},"Ṡ":{"ha":694,"x_min":56,"x_max":640,"o":"m 339 -15 q 180 11 253 -15 q 56 90 107 38 l 124 206 l 131 218 l 142 211 q 149 190 144 201 q 169 163 153 179 q 249 119 204 136 q 346 101 293 101 q 410 110 382 101 q 460 135 439 119 q 493 174 482 151 q 504 225 504 197 q 500 262 504 244 q 485 294 496 279 q 453 324 474 308 q 401 356 433 339 q 325 393 369 374 q 183 472 235 432 q 108 558 131 511 q 86 660 86 604 q 121 773 86 724 q 217 851 156 822 q 358 879 279 879 q 457 866 411 879 q 543 828 503 853 q 615 768 583 804 l 535 674 l 526 663 l 517 671 q 512 693 515 682 q 493 721 508 704 q 431 757 464 747 q 354 767 399 767 q 301 759 325 767 q 259 737 276 751 q 233 704 242 722 q 224 665 224 686 q 228 631 224 646 q 244 600 232 615 q 277 569 256 585 q 332 535 299 553 q 414 497 365 518 q 523 440 479 468 q 592 383 567 413 q 629 317 618 353 q 640 238 640 282 q 609 117 640 175 q 511 22 578 60 q 339 -15 444 -15 l 339 -15 z "},"Ṣ":{"ha":694,"x_min":56,"x_max":640,"o":"m 339 -15 q 180 11 253 -15 q 56 90 107 38 l 124 206 l 131 218 l 142 211 q 149 190 144 201 q 169 163 153 179 q 249 119 204 136 q 346 101 293 101 q 410 110 382 101 q 460 135 439 119 q 493 174 482 151 q 504 225 504 197 q 500 262 504 244 q 485 294 496 279 q 453 324 474 308 q 401 356 433 339 q 325 393 369 374 q 183 472 235 432 q 108 558 131 511 q 86 660 86 604 q 121 773 86 724 q 217 851 156 822 q 358 879 279 879 q 457 866 411 879 q 543 828 503 853 q 615 768 583 804 l 535 674 l 526 663 l 517 671 q 512 693 515 682 q 493 721 508 704 q 431 757 464 747 q 354 767 399 767 q 301 759 325 767 q 259 737 276 751 q 233 704 242 722 q 224 665 224 686 q 228 631 224 646 q 244 600 232 615 q 277 569 256 585 q 332 535 299 553 q 414 497 365 518 q 523 440 479 468 q 592 383 567 413 q 629 317 618 353 q 640 238 640 282 q 609 117 640 175 q 511 22 578 60 q 339 -15 444 -15 l 339 -15 z "},"Ṩ":{"ha":694,"x_min":56,"x_max":640,"o":"m 339 -15 q 180 11 253 -15 q 56 90 107 38 l 124 206 l 131 218 l 142 211 q 149 190 144 201 q 169 163 153 179 q 249 119 204 136 q 346 101 293 101 q 410 110 382 101 q 460 135 439 119 q 493 174 482 151 q 504 225 504 197 q 500 262 504 244 q 485 294 496 279 q 453 324 474 308 q 401 356 433 339 q 325 393 369 374 q 183 472 235 432 q 108 558 131 511 q 86 660 86 604 q 121 773 86 724 q 217 851 156 822 q 358 879 279 879 q 457 866 411 879 q 543 828 503 853 q 615 768 583 804 l 535 674 l 526 663 l 517 671 q 512 693 515 682 q 493 721 508 704 q 431 757 464 747 q 354 767 399 767 q 301 759 325 767 q 259 737 276 751 q 233 704 242 722 q 224 665 224 686 q 228 631 224 646 q 244 600 232 615 q 277 569 256 585 q 332 535 299 553 q 414 497 365 518 q 523 440 479 468 q 592 383 567 413 q 629 317 618 353 q 640 238 640 282 q 609 117 640 175 q 511 22 578 60 q 339 -15 444 -15 l 339 -15 z "},"ẞ":{"ha":694,"x_min":64,"x_max":647,"o":"m 401 -17 q 320 -6 357 -17 q 254 26 283 6 l 299 131 q 326 114 311 121 q 355 103 340 107 q 385 100 369 100 q 436 111 413 100 q 478 143 460 122 q 506 194 496 164 q 517 261 517 224 q 501 340 517 301 q 445 403 485 378 q 333 428 406 428 l 292 428 l 292 536 l 458 692 q 446 758 458 729 q 408 805 433 788 q 340 822 382 822 q 289 813 314 822 q 244 781 264 803 q 212 726 224 760 q 200 649 200 693 l 200 0 l 64 0 l 64 628 q 86 767 64 710 q 147 862 108 825 q 234 915 185 899 q 338 932 283 932 q 475 897 419 932 q 559 803 531 861 q 588 675 588 744 l 354 464 l 335 536 q 506 501 436 536 q 611 403 575 467 q 647 251 647 339 q 629 138 647 188 q 578 53 611 88 q 500 1 546 19 q 401 -17 454 -17 z "},"Ə":{"ha":694,"x_min":31,"x_max":668,"o":"m 349 -15 q 174 36 246 -15 q 67 188 103 88 q 31 431 31 288 q 67 670 31 571 q 174 822 103 769 q 349 875 246 875 q 524 822 453 875 q 631 670 594 769 q 668 431 668 571 q 631 188 668 288 q 524 36 594 88 q 349 -15 453 -15 m 349 97 q 446 135 406 97 q 508 247 486 172 q 531 432 531 321 q 508 610 531 536 q 446 723 486 683 q 349 763 406 763 q 251 723 292 763 q 189 610 210 683 q 168 432 168 536 q 189 247 168 321 q 251 135 210 172 q 349 97 292 97 z "},"T":{"ha":694,"x_min":36,"x_max":654,"o":"m 272 0 l 272 749 l 36 749 l 36 867 l 654 867 l 654 749 l 407 749 l 407 0 l 272 0 z "},"Ŧ":{"ha":694,"x_min":36,"x_max":654,"o":"m 272 0 l 272 749 l 36 749 l 36 867 l 654 867 l 654 749 l 407 749 l 407 0 l 272 0 m 106 389 l 106 481 l 578 481 l 578 389 l 106 389 z "},"Ť":{"ha":694,"x_min":36,"x_max":654,"o":"m 272 0 l 272 749 l 36 749 l 36 867 l 654 867 l 654 749 l 407 749 l 407 0 l 272 0 z "},"Ţ":{"ha":694,"x_min":36,"x_max":654,"o":"m 272 0 l 272 749 l 36 749 l 36 867 l 654 867 l 654 749 l 407 749 l 407 0 l 272 0 z "},"Ț":{"ha":694,"x_min":36,"x_max":654,"o":"m 272 0 l 272 749 l 36 749 l 36 867 l 654 867 l 654 749 l 407 749 l 407 0 l 272 0 m 317 -401 l 251 -346 q 306 -280 285 -314 q 326 -224 326 -246 q 311 -190 326 -206 q 281 -158 296 -175 q 267 -112 267 -140 q 292 -53 267 -75 q 356 -31 318 -31 q 426 -63 399 -31 q 454 -149 454 -96 q 439 -226 454 -186 q 393 -310 424 -267 q 317 -401 363 -353 z "},"Ṭ":{"ha":694,"x_min":36,"x_max":654,"o":"m 272 0 l 272 749 l 36 749 l 36 867 l 654 867 l 654 749 l 407 749 l 407 0 l 272 0 z "},"Ṯ":{"ha":694,"x_min":36,"x_max":654,"o":"m 272 0 l 272 749 l 36 749 l 36 867 l 654 867 l 654 749 l 407 749 l 407 0 l 272 0 z "},"U":{"ha":694,"x_min":57,"x_max":642,"o":"m 347 -17 q 132 67 207 -17 q 57 301 57 151 l 57 865 l 192 865 l 206 865 l 206 853 q 195 835 197 844 q 193 801 193 825 l 193 300 q 227 150 193 206 q 349 94 261 94 q 472 150 438 94 q 507 304 507 206 l 507 865 l 642 865 l 642 306 q 604 124 642 194 q 501 18 567 53 q 347 -17 435 -17 l 347 -17 z "},"Ú":{"ha":694,"x_min":57,"x_max":642,"o":"m 347 -17 q 132 67 207 -17 q 57 301 57 151 l 57 865 l 192 865 l 206 865 l 206 853 q 195 835 197 844 q 193 801 193 825 l 193 300 q 227 150 193 206 q 349 94 261 94 q 472 150 438 94 q 507 304 507 206 l 507 865 l 642 865 l 642 306 q 604 124 642 194 q 501 18 567 53 q 347 -17 435 -17 l 347 -17 z "},"Ŭ":{"ha":694,"x_min":57,"x_max":642,"o":"m 347 -17 q 132 67 207 -17 q 57 301 57 151 l 57 865 l 192 865 l 206 865 l 206 853 q 195 835 197 844 q 193 801 193 825 l 193 300 q 227 150 193 206 q 349 94 261 94 q 472 150 438 94 q 507 304 507 206 l 507 865 l 642 865 l 642 306 q 604 124 642 194 q 501 18 567 53 q 347 -17 435 -17 l 347 -17 z "},"Û":{"ha":694,"x_min":57,"x_max":642,"o":"m 347 -17 q 132 67 207 -17 q 57 301 57 151 l 57 865 l 192 865 l 206 865 l 206 853 q 195 835 197 844 q 193 801 193 825 l 193 300 q 227 150 193 206 q 349 94 261 94 q 472 150 438 94 q 507 304 507 206 l 507 865 l 642 865 l 642 306 q 604 124 642 194 q 501 18 567 53 q 347 -17 435 -17 l 347 -17 m 160 904 l 111 972 l 326 1107 l 365 1107 l 581 974 l 532 904 l 347 999 l 160 904 z "},"Ȕ":{"ha":694,"x_min":57,"x_max":642,"o":"m 347 -17 q 132 67 207 -17 q 57 301 57 151 l 57 865 l 192 865 l 206 865 l 206 853 q 195 835 197 844 q 193 801 193 825 l 193 300 q 227 150 193 206 q 349 94 261 94 q 472 150 438 94 q 507 304 507 206 l 507 865 l 642 865 l 642 306 q 604 124 642 194 q 501 18 567 53 q 347 -17 435 -17 l 347 -17 z "},"Ü":{"ha":694,"x_min":57,"x_max":642,"o":"m 347 -17 q 132 67 207 -17 q 57 301 57 151 l 57 865 l 192 865 l 206 865 l 206 853 q 195 835 197 844 q 193 801 193 825 l 193 300 q 227 150 193 206 q 349 94 261 94 q 472 150 438 94 q 507 304 507 206 l 507 865 l 642 865 l 642 306 q 604 124 642 194 q 501 18 567 53 q 347 -17 435 -17 l 347 -17 z "},"Ụ":{"ha":694,"x_min":57,"x_max":642,"o":"m 347 -17 q 132 67 207 -17 q 57 301 57 151 l 57 865 l 192 865 l 206 865 l 206 853 q 195 835 197 844 q 193 801 193 825 l 193 300 q 227 150 193 206 q 349 94 261 94 q 472 150 438 94 q 507 304 507 206 l 507 865 l 642 865 l 642 306 q 604 124 642 194 q 501 18 567 53 q 347 -17 435 -17 l 347 -17 z "},"Ù":{"ha":694,"x_min":57,"x_max":642,"o":"m 347 -17 q 132 67 207 -17 q 57 301 57 151 l 57 865 l 192 865 l 206 865 l 206 853 q 195 835 197 844 q 193 801 193 825 l 193 300 q 227 150 193 206 q 349 94 261 94 q 472 150 438 94 q 507 304 507 206 l 507 865 l 642 865 l 642 306 q 604 124 642 194 q 501 18 567 53 q 347 -17 435 -17 l 347 -17 z "},"Ủ":{"ha":694,"x_min":57,"x_max":642,"o":"m 347 -17 q 132 67 207 -17 q 57 301 57 151 l 57 865 l 192 865 l 206 865 l 206 853 q 195 835 197 844 q 193 801 193 825 l 193 300 q 227 150 193 206 q 349 94 261 94 q 472 150 438 94 q 507 304 507 206 l 507 865 l 642 865 l 642 306 q 604 124 642 194 q 501 18 567 53 q 347 -17 435 -17 l 347 -17 m 492 1108 q 478 1060 492 1079 q 447 1027 464 1042 q 416 997 429 1013 q 403 958 403 981 l 403 947 l 314 947 l 314 986 q 326 1022 314 1006 q 356 1051 339 1038 q 385 1078 372 1065 q 397 1104 397 1090 q 384 1134 397 1124 q 351 1144 371 1144 q 310 1134 329 1144 q 281 1094 292 1124 l 225 1163 q 286 1210 251 1196 q 360 1224 321 1225 q 427 1209 397 1224 q 474 1169 457 1194 q 492 1108 492 1143 z "},"Ư":{"ha":694,"x_min":51,"x_max":690,"o":"m 313 -17 q 119 67 186 -17 q 51 301 51 151 l 51 865 l 172 865 l 185 865 l 185 853 q 176 835 178 844 q 174 801 174 825 l 174 300 q 204 150 174 206 q 314 94 235 94 q 426 150 394 94 q 457 304 457 206 l 457 865 l 578 865 l 578 306 q 544 124 578 194 q 451 18 511 53 q 313 -17 392 -17 l 313 -17 m 567 775 l 553 865 q 584 877 575 865 q 596 918 593 889 q 599 996 599 947 l 690 996 q 682 874 690 924 q 648 800 674 825 q 567 775 622 775 z "},"Ứ":{"ha":694,"x_min":51,"x_max":690,"o":"m 313 -17 q 119 67 186 -17 q 51 301 51 151 l 51 865 l 172 865 l 185 865 l 185 853 q 176 835 178 844 q 174 801 174 825 l 174 300 q 204 150 174 206 q 314 94 235 94 q 426 150 394 94 q 457 304 457 206 l 457 865 l 578 865 l 578 306 q 544 124 578 194 q 451 18 511 53 q 313 -17 392 -17 l 313 -17 m 567 775 l 553 865 q 584 877 575 865 q 596 918 593 889 q 599 996 599 947 l 690 996 q 682 874 690 924 q 648 800 674 825 q 567 775 622 775 z "},"Ự":{"ha":694,"x_min":51,"x_max":690,"o":"m 313 -17 q 119 67 186 -17 q 51 301 51 151 l 51 865 l 172 865 l 185 865 l 185 853 q 176 835 178 844 q 174 801 174 825 l 174 300 q 204 150 174 206 q 314 94 235 94 q 426 150 394 94 q 457 304 457 206 l 457 865 l 578 865 l 578 306 q 544 124 578 194 q 451 18 511 53 q 313 -17 392 -17 l 313 -17 m 567 775 l 553 865 q 584 877 575 865 q 596 918 593 889 q 599 996 599 947 l 690 996 q 682 874 690 924 q 648 800 674 825 q 567 775 622 775 z "},"Ừ":{"ha":694,"x_min":51,"x_max":690,"o":"m 313 -17 q 119 67 186 -17 q 51 301 51 151 l 51 865 l 172 865 l 185 865 l 185 853 q 176 835 178 844 q 174 801 174 825 l 174 300 q 204 150 174 206 q 314 94 235 94 q 426 150 394 94 q 457 304 457 206 l 457 865 l 578 865 l 578 306 q 544 124 578 194 q 451 18 511 53 q 313 -17 392 -17 l 313 -17 m 567 775 l 553 865 q 584 877 575 865 q 596 918 593 889 q 599 996 599 947 l 690 996 q 682 874 690 924 q 648 800 674 825 q 567 775 622 775 z "},"Ử":{"ha":694,"x_min":51,"x_max":690,"o":"m 313 -17 q 119 67 186 -17 q 51 301 51 151 l 51 865 l 172 865 l 185 865 l 185 853 q 176 835 178 844 q 174 801 174 825 l 174 300 q 204 150 174 206 q 314 94 235 94 q 426 150 394 94 q 457 304 457 206 l 457 865 l 578 865 l 578 306 q 544 124 578 194 q 451 18 511 53 q 313 -17 392 -17 l 313 -17 m 567 775 l 553 865 q 584 877 575 865 q 596 918 593 889 q 599 996 599 947 l 690 996 q 682 874 690 924 q 648 800 674 825 q 567 775 622 775 m 457 1108 q 443 1060 457 1079 q 412 1027 429 1042 q 381 997 394 1013 q 368 958 368 981 l 368 947 l 279 947 l 279 986 q 292 1022 279 1006 q 321 1051 304 1038 q 350 1078 338 1065 q 363 1104 363 1090 q 349 1134 363 1124 q 317 1144 336 1144 q 276 1134 294 1144 q 246 1094 257 1124 l 190 1163 q 251 1210 217 1196 q 325 1224 286 1225 q 392 1209 363 1224 q 440 1169 422 1194 q 457 1108 457 1143 z "},"Ữ":{"ha":694,"x_min":51,"x_max":690,"o":"m 313 -17 q 119 67 186 -17 q 51 301 51 151 l 51 865 l 172 865 l 185 865 l 185 853 q 176 835 178 844 q 174 801 174 825 l 174 300 q 204 150 174 206 q 314 94 235 94 q 426 150 394 94 q 457 304 457 206 l 457 865 l 578 865 l 578 306 q 544 124 578 194 q 451 18 511 53 q 313 -17 392 -17 l 313 -17 m 567 775 l 553 865 q 584 877 575 865 q 596 918 593 889 q 599 996 599 947 l 690 996 q 682 874 690 924 q 648 800 674 825 q 567 775 622 775 z "},"Ű":{"ha":694,"x_min":57,"x_max":642,"o":"m 347 -17 q 132 67 207 -17 q 57 301 57 151 l 57 865 l 192 865 l 206 865 l 206 853 q 195 835 197 844 q 193 801 193 825 l 193 300 q 227 150 193 206 q 349 94 261 94 q 472 150 438 94 q 507 304 507 206 l 507 865 l 642 865 l 642 306 q 604 124 642 194 q 501 18 567 53 q 347 -17 435 -17 l 347 -17 z "},"Ȗ":{"ha":694,"x_min":57,"x_max":642,"o":"m 347 -17 q 132 67 207 -17 q 57 301 57 151 l 57 865 l 192 865 l 206 865 l 206 853 q 195 835 197 844 q 193 801 193 825 l 193 300 q 227 150 193 206 q 349 94 261 94 q 472 150 438 94 q 507 304 507 206 l 507 865 l 642 865 l 642 306 q 604 124 642 194 q 501 18 567 53 q 347 -17 435 -17 l 347 -17 m 231 951 l 142 992 q 228 1096 175 1060 q 347 1132 281 1132 q 468 1096 415 1132 q 553 992 521 1060 l 464 951 q 415 1025 443 1001 q 347 1049 386 1049 q 301 1038 322 1049 q 262 1007 279 1028 q 231 951 244 986 z "},"Ū":{"ha":694,"x_min":57,"x_max":642,"o":"m 347 -17 q 132 67 207 -17 q 57 301 57 151 l 57 865 l 192 865 l 206 865 l 206 853 q 195 835 197 844 q 193 801 193 825 l 193 300 q 227 150 193 206 q 349 94 261 94 q 472 150 438 94 q 507 304 507 206 l 507 865 l 642 865 l 642 306 q 604 124 642 194 q 501 18 567 53 q 347 -17 435 -17 l 347 -17 z "},"Ṻ":{"ha":694,"x_min":57,"x_max":642,"o":"m 347 -17 q 132 67 207 -17 q 57 301 57 151 l 57 865 l 192 865 l 206 865 l 206 853 q 195 835 197 844 q 193 801 193 825 l 193 300 q 227 150 193 206 q 349 94 261 94 q 472 150 438 94 q 507 304 507 206 l 507 865 l 642 865 l 642 306 q 604 124 642 194 q 501 18 567 53 q 347 -17 435 -17 l 347 -17 z "},"Ų":{"ha":694,"x_min":57,"x_max":642,"o":"m 347 -17 q 132 67 207 -17 q 57 301 57 151 l 57 865 l 192 865 l 206 865 l 206 853 q 195 835 197 844 q 193 801 193 825 l 193 300 q 227 150 193 206 q 349 94 261 94 q 472 150 438 94 q 507 304 507 206 l 507 865 l 642 865 l 642 306 q 604 124 642 194 q 501 18 567 53 q 347 -17 435 -17 l 347 -17 m 486 -208 l 438 -311 q 342 -277 381 -299 q 283 -228 303 -256 q 263 -167 263 -200 q 283 -94 263 -131 q 346 -21 304 -57 q 446 47 388 15 l 496 14 q 442 -38 464 -12 q 408 -87 419 -64 q 396 -132 396 -111 q 418 -178 396 -158 q 486 -208 440 -199 z "},"Ů":{"ha":694,"x_min":57,"x_max":642,"o":"m 347 -17 q 132 67 207 -17 q 57 301 57 151 l 57 865 l 192 865 l 206 865 l 206 853 q 195 835 197 844 q 193 801 193 825 l 193 300 q 227 150 193 206 q 349 94 261 94 q 472 150 438 94 q 507 304 507 206 l 507 865 l 642 865 l 642 306 q 604 124 642 194 q 501 18 567 53 q 347 -17 435 -17 l 347 -17 z "},"Ũ":{"ha":694,"x_min":57,"x_max":642,"o":"m 347 -17 q 132 67 207 -17 q 57 301 57 151 l 57 865 l 192 865 l 206 865 l 206 853 q 195 835 197 844 q 193 801 193 825 l 193 300 q 227 150 193 206 q 349 94 261 94 q 472 150 438 94 q 507 304 507 206 l 507 865 l 642 865 l 642 306 q 604 124 642 194 q 501 18 567 53 q 347 -17 435 -17 l 347 -17 z "},"Ṹ":{"ha":694,"x_min":57,"x_max":642,"o":"m 347 -17 q 132 67 207 -17 q 57 301 57 151 l 57 865 l 192 865 l 206 865 l 206 853 q 195 835 197 844 q 193 801 193 825 l 193 300 q 227 150 193 206 q 349 94 261 94 q 472 150 438 94 q 507 304 507 206 l 507 865 l 642 865 l 642 306 q 604 124 642 194 q 501 18 567 53 q 347 -17 435 -17 l 347 -17 z "},"V":{"ha":694,"x_min":26,"x_max":675,"o":"m 310 -3 l 26 867 l 164 867 l 358 238 l 543 865 l 675 865 l 396 -3 l 310 -3 z "},"W":{"ha":694,"x_min":18,"x_max":683,"o":"m 140 0 l 18 865 l 138 865 l 208 308 l 329 799 l 393 799 l 515 308 l 571 865 l 683 865 l 564 0 l 486 0 l 354 544 l 221 0 l 140 0 z "},"Ẃ":{"ha":694,"x_min":18,"x_max":683,"o":"m 140 0 l 18 865 l 138 865 l 208 308 l 329 799 l 393 799 l 515 308 l 571 865 l 683 865 l 564 0 l 486 0 l 354 544 l 221 0 l 140 0 z "},"Ŵ":{"ha":694,"x_min":18,"x_max":683,"o":"m 140 0 l 18 865 l 138 865 l 208 308 l 329 799 l 393 799 l 515 308 l 571 865 l 683 865 l 564 0 l 486 0 l 354 544 l 221 0 l 140 0 m 171 904 l 122 972 l 338 1107 l 376 1107 l 592 974 l 543 904 l 358 999 l 171 904 z "},"Ẅ":{"ha":694,"x_min":18,"x_max":683,"o":"m 140 0 l 18 865 l 138 865 l 208 308 l 329 799 l 393 799 l 515 308 l 571 865 l 683 865 l 564 0 l 486 0 l 354 544 l 221 0 l 140 0 z "},"Ẁ":{"ha":694,"x_min":18,"x_max":683,"o":"m 140 0 l 18 865 l 138 865 l 208 308 l 329 799 l 393 799 l 515 308 l 571 865 l 683 865 l 564 0 l 486 0 l 354 544 l 221 0 l 140 0 z "},"X":{"ha":694,"x_min":46,"x_max":664,"o":"m 46 0 l 275 442 l 50 867 l 190 867 l 349 567 l 504 867 l 638 867 l 425 443 l 664 0 l 518 0 l 350 314 l 188 0 l 46 0 z "},"Y":{"ha":694,"x_min":28,"x_max":671,"o":"m 289 0 l 289 342 l 28 865 l 174 865 l 363 485 l 532 865 l 671 865 l 429 342 l 429 0 l 289 0 z "},"Ý":{"ha":694,"x_min":28,"x_max":671,"o":"m 289 0 l 289 342 l 28 865 l 174 865 l 363 485 l 532 865 l 671 865 l 429 342 l 429 0 l 289 0 z "},"Ŷ":{"ha":694,"x_min":28,"x_max":671,"o":"m 289 0 l 289 342 l 28 865 l 174 865 l 363 485 l 532 865 l 671 865 l 429 342 l 429 0 l 289 0 m 160 904 l 111 972 l 326 1107 l 365 1107 l 581 974 l 532 904 l 347 999 l 160 904 z "},"Ÿ":{"ha":694,"x_min":28,"x_max":671,"o":"m 289 0 l 289 342 l 28 865 l 174 865 l 363 485 l 532 865 l 671 865 l 429 342 l 429 0 l 289 0 z "},"Ẏ":{"ha":694,"x_min":28,"x_max":671,"o":"m 289 0 l 289 342 l 28 865 l 174 865 l 363 485 l 532 865 l 671 865 l 429 342 l 429 0 l 289 0 z "},"Ỵ":{"ha":694,"x_min":28,"x_max":671,"o":"m 289 0 l 289 342 l 28 865 l 174 865 l 363 485 l 532 865 l 671 865 l 429 342 l 429 0 l 289 0 z "},"Ỳ":{"ha":694,"x_min":28,"x_max":671,"o":"m 289 0 l 289 342 l 28 865 l 174 865 l 363 485 l 532 865 l 671 865 l 429 342 l 429 0 l 289 0 z "},"Ỷ":{"ha":694,"x_min":28,"x_max":671,"o":"m 289 0 l 289 342 l 28 865 l 174 865 l 363 485 l 532 865 l 671 865 l 429 342 l 429 0 l 289 0 m 492 1108 q 478 1060 492 1079 q 447 1027 464 1042 q 416 997 429 1013 q 403 958 403 981 l 403 947 l 314 947 l 314 986 q 326 1022 314 1006 q 356 1051 339 1038 q 385 1078 372 1065 q 397 1104 397 1090 q 384 1134 397 1124 q 351 1144 371 1144 q 310 1134 329 1144 q 281 1094 292 1124 l 225 1163 q 286 1210 251 1196 q 360 1224 321 1225 q 427 1209 397 1224 q 474 1169 457 1194 q 492 1108 492 1143 z "},"Ȳ":{"ha":694,"x_min":28,"x_max":671,"o":"m 289 0 l 289 342 l 28 865 l 174 865 l 363 485 l 532 865 l 671 865 l 429 342 l 429 0 l 289 0 z "},"Ỹ":{"ha":694,"x_min":28,"x_max":671,"o":"m 289 0 l 289 342 l 28 865 l 174 865 l 363 485 l 532 865 l 671 865 l 429 342 l 429 0 l 289 0 z "},"Z":{"ha":694,"x_min":58,"x_max":656,"o":"m 58 90 l 472 747 l 75 747 l 75 865 l 635 865 l 635 775 l 228 117 l 593 117 q 626 119 617 117 q 644 129 636 121 l 656 129 l 656 117 l 656 0 l 58 0 l 58 90 z "},"Ź":{"ha":694,"x_min":58,"x_max":656,"o":"m 58 90 l 472 747 l 75 747 l 75 865 l 635 865 l 635 775 l 228 117 l 593 117 q 626 119 617 117 q 644 129 636 121 l 656 129 l 656 117 l 656 0 l 58 0 l 58 90 z "},"Ž":{"ha":694,"x_min":58,"x_max":656,"o":"m 58 90 l 472 747 l 75 747 l 75 865 l 635 865 l 635 775 l 228 117 l 593 117 q 626 119 617 117 q 644 129 636 121 l 656 129 l 656 117 l 656 0 l 58 0 l 58 90 z "},"Ż":{"ha":694,"x_min":58,"x_max":656,"o":"m 58 90 l 472 747 l 75 747 l 75 865 l 635 865 l 635 775 l 228 117 l 593 117 q 626 119 617 117 q 644 129 636 121 l 656 129 l 656 117 l 656 0 l 58 0 l 58 90 z "},"Ẓ":{"ha":694,"x_min":58,"x_max":656,"o":"m 58 90 l 472 747 l 75 747 l 75 865 l 635 865 l 635 775 l 228 117 l 593 117 q 626 119 617 117 q 644 129 636 121 l 656 129 l 656 117 l 656 0 l 58 0 l 58 90 z "},"a":{"ha":694,"x_min":56,"x_max":624,"o":"m 281 -15 q 115 34 174 -15 q 56 163 56 83 q 80 258 56 215 q 149 331 104 300 q 258 378 194 361 q 403 396 322 396 q 438 395 419 396 q 478 393 457 394 q 522 390 500 392 l 526 292 q 485 296 507 294 q 443 297 464 297 q 404 297 422 297 q 310 290 350 297 q 245 267 271 282 q 207 229 219 251 q 194 178 194 207 q 203 137 194 154 q 226 110 211 119 q 260 95 240 100 q 304 90 281 90 q 385 106 350 90 q 444 151 419 121 q 481 226 468 181 q 493 332 493 271 q 474 464 493 417 q 419 529 456 511 q 329 547 383 547 q 244 533 285 547 q 164 479 203 518 l 90 563 q 206 635 143 613 q 336 657 269 657 q 449 642 397 657 q 541 594 501 628 q 602 504 581 561 q 624 360 624 447 l 624 0 l 479 0 l 479 79 q 439 33 461 51 q 391 3 417 14 q 338 -11 365 -7 q 281 -15 310 -15 z "},"á":{"ha":694,"x_min":56,"x_max":624,"o":"m 281 -15 q 115 34 174 -15 q 56 163 56 83 q 80 258 56 215 q 149 331 104 300 q 258 378 194 361 q 403 396 322 396 q 438 395 419 396 q 478 393 457 394 q 522 390 500 392 l 526 292 q 485 296 507 294 q 443 297 464 297 q 404 297 422 297 q 310 290 350 297 q 245 267 271 282 q 207 229 219 251 q 194 178 194 207 q 203 137 194 154 q 226 110 211 119 q 260 95 240 100 q 304 90 281 90 q 385 106 350 90 q 444 151 419 121 q 481 226 468 181 q 493 332 493 271 q 474 464 493 417 q 419 529 456 511 q 329 547 383 547 q 244 533 285 547 q 164 479 203 518 l 90 563 q 206 635 143 613 q 336 657 269 657 q 449 642 397 657 q 541 594 501 628 q 602 504 581 561 q 624 360 624 447 l 624 0 l 479 0 l 479 79 q 439 33 461 51 q 391 3 417 14 q 338 -11 365 -7 q 281 -15 310 -15 z "},"ă":{"ha":694,"x_min":56,"x_max":624,"o":"m 281 -15 q 115 34 174 -15 q 56 163 56 83 q 80 258 56 215 q 149 331 104 300 q 258 378 194 361 q 403 396 322 396 q 438 395 419 396 q 478 393 457 394 q 522 390 500 392 l 526 292 q 485 296 507 294 q 443 297 464 297 q 404 297 422 297 q 310 290 350 297 q 245 267 271 282 q 207 229 219 251 q 194 178 194 207 q 203 137 194 154 q 226 110 211 119 q 260 95 240 100 q 304 90 281 90 q 385 106 350 90 q 444 151 419 121 q 481 226 468 181 q 493 332 493 271 q 474 464 493 417 q 419 529 456 511 q 329 547 383 547 q 244 533 285 547 q 164 479 203 518 l 90 563 q 206 635 143 613 q 336 657 269 657 q 449 642 397 657 q 541 594 501 628 q 602 504 581 561 q 624 360 624 447 l 624 0 l 479 0 l 479 79 q 439 33 461 51 q 391 3 417 14 q 338 -11 365 -7 q 281 -15 310 -15 m 458 921 l 547 881 q 463 777 515 814 q 342 740 410 740 q 222 777 275 740 q 136 881 169 814 l 225 921 q 275 847 247 871 q 342 824 303 824 q 390 834 368 824 q 428 866 411 844 q 458 921 446 888 z "},"ắ":{"ha":694,"x_min":56,"x_max":624,"o":"m 281 -15 q 115 34 174 -15 q 56 163 56 83 q 80 258 56 215 q 149 331 104 300 q 258 378 194 361 q 403 396 322 396 q 438 395 419 396 q 478 393 457 394 q 522 390 500 392 l 526 292 q 485 296 507 294 q 443 297 464 297 q 404 297 422 297 q 310 290 350 297 q 245 267 271 282 q 207 229 219 251 q 194 178 194 207 q 203 137 194 154 q 226 110 211 119 q 260 95 240 100 q 304 90 281 90 q 385 106 350 90 q 444 151 419 121 q 481 226 468 181 q 493 332 493 271 q 474 464 493 417 q 419 529 456 511 q 329 547 383 547 q 244 533 285 547 q 164 479 203 518 l 90 563 q 206 635 143 613 q 336 657 269 657 q 449 642 397 657 q 541 594 501 628 q 602 504 581 561 q 624 360 624 447 l 624 0 l 479 0 l 479 79 q 439 33 461 51 q 391 3 417 14 q 338 -11 365 -7 q 281 -15 310 -15 z "},"ặ":{"ha":694,"x_min":56,"x_max":624,"o":"m 281 -15 q 115 34 174 -15 q 56 163 56 83 q 80 258 56 215 q 149 331 104 300 q 258 378 194 361 q 403 396 322 396 q 438 395 419 396 q 478 393 457 394 q 522 390 500 392 l 526 292 q 485 296 507 294 q 443 297 464 297 q 404 297 422 297 q 310 290 350 297 q 245 267 271 282 q 207 229 219 251 q 194 178 194 207 q 203 137 194 154 q 226 110 211 119 q 260 95 240 100 q 304 90 281 90 q 385 106 350 90 q 444 151 419 121 q 481 226 468 181 q 493 332 493 271 q 474 464 493 417 q 419 529 456 511 q 329 547 383 547 q 244 533 285 547 q 164 479 203 518 l 90 563 q 206 635 143 613 q 336 657 269 657 q 449 642 397 657 q 541 594 501 628 q 602 504 581 561 q 624 360 624 447 l 624 0 l 479 0 l 479 79 q 439 33 461 51 q 391 3 417 14 q 338 -11 365 -7 q 281 -15 310 -15 m 458 921 l 547 881 q 463 777 515 814 q 342 740 410 740 q 222 777 275 740 q 136 881 169 814 l 225 921 q 275 847 247 871 q 342 824 303 824 q 390 834 368 824 q 428 866 411 844 q 458 921 446 888 z "},"ằ":{"ha":694,"x_min":56,"x_max":624,"o":"m 281 -15 q 115 34 174 -15 q 56 163 56 83 q 80 258 56 215 q 149 331 104 300 q 258 378 194 361 q 403 396 322 396 q 438 395 419 396 q 478 393 457 394 q 522 390 500 392 l 526 292 q 485 296 507 294 q 443 297 464 297 q 404 297 422 297 q 310 290 350 297 q 245 267 271 282 q 207 229 219 251 q 194 178 194 207 q 203 137 194 154 q 226 110 211 119 q 260 95 240 100 q 304 90 281 90 q 385 106 350 90 q 444 151 419 121 q 481 226 468 181 q 493 332 493 271 q 474 464 493 417 q 419 529 456 511 q 329 547 383 547 q 244 533 285 547 q 164 479 203 518 l 90 563 q 206 635 143 613 q 336 657 269 657 q 449 642 397 657 q 541 594 501 628 q 602 504 581 561 q 624 360 624 447 l 624 0 l 479 0 l 479 79 q 439 33 461 51 q 391 3 417 14 q 338 -11 365 -7 q 281 -15 310 -15 z "},"ẳ":{"ha":694,"x_min":56,"x_max":624,"o":"m 281 -15 q 115 34 174 -15 q 56 163 56 83 q 80 258 56 215 q 149 331 104 300 q 258 378 194 361 q 403 396 322 396 q 438 395 419 396 q 478 393 457 394 q 522 390 500 392 l 526 292 q 485 296 507 294 q 443 297 464 297 q 404 297 422 297 q 310 290 350 297 q 245 267 271 282 q 207 229 219 251 q 194 178 194 207 q 203 137 194 154 q 226 110 211 119 q 260 95 240 100 q 304 90 281 90 q 385 106 350 90 q 444 151 419 121 q 481 226 468 181 q 493 332 493 271 q 474 464 493 417 q 419 529 456 511 q 329 547 383 547 q 244 533 285 547 q 164 479 203 518 l 90 563 q 206 635 143 613 q 336 657 269 657 q 449 642 397 657 q 541 594 501 628 q 602 504 581 561 q 624 360 624 447 l 624 0 l 479 0 l 479 79 q 439 33 461 51 q 391 3 417 14 q 338 -11 365 -7 q 281 -15 310 -15 z "},"ẵ":{"ha":694,"x_min":56,"x_max":624,"o":"m 281 -15 q 115 34 174 -15 q 56 163 56 83 q 80 258 56 215 q 149 331 104 300 q 258 378 194 361 q 403 396 322 396 q 438 395 419 396 q 478 393 457 394 q 522 390 500 392 l 526 292 q 485 296 507 294 q 443 297 464 297 q 404 297 422 297 q 310 290 350 297 q 245 267 271 282 q 207 229 219 251 q 194 178 194 207 q 203 137 194 154 q 226 110 211 119 q 260 95 240 100 q 304 90 281 90 q 385 106 350 90 q 444 151 419 121 q 481 226 468 181 q 493 332 493 271 q 474 464 493 417 q 419 529 456 511 q 329 547 383 547 q 244 533 285 547 q 164 479 203 518 l 90 563 q 206 635 143 613 q 336 657 269 657 q 449 642 397 657 q 541 594 501 628 q 602 504 581 561 q 624 360 624 447 l 624 0 l 479 0 l 479 79 q 439 33 461 51 q 391 3 417 14 q 338 -11 365 -7 q 281 -15 310 -15 z "},"â":{"ha":694,"x_min":56,"x_max":624,"o":"m 281 -15 q 115 34 174 -15 q 56 163 56 83 q 80 258 56 215 q 149 331 104 300 q 258 378 194 361 q 403 396 322 396 q 438 395 419 396 q 478 393 457 394 q 522 390 500 392 l 526 292 q 485 296 507 294 q 443 297 464 297 q 404 297 422 297 q 310 290 350 297 q 245 267 271 282 q 207 229 219 251 q 194 178 194 207 q 203 137 194 154 q 226 110 211 119 q 260 95 240 100 q 304 90 281 90 q 385 106 350 90 q 444 151 419 121 q 481 226 468 181 q 493 332 493 271 q 474 464 493 417 q 419 529 456 511 q 329 547 383 547 q 244 533 285 547 q 164 479 203 518 l 90 563 q 206 635 143 613 q 336 657 269 657 q 449 642 397 657 q 541 594 501 628 q 602 504 581 561 q 624 360 624 447 l 624 0 l 479 0 l 479 79 q 439 33 461 51 q 391 3 417 14 q 338 -11 365 -7 q 281 -15 310 -15 m 186 697 l 118 758 l 318 951 l 363 951 l 563 758 l 494 697 l 340 843 l 186 697 z "},"ấ":{"ha":694,"x_min":56,"x_max":686,"o":"m 281 -15 q 115 34 174 -15 q 56 163 56 83 q 80 258 56 215 q 149 331 104 300 q 258 378 194 361 q 403 396 322 396 q 438 395 419 396 q 478 393 457 394 q 522 390 500 392 l 526 292 q 485 296 507 294 q 443 297 464 297 q 404 297 422 297 q 310 290 350 297 q 245 267 271 282 q 207 229 219 251 q 194 178 194 207 q 203 137 194 154 q 226 110 211 119 q 260 95 240 100 q 304 90 281 90 q 385 106 350 90 q 444 151 419 121 q 481 226 468 181 q 493 332 493 271 q 474 464 493 417 q 419 529 456 511 q 329 547 383 547 q 244 533 285 547 q 164 479 203 518 l 90 563 q 206 635 143 613 q 336 657 269 657 q 449 642 397 657 q 541 594 501 628 q 602 504 581 561 q 624 360 624 447 l 624 0 l 479 0 l 479 79 q 439 33 461 51 q 391 3 417 14 q 338 -11 365 -7 q 281 -15 310 -15 z "},"ậ":{"ha":694,"x_min":56,"x_max":624,"o":"m 281 -15 q 115 34 174 -15 q 56 163 56 83 q 80 258 56 215 q 149 331 104 300 q 258 378 194 361 q 403 396 322 396 q 438 395 419 396 q 478 393 457 394 q 522 390 500 392 l 526 292 q 485 296 507 294 q 443 297 464 297 q 404 297 422 297 q 310 290 350 297 q 245 267 271 282 q 207 229 219 251 q 194 178 194 207 q 203 137 194 154 q 226 110 211 119 q 260 95 240 100 q 304 90 281 90 q 385 106 350 90 q 444 151 419 121 q 481 226 468 181 q 493 332 493 271 q 474 464 493 417 q 419 529 456 511 q 329 547 383 547 q 244 533 285 547 q 164 479 203 518 l 90 563 q 206 635 143 613 q 336 657 269 657 q 449 642 397 657 q 541 594 501 628 q 602 504 581 561 q 624 360 624 447 l 624 0 l 479 0 l 479 79 q 439 33 461 51 q 391 3 417 14 q 338 -11 365 -7 q 281 -15 310 -15 m 186 697 l 118 758 l 318 951 l 363 951 l 563 758 l 494 697 l 340 843 l 186 697 z "},"ầ":{"ha":694,"x_min":56,"x_max":624,"o":"m 281 -15 q 115 34 174 -15 q 56 163 56 83 q 80 258 56 215 q 149 331 104 300 q 258 378 194 361 q 403 396 322 396 q 438 395 419 396 q 478 393 457 394 q 522 390 500 392 l 526 292 q 485 296 507 294 q 443 297 464 297 q 404 297 422 297 q 310 290 350 297 q 245 267 271 282 q 207 229 219 251 q 194 178 194 207 q 203 137 194 154 q 226 110 211 119 q 260 95 240 100 q 304 90 281 90 q 385 106 350 90 q 444 151 419 121 q 481 226 468 181 q 493 332 493 271 q 474 464 493 417 q 419 529 456 511 q 329 547 383 547 q 244 533 285 547 q 164 479 203 518 l 90 563 q 206 635 143 613 q 336 657 269 657 q 449 642 397 657 q 541 594 501 628 q 602 504 581 561 q 624 360 624 447 l 624 0 l 479 0 l 479 79 q 439 33 461 51 q 391 3 417 14 q 338 -11 365 -7 q 281 -15 310 -15 z "},"ẩ":{"ha":694,"x_min":56,"x_max":661,"o":"m 281 -15 q 115 34 174 -15 q 56 163 56 83 q 80 258 56 215 q 149 331 104 300 q 258 378 194 361 q 403 396 322 396 q 438 395 419 396 q 478 393 457 394 q 522 390 500 392 l 526 292 q 485 296 507 294 q 443 297 464 297 q 404 297 422 297 q 310 290 350 297 q 245 267 271 282 q 207 229 219 251 q 194 178 194 207 q 203 137 194 154 q 226 110 211 119 q 260 95 240 100 q 304 90 281 90 q 385 106 350 90 q 444 151 419 121 q 481 226 468 181 q 493 332 493 271 q 474 464 493 417 q 419 529 456 511 q 329 547 383 547 q 244 533 285 547 q 164 479 203 518 l 90 563 q 206 635 143 613 q 336 657 269 657 q 449 642 397 657 q 541 594 501 628 q 602 504 581 561 q 624 360 624 447 l 624 0 l 479 0 l 479 79 q 439 33 461 51 q 391 3 417 14 q 338 -11 365 -7 q 281 -15 310 -15 z "},"ẫ":{"ha":694,"x_min":56,"x_max":624,"o":"m 281 -15 q 115 34 174 -15 q 56 163 56 83 q 80 258 56 215 q 149 331 104 300 q 258 378 194 361 q 403 396 322 396 q 438 395 419 396 q 478 393 457 394 q 522 390 500 392 l 526 292 q 485 296 507 294 q 443 297 464 297 q 404 297 422 297 q 310 290 350 297 q 245 267 271 282 q 207 229 219 251 q 194 178 194 207 q 203 137 194 154 q 226 110 211 119 q 260 95 240 100 q 304 90 281 90 q 385 106 350 90 q 444 151 419 121 q 481 226 468 181 q 493 332 493 271 q 474 464 493 417 q 419 529 456 511 q 329 547 383 547 q 244 533 285 547 q 164 479 203 518 l 90 563 q 206 635 143 613 q 336 657 269 657 q 449 642 397 657 q 541 594 501 628 q 602 504 581 561 q 624 360 624 447 l 624 0 l 479 0 l 479 79 q 439 33 461 51 q 391 3 417 14 q 338 -11 365 -7 q 281 -15 310 -15 z "},"ȁ":{"ha":694,"x_min":56,"x_max":624,"o":"m 281 -15 q 115 34 174 -15 q 56 163 56 83 q 80 258 56 215 q 149 331 104 300 q 258 378 194 361 q 403 396 322 396 q 438 395 419 396 q 478 393 457 394 q 522 390 500 392 l 526 292 q 485 296 507 294 q 443 297 464 297 q 404 297 422 297 q 310 290 350 297 q 245 267 271 282 q 207 229 219 251 q 194 178 194 207 q 203 137 194 154 q 226 110 211 119 q 260 95 240 100 q 304 90 281 90 q 385 106 350 90 q 444 151 419 121 q 481 226 468 181 q 493 332 493 271 q 474 464 493 417 q 419 529 456 511 q 329 547 383 547 q 244 533 285 547 q 164 479 203 518 l 90 563 q 206 635 143 613 q 336 657 269 657 q 449 642 397 657 q 541 594 501 628 q 602 504 581 561 q 624 360 624 447 l 624 0 l 479 0 l 479 79 q 439 33 461 51 q 391 3 417 14 q 338 -11 365 -7 q 281 -15 310 -15 z "},"ä":{"ha":694,"x_min":56,"x_max":624,"o":"m 281 -15 q 115 34 174 -15 q 56 163 56 83 q 80 258 56 215 q 149 331 104 300 q 258 378 194 361 q 403 396 322 396 q 438 395 419 396 q 478 393 457 394 q 522 390 500 392 l 526 292 q 485 296 507 294 q 443 297 464 297 q 404 297 422 297 q 310 290 350 297 q 245 267 271 282 q 207 229 219 251 q 194 178 194 207 q 203 137 194 154 q 226 110 211 119 q 260 95 240 100 q 304 90 281 90 q 385 106 350 90 q 444 151 419 121 q 481 226 468 181 q 493 332 493 271 q 474 464 493 417 q 419 529 456 511 q 329 547 383 547 q 244 533 285 547 q 164 479 203 518 l 90 563 q 206 635 143 613 q 336 657 269 657 q 449 642 397 657 q 541 594 501 628 q 602 504 581 561 q 624 360 624 447 l 624 0 l 479 0 l 479 79 q 439 33 461 51 q 391 3 417 14 q 338 -11 365 -7 q 281 -15 310 -15 z "},"ạ":{"ha":694,"x_min":56,"x_max":624,"o":"m 281 -15 q 115 34 174 -15 q 56 163 56 83 q 80 258 56 215 q 149 331 104 300 q 258 378 194 361 q 403 396 322 396 q 438 395 419 396 q 478 393 457 394 q 522 390 500 392 l 526 292 q 485 296 507 294 q 443 297 464 297 q 404 297 422 297 q 310 290 350 297 q 245 267 271 282 q 207 229 219 251 q 194 178 194 207 q 203 137 194 154 q 226 110 211 119 q 260 95 240 100 q 304 90 281 90 q 385 106 350 90 q 444 151 419 121 q 481 226 468 181 q 493 332 493 271 q 474 464 493 417 q 419 529 456 511 q 329 547 383 547 q 244 533 285 547 q 164 479 203 518 l 90 563 q 206 635 143 613 q 336 657 269 657 q 449 642 397 657 q 541 594 501 628 q 602 504 581 561 q 624 360 624 447 l 624 0 l 479 0 l 479 79 q 439 33 461 51 q 391 3 417 14 q 338 -11 365 -7 q 281 -15 310 -15 z "},"à":{"ha":694,"x_min":56,"x_max":624,"o":"m 281 -15 q 115 34 174 -15 q 56 163 56 83 q 80 258 56 215 q 149 331 104 300 q 258 378 194 361 q 403 396 322 396 q 438 395 419 396 q 478 393 457 394 q 522 390 500 392 l 526 292 q 485 296 507 294 q 443 297 464 297 q 404 297 422 297 q 310 290 350 297 q 245 267 271 282 q 207 229 219 251 q 194 178 194 207 q 203 137 194 154 q 226 110 211 119 q 260 95 240 100 q 304 90 281 90 q 385 106 350 90 q 444 151 419 121 q 481 226 468 181 q 493 332 493 271 q 474 464 493 417 q 419 529 456 511 q 329 547 383 547 q 244 533 285 547 q 164 479 203 518 l 90 563 q 206 635 143 613 q 336 657 269 657 q 449 642 397 657 q 541 594 501 628 q 602 504 581 561 q 624 360 624 447 l 624 0 l 479 0 l 479 79 q 439 33 461 51 q 391 3 417 14 q 338 -11 365 -7 q 281 -15 310 -15 z "},"ả":{"ha":694,"x_min":56,"x_max":624,"o":"m 281 -15 q 115 34 174 -15 q 56 163 56 83 q 80 258 56 215 q 149 331 104 300 q 258 378 194 361 q 403 396 322 396 q 438 395 419 396 q 478 393 457 394 q 522 390 500 392 l 526 292 q 485 296 507 294 q 443 297 464 297 q 404 297 422 297 q 310 290 350 297 q 245 267 271 282 q 207 229 219 251 q 194 178 194 207 q 203 137 194 154 q 226 110 211 119 q 260 95 240 100 q 304 90 281 90 q 385 106 350 90 q 444 151 419 121 q 481 226 468 181 q 493 332 493 271 q 474 464 493 417 q 419 529 456 511 q 329 547 383 547 q 244 533 285 547 q 164 479 203 518 l 90 563 q 206 635 143 613 q 336 657 269 657 q 449 642 397 657 q 541 594 501 628 q 602 504 581 561 q 624 360 624 447 l 624 0 l 479 0 l 479 79 q 439 33 461 51 q 391 3 417 14 q 338 -11 365 -7 q 281 -15 310 -15 m 486 883 q 472 835 486 854 q 441 802 458 817 q 410 772 424 788 q 397 733 397 756 l 397 722 l 308 722 l 308 761 q 321 797 308 781 q 350 826 333 813 q 379 853 367 840 q 392 879 392 865 q 378 909 392 899 q 346 919 365 919 q 305 909 324 919 q 275 869 286 899 l 219 938 q 281 985 246 971 q 354 999 315 1000 q 422 984 392 999 q 469 944 451 969 q 486 883 486 918 z "},"ȃ":{"ha":694,"x_min":56,"x_max":624,"o":"m 281 -15 q 115 34 174 -15 q 56 163 56 83 q 80 258 56 215 q 149 331 104 300 q 258 378 194 361 q 403 396 322 396 q 438 395 419 396 q 478 393 457 394 q 522 390 500 392 l 526 292 q 485 296 507 294 q 443 297 464 297 q 404 297 422 297 q 310 290 350 297 q 245 267 271 282 q 207 229 219 251 q 194 178 194 207 q 203 137 194 154 q 226 110 211 119 q 260 95 240 100 q 304 90 281 90 q 385 106 350 90 q 444 151 419 121 q 481 226 468 181 q 493 332 493 271 q 474 464 493 417 q 419 529 456 511 q 329 547 383 547 q 244 533 285 547 q 164 479 203 518 l 90 563 q 206 635 143 613 q 336 657 269 657 q 449 642 397 657 q 541 594 501 628 q 602 504 581 561 q 624 360 624 447 l 624 0 l 479 0 l 479 79 q 439 33 461 51 q 391 3 417 14 q 338 -11 365 -7 q 281 -15 310 -15 m 225 726 l 136 767 q 222 871 169 835 q 342 907 275 907 q 463 871 410 907 q 547 767 515 835 l 458 726 q 409 800 438 776 q 342 824 381 824 q 295 813 317 824 q 256 782 274 803 q 225 726 239 761 z "},"ā":{"ha":694,"x_min":56,"x_max":624,"o":"m 281 -15 q 115 34 174 -15 q 56 163 56 83 q 80 258 56 215 q 149 331 104 300 q 258 378 194 361 q 403 396 322 396 q 438 395 419 396 q 478 393 457 394 q 522 390 500 392 l 526 292 q 485 296 507 294 q 443 297 464 297 q 404 297 422 297 q 310 290 350 297 q 245 267 271 282 q 207 229 219 251 q 194 178 194 207 q 203 137 194 154 q 226 110 211 119 q 260 95 240 100 q 304 90 281 90 q 385 106 350 90 q 444 151 419 121 q 481 226 468 181 q 493 332 493 271 q 474 464 493 417 q 419 529 456 511 q 329 547 383 547 q 244 533 285 547 q 164 479 203 518 l 90 563 q 206 635 143 613 q 336 657 269 657 q 449 642 397 657 q 541 594 501 628 q 602 504 581 561 q 624 360 624 447 l 624 0 l 479 0 l 479 79 q 439 33 461 51 q 391 3 417 14 q 338 -11 365 -7 q 281 -15 310 -15 z "},"ą":{"ha":694,"x_min":56,"x_max":624,"o":"m 281 -15 q 115 34 174 -15 q 56 163 56 83 q 80 258 56 215 q 149 331 104 300 q 258 378 194 361 q 403 396 322 396 q 438 395 419 396 q 478 393 457 394 q 522 390 500 392 l 526 292 q 485 296 507 294 q 443 297 464 297 q 404 297 422 297 q 310 290 350 297 q 245 267 271 282 q 207 229 219 251 q 194 178 194 207 q 203 137 194 154 q 226 110 211 119 q 260 95 240 100 q 304 90 281 90 q 385 106 350 90 q 444 151 419 121 q 481 226 468 181 q 493 332 493 271 q 474 464 493 417 q 419 529 456 511 q 329 547 383 547 q 244 533 285 547 q 164 479 203 518 l 90 563 q 206 635 143 613 q 336 657 269 657 q 449 642 397 657 q 541 594 501 628 q 602 504 581 561 q 624 360 624 447 l 624 0 l 479 0 l 479 79 q 439 33 461 51 q 391 3 417 14 q 338 -11 365 -7 q 281 -15 310 -15 m 539 -222 l 490 -325 q 394 -291 433 -312 q 335 -242 356 -269 q 315 -181 315 -214 q 336 -108 315 -144 q 399 -35 357 -71 q 499 33 440 1 l 549 0 q 494 -52 517 -26 q 460 -101 472 -78 q 449 -146 449 -125 q 471 -192 449 -172 q 539 -222 493 -212 z "},"å":{"ha":694,"x_min":56,"x_max":624,"o":"m 281 -15 q 115 34 174 -15 q 56 163 56 83 q 80 258 56 215 q 149 331 104 300 q 258 378 194 361 q 403 396 322 396 q 438 395 419 396 q 478 393 457 394 q 522 390 500 392 l 526 292 q 485 296 507 294 q 443 297 464 297 q 404 297 422 297 q 310 290 350 297 q 245 267 271 282 q 207 229 219 251 q 194 178 194 207 q 203 137 194 154 q 226 110 211 119 q 260 95 240 100 q 304 90 281 90 q 385 106 350 90 q 444 151 419 121 q 481 226 468 181 q 493 332 493 271 q 474 464 493 417 q 419 529 456 511 q 329 547 383 547 q 244 533 285 547 q 164 479 203 518 l 90 563 q 206 635 143 613 q 336 657 269 657 q 449 642 397 657 q 541 594 501 628 q 602 504 581 561 q 624 360 624 447 l 624 0 l 479 0 l 479 79 q 439 33 461 51 q 391 3 417 14 q 338 -11 365 -7 q 281 -15 310 -15 z "},"ǻ":{"ha":694,"x_min":56,"x_max":624,"o":"m 281 -15 q 115 34 174 -15 q 56 163 56 83 q 80 258 56 215 q 149 331 104 300 q 258 378 194 361 q 403 396 322 396 q 438 395 419 396 q 478 393 457 394 q 522 390 500 392 l 526 292 q 485 296 507 294 q 443 297 464 297 q 404 297 422 297 q 310 290 350 297 q 245 267 271 282 q 207 229 219 251 q 194 178 194 207 q 203 137 194 154 q 226 110 211 119 q 260 95 240 100 q 304 90 281 90 q 385 106 350 90 q 444 151 419 121 q 481 226 468 181 q 493 332 493 271 q 474 464 493 417 q 419 529 456 511 q 329 547 383 547 q 244 533 285 547 q 164 479 203 518 l 90 563 q 206 635 143 613 q 336 657 269 657 q 449 642 397 657 q 541 594 501 628 q 602 504 581 561 q 624 360 624 447 l 624 0 l 479 0 l 479 79 q 439 33 461 51 q 391 3 417 14 q 338 -11 365 -7 q 281 -15 310 -15 z "},"ã":{"ha":694,"x_min":56,"x_max":624,"o":"m 281 -15 q 115 34 174 -15 q 56 163 56 83 q 80 258 56 215 q 149 331 104 300 q 258 378 194 361 q 403 396 322 396 q 438 395 419 396 q 478 393 457 394 q 522 390 500 392 l 526 292 q 485 296 507 294 q 443 297 464 297 q 404 297 422 297 q 310 290 350 297 q 245 267 271 282 q 207 229 219 251 q 194 178 194 207 q 203 137 194 154 q 226 110 211 119 q 260 95 240 100 q 304 90 281 90 q 385 106 350 90 q 444 151 419 121 q 481 226 468 181 q 493 332 493 271 q 474 464 493 417 q 419 529 456 511 q 329 547 383 547 q 244 533 285 547 q 164 479 203 518 l 90 563 q 206 635 143 613 q 336 657 269 657 q 449 642 397 657 q 541 594 501 628 q 602 504 581 561 q 624 360 624 447 l 624 0 l 479 0 l 479 79 q 439 33 461 51 q 391 3 417 14 q 338 -11 365 -7 q 281 -15 310 -15 m 500 932 l 578 890 q 517 807 549 832 q 443 782 486 782 q 380 794 406 782 q 335 822 354 806 q 299 851 317 839 q 260 864 282 864 q 219 847 238 864 q 185 797 200 831 l 106 833 q 163 921 126 890 q 256 951 200 951 q 315 940 290 951 q 358 911 339 928 q 395 883 376 894 q 436 871 414 871 q 472 885 458 871 q 500 932 485 900 z "},"æ":{"ha":694,"x_min":7,"x_max":692,"o":"m 201 -17 q 99 7 143 -17 q 31 74 56 31 q 7 176 7 117 q 26 267 7 226 q 82 335 46 307 q 172 381 118 364 q 292 399 225 397 q 280 484 292 450 q 247 536 268 518 q 196 554 225 554 q 142 538 168 554 q 94 492 117 522 l 31 571 q 109 636 64 615 q 208 657 154 657 q 270 646 240 657 q 324 617 300 635 q 360 575 347 599 q 397 617 375 599 q 443 647 418 636 q 494 657 468 657 q 603 622 561 657 q 665 524 644 588 q 685 375 685 461 l 685 314 l 404 304 l 404 246 q 413 181 404 210 q 437 131 421 151 q 475 98 453 110 q 526 86 497 86 q 564 92 546 86 q 598 112 582 99 q 628 144 614 125 l 692 68 q 613 6 657 28 q 518 -17 569 -17 q 456 -6 486 -17 q 400 26 425 6 q 356 72 375 46 q 315 26 340 46 q 261 -6 290 6 q 201 -17 232 -17 m 206 90 q 261 113 242 90 q 288 183 281 136 q 294 299 294 229 q 196 281 233 296 q 142 239 158 265 q 126 176 126 213 q 135 127 126 146 q 163 99 144 108 q 206 90 181 90 m 404 401 l 583 407 q 574 489 583 456 q 544 538 564 522 q 497 554 525 554 q 449 536 471 554 q 416 484 428 518 q 404 401 404 450 z "},"ǽ":{"ha":694,"x_min":7,"x_max":692,"o":"m 201 -17 q 99 7 143 -17 q 31 74 56 31 q 7 176 7 117 q 26 267 7 226 q 82 335 46 307 q 172 381 118 364 q 292 399 225 397 q 280 484 292 450 q 247 536 268 518 q 196 554 225 554 q 142 538 168 554 q 94 492 117 522 l 31 571 q 109 636 64 615 q 208 657 154 657 q 270 646 240 657 q 324 617 300 635 q 360 575 347 599 q 397 617 375 599 q 443 647 418 636 q 494 657 468 657 q 603 622 561 657 q 665 524 644 588 q 685 375 685 461 l 685 314 l 404 304 l 404 246 q 413 181 404 210 q 437 131 421 151 q 475 98 453 110 q 526 86 497 86 q 564 92 546 86 q 598 112 582 99 q 628 144 614 125 l 692 68 q 613 6 657 28 q 518 -17 569 -17 q 456 -6 486 -17 q 400 26 425 6 q 356 72 375 46 q 315 26 340 46 q 261 -6 290 6 q 201 -17 232 -17 m 206 90 q 261 113 242 90 q 288 183 281 136 q 294 299 294 229 q 196 281 233 296 q 142 239 158 265 q 126 176 126 213 q 135 127 126 146 q 163 99 144 108 q 206 90 181 90 m 404 401 l 583 407 q 574 489 583 456 q 544 538 564 522 q 497 554 525 554 q 449 536 471 554 q 416 484 428 518 q 404 401 404 450 z "},"b":{"ha":694,"x_min":72,"x_max":649,"o":"m 381 -15 q 313 -5 346 -15 q 252 26 281 6 q 201 75 224 46 l 172 0 l 72 0 l 72 929 l 211 929 l 224 929 l 224 917 q 215 899 217 908 q 213 865 213 889 l 213 561 q 246 601 226 583 q 288 631 265 618 q 337 651 311 644 q 388 658 363 658 q 494 637 446 657 q 576 576 542 617 q 630 474 611 535 q 649 331 649 413 q 627 178 649 243 q 568 69 606 113 q 482 6 531 26 q 381 -15 433 -15 l 381 -15 m 357 96 q 415 107 388 96 q 463 144 442 118 q 497 214 485 171 q 510 318 510 257 q 499 418 510 375 q 469 491 489 461 q 422 535 450 521 q 360 550 393 550 q 281 522 314 550 q 231 444 249 494 q 213 324 213 393 q 221 227 213 269 q 247 156 229 185 q 291 111 264 126 q 357 96 318 96 l 357 96 z "},"ʘ":{"ha":694,"x_min":31,"x_max":668,"o":"m 349 -15 q 174 36 246 -15 q 67 188 103 88 q 31 431 31 288 q 67 670 31 571 q 174 822 103 769 q 349 875 246 875 q 524 822 453 875 q 631 670 594 769 q 668 431 668 571 q 631 188 668 288 q 524 36 594 88 q 349 -15 453 -15 m 349 97 q 446 135 406 97 q 508 247 486 172 q 531 432 531 321 q 508 610 531 536 q 446 723 486 683 q 349 763 406 763 q 251 723 292 763 q 189 610 210 683 q 168 432 168 536 q 189 247 168 321 q 251 135 210 172 q 349 97 292 97 m 350 367 q 299 388 319 367 q 278 436 278 408 q 299 487 278 467 q 350 507 319 507 q 401 485 379 507 q 422 436 422 464 q 401 388 422 408 q 350 367 379 367 z "},"c":{"ha":694,"x_min":63,"x_max":644,"o":"m 390 -15 q 259 9 319 -15 q 155 78 199 33 q 87 184 111 124 q 63 317 63 244 q 87 451 63 389 q 155 558 111 513 q 259 630 199 604 q 389 656 319 656 q 540 624 475 656 q 644 533 604 592 l 565 450 l 556 440 l 547 449 q 542 470 546 460 q 524 499 539 481 q 463 534 496 524 q 386 544 429 544 q 317 529 350 544 q 259 485 285 514 q 218 414 233 456 q 203 321 203 372 q 218 230 203 271 q 260 160 233 189 q 322 116 286 132 q 396 100 357 100 q 455 108 426 100 q 510 133 483 115 q 560 178 536 150 l 636 89 q 522 10 586 35 q 390 -15 457 -15 l 390 -15 z "},"ć":{"ha":694,"x_min":63,"x_max":644,"o":"m 390 -15 q 259 9 319 -15 q 155 78 199 33 q 87 184 111 124 q 63 317 63 244 q 87 451 63 389 q 155 558 111 513 q 259 630 199 604 q 389 656 319 656 q 540 624 475 656 q 644 533 604 592 l 565 450 l 556 440 l 547 449 q 542 470 546 460 q 524 499 539 481 q 463 534 496 524 q 386 544 429 544 q 317 529 350 544 q 259 485 285 514 q 218 414 233 456 q 203 321 203 372 q 218 230 203 271 q 260 160 233 189 q 322 116 286 132 q 396 100 357 100 q 455 108 426 100 q 510 133 483 115 q 560 178 536 150 l 636 89 q 522 10 586 35 q 390 -15 457 -15 l 390 -15 z "},"č":{"ha":694,"x_min":63,"x_max":644,"o":"m 390 -15 q 259 9 319 -15 q 155 78 199 33 q 87 184 111 124 q 63 317 63 244 q 87 451 63 389 q 155 558 111 513 q 259 630 199 604 q 389 656 319 656 q 540 624 475 656 q 644 533 604 592 l 565 450 l 556 440 l 547 449 q 542 470 546 460 q 524 499 539 481 q 463 534 496 524 q 386 544 429 544 q 317 529 350 544 q 259 485 285 514 q 218 414 233 456 q 203 321 203 372 q 218 230 203 271 q 260 160 233 189 q 322 116 286 132 q 396 100 357 100 q 455 108 426 100 q 510 133 483 115 q 560 178 536 150 l 636 89 q 522 10 586 35 q 390 -15 457 -15 l 390 -15 m 231 969 l 385 824 l 539 969 l 607 910 l 407 717 l 363 717 l 163 910 l 231 969 z "},"ç":{"ha":694,"x_min":63,"x_max":644,"o":"m 390 -15 q 259 9 319 -15 q 155 78 199 33 q 87 184 111 124 q 63 317 63 244 q 87 451 63 389 q 155 558 111 513 q 259 630 199 604 q 389 656 319 656 q 540 624 475 656 q 644 533 604 592 l 565 450 l 556 440 l 547 449 q 542 470 546 460 q 524 499 539 481 q 463 534 496 524 q 386 544 429 544 q 317 529 350 544 q 259 485 285 514 q 218 414 233 456 q 203 321 203 372 q 218 230 203 271 q 260 160 233 189 q 322 116 286 132 q 396 100 357 100 q 455 108 426 100 q 510 133 483 115 q 560 178 536 150 l 636 89 q 522 10 586 35 q 390 -15 457 -15 l 390 -15 z "},"ḉ":{"ha":694,"x_min":63,"x_max":644,"o":"m 390 -15 q 259 9 319 -15 q 155 78 199 33 q 87 184 111 124 q 63 317 63 244 q 87 451 63 389 q 155 558 111 513 q 259 630 199 604 q 389 656 319 656 q 540 624 475 656 q 644 533 604 592 l 565 450 l 556 440 l 547 449 q 542 470 546 460 q 524 499 539 481 q 463 534 496 524 q 386 544 429 544 q 317 529 350 544 q 259 485 285 514 q 218 414 233 456 q 203 321 203 372 q 218 230 203 271 q 260 160 233 189 q 322 116 286 132 q 396 100 357 100 q 455 108 426 100 q 510 133 483 115 q 560 178 536 150 l 636 89 q 522 10 586 35 q 390 -15 457 -15 l 390 -15 z "},"ĉ":{"ha":694,"x_min":63,"x_max":644,"o":"m 390 -15 q 259 9 319 -15 q 155 78 199 33 q 87 184 111 124 q 63 317 63 244 q 87 451 63 389 q 155 558 111 513 q 259 630 199 604 q 389 656 319 656 q 540 624 475 656 q 644 533 604 592 l 565 450 l 556 440 l 547 449 q 542 470 546 460 q 524 499 539 481 q 463 534 496 524 q 386 544 429 544 q 317 529 350 544 q 259 485 285 514 q 218 414 233 456 q 203 321 203 372 q 218 230 203 271 q 260 160 233 189 q 322 116 286 132 q 396 100 357 100 q 455 108 426 100 q 510 133 483 115 q 560 178 536 150 l 636 89 q 522 10 586 35 q 390 -15 457 -15 l 390 -15 m 233 697 l 165 758 l 365 951 l 410 951 l 610 758 l 542 697 l 388 843 l 233 697 z "},"ċ":{"ha":694,"x_min":63,"x_max":644,"o":"m 390 -15 q 259 9 319 -15 q 155 78 199 33 q 87 184 111 124 q 63 317 63 244 q 87 451 63 389 q 155 558 111 513 q 259 630 199 604 q 389 656 319 656 q 540 624 475 656 q 644 533 604 592 l 565 450 l 556 440 l 547 449 q 542 470 546 460 q 524 499 539 481 q 463 534 496 524 q 386 544 429 544 q 317 529 350 544 q 259 485 285 514 q 218 414 233 456 q 203 321 203 372 q 218 230 203 271 q 260 160 233 189 q 322 116 286 132 q 396 100 357 100 q 455 108 426 100 q 510 133 483 115 q 560 178 536 150 l 636 89 q 522 10 586 35 q 390 -15 457 -15 l 390 -15 z "},"d":{"ha":694,"x_min":51,"x_max":635,"o":"m 317 -15 q 217 6 265 -15 q 132 69 169 28 q 73 176 94 111 q 51 325 51 240 q 73 474 51 411 q 132 577 94 536 q 218 638 169 618 q 319 658 267 658 q 388 649 357 658 q 444 619 419 639 q 485 571 469 600 l 485 929 l 619 929 l 632 929 l 632 917 q 622 899 625 908 q 621 865 619 889 l 621 90 q 623 45 621 68 q 635 0 625 22 l 499 0 q 489 28 492 15 q 486 53 486 40 q 486 79 486 65 q 442 28 467 50 q 385 -4 417 7 q 317 -15 353 -15 l 317 -15 m 340 99 q 404 114 378 99 q 447 158 431 129 q 472 229 464 188 q 481 324 481 271 q 465 445 481 394 q 417 523 450 496 q 335 550 385 550 q 271 535 299 550 q 224 491 243 519 q 196 422 206 463 q 186 332 186 382 q 206 208 186 261 q 261 127 226 156 q 340 99 296 99 l 340 99 z "},"ð":{"ha":694,"x_min":50,"x_max":647,"o":"m 356 -19 q 235 4 290 -19 q 139 71 181 28 q 74 174 97 114 q 50 307 50 233 q 72 442 50 379 q 133 551 94 504 q 222 625 172 599 q 325 651 271 651 q 385 645 357 651 q 436 626 413 639 q 478 593 460 613 q 433 676 458 635 q 374 750 407 718 l 213 704 l 181 793 l 299 825 q 258 856 278 842 q 216 883 238 869 q 167 907 194 897 l 311 940 q 369 904 343 922 q 424 861 396 886 l 579 906 l 611 818 l 503 786 q 565 696 538 744 q 610 592 592 647 q 638 476 629 536 q 647 350 647 415 q 628 200 647 268 q 573 83 610 132 q 481 8 536 35 q 356 -19 426 -19 m 357 94 q 415 108 388 94 q 463 150 442 122 q 497 220 485 178 q 510 319 510 263 q 500 402 510 367 q 476 463 490 438 q 441 505 461 489 q 398 529 421 521 q 353 538 375 538 q 297 524 325 538 q 245 482 268 510 q 208 414 222 454 q 194 319 194 374 q 208 228 194 269 q 243 156 221 186 q 294 110 265 126 q 357 94 324 94 z "},"ď":{"ha":694,"x_min":40,"x_max":675,"o":"m 247 -14 q 168 4 206 -14 q 102 61 131 22 q 57 165 74 100 q 40 325 40 231 q 56 481 40 417 q 101 584 72 544 q 167 642 129 624 q 250 660 206 660 q 330 638 296 660 q 379 571 364 617 l 379 928 l 499 928 l 513 928 l 513 915 q 502 897 504 907 q 500 864 500 888 l 500 93 q 501 47 500 69 q 511 0 503 24 l 392 0 q 383 26 386 14 q 380 49 381 38 q 379 78 379 61 q 345 28 365 49 q 300 -3 325 7 q 247 -14 275 -14 l 247 -14 m 271 96 q 331 122 307 96 q 365 198 354 147 q 376 322 376 249 q 365 452 376 401 q 329 528 353 503 q 269 553 306 553 q 222 540 243 553 q 187 500 201 526 q 165 433 172 474 q 158 335 158 392 q 167 226 158 272 q 190 152 175 181 q 226 110 206 124 q 271 96 247 96 l 271 96 m 601 928 q 654 906 633 928 q 675 846 675 883 q 663 779 675 814 q 631 708 651 744 q 585 636 611 672 l 525 676 q 552 712 540 694 q 571 746 564 729 q 578 779 578 763 q 567 802 578 792 q 544 826 556 813 q 532 867 532 840 q 551 909 532 890 q 601 928 571 928 z "},"đ":{"ha":694,"x_min":51,"x_max":693,"o":"m 317 -15 q 217 6 265 -15 q 132 69 169 28 q 73 176 94 111 q 51 325 51 240 q 73 474 51 411 q 132 577 94 536 q 218 638 169 618 q 319 658 267 658 q 388 649 357 658 q 444 619 419 639 q 485 571 469 600 l 485 929 l 619 929 l 632 929 l 632 917 q 622 899 625 908 q 621 865 619 889 l 621 90 q 623 45 621 68 q 635 0 625 22 l 499 0 q 489 28 492 15 q 486 53 486 40 q 486 79 486 65 q 442 28 467 50 q 385 -4 417 7 q 317 -15 353 -15 l 317 -15 m 340 99 q 404 114 378 99 q 447 158 431 129 q 472 229 464 188 q 481 324 481 271 q 465 445 481 394 q 417 523 450 496 q 335 550 385 550 q 271 535 299 550 q 224 491 243 519 q 196 422 206 463 q 186 332 186 382 q 206 208 186 261 q 261 127 226 156 q 340 99 296 99 l 340 99 m 313 726 l 313 819 l 693 819 l 693 726 l 313 726 z "},"ḍ":{"ha":694,"x_min":51,"x_max":635,"o":"m 317 -15 q 217 6 265 -15 q 132 69 169 28 q 73 176 94 111 q 51 325 51 240 q 73 474 51 411 q 132 577 94 536 q 218 638 169 618 q 319 658 267 658 q 388 649 357 658 q 444 619 419 639 q 485 571 469 600 l 485 929 l 619 929 l 632 929 l 632 917 q 622 899 625 908 q 621 865 619 889 l 621 90 q 623 45 621 68 q 635 0 625 22 l 499 0 q 489 28 492 15 q 486 53 486 40 q 486 79 486 65 q 442 28 467 50 q 385 -4 417 7 q 317 -15 353 -15 l 317 -15 m 340 99 q 404 114 378 99 q 447 158 431 129 q 472 229 464 188 q 481 324 481 271 q 465 445 481 394 q 417 523 450 496 q 335 550 385 550 q 271 535 299 550 q 224 491 243 519 q 196 422 206 463 q 186 332 186 382 q 206 208 186 261 q 261 127 226 156 q 340 99 296 99 l 340 99 z "},"ḏ":{"ha":694,"x_min":51,"x_max":635,"o":"m 317 -15 q 217 6 265 -15 q 132 69 169 28 q 73 176 94 111 q 51 325 51 240 q 73 474 51 411 q 132 577 94 536 q 218 638 169 618 q 319 658 267 658 q 388 649 357 658 q 444 619 419 639 q 485 571 469 600 l 485 929 l 619 929 l 632 929 l 632 917 q 622 899 625 908 q 621 865 619 889 l 621 90 q 623 45 621 68 q 635 0 625 22 l 499 0 q 489 28 492 15 q 486 53 486 40 q 486 79 486 65 q 442 28 467 50 q 385 -4 417 7 q 317 -15 353 -15 l 317 -15 m 340 99 q 404 114 378 99 q 447 158 431 129 q 472 229 464 188 q 481 324 481 271 q 465 445 481 394 q 417 523 450 496 q 335 550 385 550 q 271 535 299 550 q 224 491 243 519 q 196 422 206 463 q 186 332 186 382 q 206 208 186 261 q 261 127 226 156 q 340 99 296 99 l 340 99 z "},"e":{"ha":694,"x_min":58,"x_max":629,"o":"m 376 -15 q 249 7 307 -15 q 148 72 190 29 q 82 176 106 114 q 58 318 58 239 q 82 462 58 399 q 147 568 106 525 q 242 635 188 611 q 360 658 297 658 q 463 639 414 658 q 549 581 513 619 q 608 485 586 543 q 629 349 629 426 q 629 317 629 335 q 628 288 629 300 l 192 288 q 211 201 194 238 q 253 140 228 164 q 313 106 279 117 q 382 94 346 94 q 441 101 414 94 q 493 121 468 107 q 539 158 518 135 l 611 88 q 546 30 582 53 q 467 -4 510 7 q 376 -15 425 -15 m 194 392 l 494 392 q 485 460 494 431 q 456 510 475 489 q 411 541 438 531 q 353 551 385 551 q 297 542 322 551 q 250 513 271 532 q 215 463 229 493 q 194 392 200 433 z "},"é":{"ha":694,"x_min":58,"x_max":629,"o":"m 376 -15 q 249 7 307 -15 q 148 72 190 29 q 82 176 106 114 q 58 318 58 239 q 82 462 58 399 q 147 568 106 525 q 242 635 188 611 q 360 658 297 658 q 463 639 414 658 q 549 581 513 619 q 608 485 586 543 q 629 349 629 426 q 629 317 629 335 q 628 288 629 300 l 192 288 q 211 201 194 238 q 253 140 228 164 q 313 106 279 117 q 382 94 346 94 q 441 101 414 94 q 493 121 468 107 q 539 158 518 135 l 611 88 q 546 30 582 53 q 467 -4 510 7 q 376 -15 425 -15 m 194 392 l 494 392 q 485 460 494 431 q 456 510 475 489 q 411 541 438 531 q 353 551 385 551 q 297 542 322 551 q 250 513 271 532 q 215 463 229 493 q 194 392 200 433 z "},"ĕ":{"ha":694,"x_min":58,"x_max":629,"o":"m 376 -15 q 249 7 307 -15 q 148 72 190 29 q 82 176 106 114 q 58 318 58 239 q 82 462 58 399 q 147 568 106 525 q 242 635 188 611 q 360 658 297 658 q 463 639 414 658 q 549 581 513 619 q 608 485 586 543 q 629 349 629 426 q 629 317 629 335 q 628 288 629 300 l 192 288 q 211 201 194 238 q 253 140 228 164 q 313 106 279 117 q 382 94 346 94 q 441 101 414 94 q 493 121 468 107 q 539 158 518 135 l 611 88 q 546 30 582 53 q 467 -4 510 7 q 376 -15 425 -15 m 194 392 l 494 392 q 485 460 494 431 q 456 510 475 489 q 411 541 438 531 q 353 551 385 551 q 297 542 322 551 q 250 513 271 532 q 215 463 229 493 q 194 392 200 433 m 476 921 l 565 881 q 481 777 533 814 q 360 740 428 740 q 240 777 293 740 q 154 881 188 814 l 243 921 q 293 847 265 871 q 360 824 321 824 q 408 834 386 824 q 447 866 429 844 q 476 921 464 888 z "},"ě":{"ha":694,"x_min":58,"x_max":629,"o":"m 376 -15 q 249 7 307 -15 q 148 72 190 29 q 82 176 106 114 q 58 318 58 239 q 82 462 58 399 q 147 568 106 525 q 242 635 188 611 q 360 658 297 658 q 463 639 414 658 q 549 581 513 619 q 608 485 586 543 q 629 349 629 426 q 629 317 629 335 q 628 288 629 300 l 192 288 q 211 201 194 238 q 253 140 228 164 q 313 106 279 117 q 382 94 346 94 q 441 101 414 94 q 493 121 468 107 q 539 158 518 135 l 611 88 q 546 30 582 53 q 467 -4 510 7 q 376 -15 425 -15 m 194 392 l 494 392 q 485 460 494 431 q 456 510 475 489 q 411 541 438 531 q 353 551 385 551 q 297 542 322 551 q 250 513 271 532 q 215 463 229 493 q 194 392 200 433 m 203 969 l 357 824 l 511 969 l 579 910 l 379 717 l 335 717 l 135 910 l 203 969 z "},"ḝ":{"ha":694,"x_min":58,"x_max":629,"o":"m 376 -15 q 249 7 307 -15 q 148 72 190 29 q 82 176 106 114 q 58 318 58 239 q 82 462 58 399 q 147 568 106 525 q 242 635 188 611 q 360 658 297 658 q 463 639 414 658 q 549 581 513 619 q 608 485 586 543 q 629 349 629 426 q 629 317 629 335 q 628 288 629 300 l 192 288 q 211 201 194 238 q 253 140 228 164 q 313 106 279 117 q 382 94 346 94 q 441 101 414 94 q 493 121 468 107 q 539 158 518 135 l 611 88 q 546 30 582 53 q 467 -4 510 7 q 376 -15 425 -15 m 194 392 l 494 392 q 485 460 494 431 q 456 510 475 489 q 411 541 438 531 q 353 551 385 551 q 297 542 322 551 q 250 513 271 532 q 215 463 229 493 q 194 392 200 433 m 476 921 l 565 881 q 481 777 533 814 q 360 740 428 740 q 240 777 293 740 q 154 881 188 814 l 243 921 q 293 847 265 871 q 360 824 321 824 q 408 834 386 824 q 447 866 429 844 q 476 921 464 888 z "},"ê":{"ha":694,"x_min":58,"x_max":629,"o":"m 376 -15 q 249 7 307 -15 q 148 72 190 29 q 82 176 106 114 q 58 318 58 239 q 82 462 58 399 q 147 568 106 525 q 242 635 188 611 q 360 658 297 658 q 463 639 414 658 q 549 581 513 619 q 608 485 586 543 q 629 349 629 426 q 629 317 629 335 q 628 288 629 300 l 192 288 q 211 201 194 238 q 253 140 228 164 q 313 106 279 117 q 382 94 346 94 q 441 101 414 94 q 493 121 468 107 q 539 158 518 135 l 611 88 q 546 30 582 53 q 467 -4 510 7 q 376 -15 425 -15 m 194 392 l 494 392 q 485 460 494 431 q 456 510 475 489 q 411 541 438 531 q 353 551 385 551 q 297 542 322 551 q 250 513 271 532 q 215 463 229 493 q 194 392 200 433 m 204 697 l 136 758 l 336 951 l 381 951 l 581 758 l 513 697 l 358 843 l 204 697 z "},"ế":{"ha":694,"x_min":58,"x_max":704,"o":"m 376 -15 q 249 7 307 -15 q 148 72 190 29 q 82 176 106 114 q 58 318 58 239 q 82 462 58 399 q 147 568 106 525 q 242 635 188 611 q 360 658 297 658 q 463 639 414 658 q 549 581 513 619 q 608 485 586 543 q 629 349 629 426 q 629 317 629 335 q 628 288 629 300 l 192 288 q 211 201 194 238 q 253 140 228 164 q 313 106 279 117 q 382 94 346 94 q 441 101 414 94 q 493 121 468 107 q 539 158 518 135 l 611 88 q 546 30 582 53 q 467 -4 510 7 q 376 -15 425 -15 m 194 392 l 494 392 q 485 460 494 431 q 456 510 475 489 q 411 541 438 531 q 353 551 385 551 q 297 542 322 551 q 250 513 271 532 q 215 463 229 493 q 194 392 200 433 z "},"ệ":{"ha":694,"x_min":58,"x_max":629,"o":"m 376 -15 q 249 7 307 -15 q 148 72 190 29 q 82 176 106 114 q 58 318 58 239 q 82 462 58 399 q 147 568 106 525 q 242 635 188 611 q 360 658 297 658 q 463 639 414 658 q 549 581 513 619 q 608 485 586 543 q 629 349 629 426 q 629 317 629 335 q 628 288 629 300 l 192 288 q 211 201 194 238 q 253 140 228 164 q 313 106 279 117 q 382 94 346 94 q 441 101 414 94 q 493 121 468 107 q 539 158 518 135 l 611 88 q 546 30 582 53 q 467 -4 510 7 q 376 -15 425 -15 m 194 392 l 494 392 q 485 460 494 431 q 456 510 475 489 q 411 541 438 531 q 353 551 385 551 q 297 542 322 551 q 250 513 271 532 q 215 463 229 493 q 194 392 200 433 m 204 697 l 136 758 l 336 951 l 381 951 l 581 758 l 513 697 l 358 843 l 204 697 z "},"ề":{"ha":694,"x_min":58,"x_max":629,"o":"m 376 -15 q 249 7 307 -15 q 148 72 190 29 q 82 176 106 114 q 58 318 58 239 q 82 462 58 399 q 147 568 106 525 q 242 635 188 611 q 360 658 297 658 q 463 639 414 658 q 549 581 513 619 q 608 485 586 543 q 629 349 629 426 q 629 317 629 335 q 628 288 629 300 l 192 288 q 211 201 194 238 q 253 140 228 164 q 313 106 279 117 q 382 94 346 94 q 441 101 414 94 q 493 121 468 107 q 539 158 518 135 l 611 88 q 546 30 582 53 q 467 -4 510 7 q 376 -15 425 -15 m 194 392 l 494 392 q 485 460 494 431 q 456 510 475 489 q 411 541 438 531 q 353 551 385 551 q 297 542 322 551 q 250 513 271 532 q 215 463 229 493 q 194 392 200 433 z "},"ể":{"ha":694,"x_min":58,"x_max":681,"o":"m 376 -15 q 249 7 307 -15 q 148 72 190 29 q 82 176 106 114 q 58 318 58 239 q 82 462 58 399 q 147 568 106 525 q 242 635 188 611 q 360 658 297 658 q 463 639 414 658 q 549 581 513 619 q 608 485 586 543 q 629 349 629 426 q 629 317 629 335 q 628 288 629 300 l 192 288 q 211 201 194 238 q 253 140 228 164 q 313 106 279 117 q 382 94 346 94 q 441 101 414 94 q 493 121 468 107 q 539 158 518 135 l 611 88 q 546 30 582 53 q 467 -4 510 7 q 376 -15 425 -15 m 194 392 l 494 392 q 485 460 494 431 q 456 510 475 489 q 411 541 438 531 q 353 551 385 551 q 297 542 322 551 q 250 513 271 532 q 215 463 229 493 q 194 392 200 433 z "},"ễ":{"ha":694,"x_min":58,"x_max":629,"o":"m 376 -15 q 249 7 307 -15 q 148 72 190 29 q 82 176 106 114 q 58 318 58 239 q 82 462 58 399 q 147 568 106 525 q 242 635 188 611 q 360 658 297 658 q 463 639 414 658 q 549 581 513 619 q 608 485 586 543 q 629 349 629 426 q 629 317 629 335 q 628 288 629 300 l 192 288 q 211 201 194 238 q 253 140 228 164 q 313 106 279 117 q 382 94 346 94 q 441 101 414 94 q 493 121 468 107 q 539 158 518 135 l 611 88 q 546 30 582 53 q 467 -4 510 7 q 376 -15 425 -15 m 194 392 l 494 392 q 485 460 494 431 q 456 510 475 489 q 411 541 438 531 q 353 551 385 551 q 297 542 322 551 q 250 513 271 532 q 215 463 229 493 q 194 392 200 433 z "},"ȅ":{"ha":694,"x_min":58,"x_max":629,"o":"m 376 -15 q 249 7 307 -15 q 148 72 190 29 q 82 176 106 114 q 58 318 58 239 q 82 462 58 399 q 147 568 106 525 q 242 635 188 611 q 360 658 297 658 q 463 639 414 658 q 549 581 513 619 q 608 485 586 543 q 629 349 629 426 q 629 317 629 335 q 628 288 629 300 l 192 288 q 211 201 194 238 q 253 140 228 164 q 313 106 279 117 q 382 94 346 94 q 441 101 414 94 q 493 121 468 107 q 539 158 518 135 l 611 88 q 546 30 582 53 q 467 -4 510 7 q 376 -15 425 -15 m 194 392 l 494 392 q 485 460 494 431 q 456 510 475 489 q 411 541 438 531 q 353 551 385 551 q 297 542 322 551 q 250 513 271 532 q 215 463 229 493 q 194 392 200 433 z "},"ë":{"ha":694,"x_min":58,"x_max":629,"o":"m 376 -15 q 249 7 307 -15 q 148 72 190 29 q 82 176 106 114 q 58 318 58 239 q 82 462 58 399 q 147 568 106 525 q 242 635 188 611 q 360 658 297 658 q 463 639 414 658 q 549 581 513 619 q 608 485 586 543 q 629 349 629 426 q 629 317 629 335 q 628 288 629 300 l 192 288 q 211 201 194 238 q 253 140 228 164 q 313 106 279 117 q 382 94 346 94 q 441 101 414 94 q 493 121 468 107 q 539 158 518 135 l 611 88 q 546 30 582 53 q 467 -4 510 7 q 376 -15 425 -15 m 194 392 l 494 392 q 485 460 494 431 q 456 510 475 489 q 411 541 438 531 q 353 551 385 551 q 297 542 322 551 q 250 513 271 532 q 215 463 229 493 q 194 392 200 433 z "},"ė":{"ha":694,"x_min":58,"x_max":629,"o":"m 376 -15 q 249 7 307 -15 q 148 72 190 29 q 82 176 106 114 q 58 318 58 239 q 82 462 58 399 q 147 568 106 525 q 242 635 188 611 q 360 658 297 658 q 463 639 414 658 q 549 581 513 619 q 608 485 586 543 q 629 349 629 426 q 629 317 629 335 q 628 288 629 300 l 192 288 q 211 201 194 238 q 253 140 228 164 q 313 106 279 117 q 382 94 346 94 q 441 101 414 94 q 493 121 468 107 q 539 158 518 135 l 611 88 q 546 30 582 53 q 467 -4 510 7 q 376 -15 425 -15 m 194 392 l 494 392 q 485 460 494 431 q 456 510 475 489 q 411 541 438 531 q 353 551 385 551 q 297 542 322 551 q 250 513 271 532 q 215 463 229 493 q 194 392 200 433 z "},"ẹ":{"ha":694,"x_min":58,"x_max":629,"o":"m 376 -15 q 249 7 307 -15 q 148 72 190 29 q 82 176 106 114 q 58 318 58 239 q 82 462 58 399 q 147 568 106 525 q 242 635 188 611 q 360 658 297 658 q 463 639 414 658 q 549 581 513 619 q 608 485 586 543 q 629 349 629 426 q 629 317 629 335 q 628 288 629 300 l 192 288 q 211 201 194 238 q 253 140 228 164 q 313 106 279 117 q 382 94 346 94 q 441 101 414 94 q 493 121 468 107 q 539 158 518 135 l 611 88 q 546 30 582 53 q 467 -4 510 7 q 376 -15 425 -15 m 194 392 l 494 392 q 485 460 494 431 q 456 510 475 489 q 411 541 438 531 q 353 551 385 551 q 297 542 322 551 q 250 513 271 532 q 215 463 229 493 q 194 392 200 433 z "},"è":{"ha":694,"x_min":58,"x_max":629,"o":"m 376 -15 q 249 7 307 -15 q 148 72 190 29 q 82 176 106 114 q 58 318 58 239 q 82 462 58 399 q 147 568 106 525 q 242 635 188 611 q 360 658 297 658 q 463 639 414 658 q 549 581 513 619 q 608 485 586 543 q 629 349 629 426 q 629 317 629 335 q 628 288 629 300 l 192 288 q 211 201 194 238 q 253 140 228 164 q 313 106 279 117 q 382 94 346 94 q 441 101 414 94 q 493 121 468 107 q 539 158 518 135 l 611 88 q 546 30 582 53 q 467 -4 510 7 q 376 -15 425 -15 m 194 392 l 494 392 q 485 460 494 431 q 456 510 475 489 q 411 541 438 531 q 353 551 385 551 q 297 542 322 551 q 250 513 271 532 q 215 463 229 493 q 194 392 200 433 z "},"ẻ":{"ha":694,"x_min":58,"x_max":629,"o":"m 376 -15 q 249 7 307 -15 q 148 72 190 29 q 82 176 106 114 q 58 318 58 239 q 82 462 58 399 q 147 568 106 525 q 242 635 188 611 q 360 658 297 658 q 463 639 414 658 q 549 581 513 619 q 608 485 586 543 q 629 349 629 426 q 629 317 629 335 q 628 288 629 300 l 192 288 q 211 201 194 238 q 253 140 228 164 q 313 106 279 117 q 382 94 346 94 q 441 101 414 94 q 493 121 468 107 q 539 158 518 135 l 611 88 q 546 30 582 53 q 467 -4 510 7 q 376 -15 425 -15 m 194 392 l 494 392 q 485 460 494 431 q 456 510 475 489 q 411 541 438 531 q 353 551 385 551 q 297 542 322 551 q 250 513 271 532 q 215 463 229 493 q 194 392 200 433 m 504 883 q 490 835 504 854 q 459 802 476 817 q 428 772 442 788 q 415 733 415 756 l 415 722 l 326 722 l 326 761 q 339 797 326 781 q 368 826 351 813 q 397 853 385 840 q 410 879 410 865 q 397 909 410 899 q 364 919 383 919 q 323 909 342 919 q 293 869 304 899 l 238 938 q 299 985 264 971 q 372 999 333 1000 q 440 984 410 999 q 487 944 469 969 q 504 883 504 918 z "},"ȇ":{"ha":694,"x_min":58,"x_max":629,"o":"m 376 -15 q 249 7 307 -15 q 148 72 190 29 q 82 176 106 114 q 58 318 58 239 q 82 462 58 399 q 147 568 106 525 q 242 635 188 611 q 360 658 297 658 q 463 639 414 658 q 549 581 513 619 q 608 485 586 543 q 629 349 629 426 q 629 317 629 335 q 628 288 629 300 l 192 288 q 211 201 194 238 q 253 140 228 164 q 313 106 279 117 q 382 94 346 94 q 441 101 414 94 q 493 121 468 107 q 539 158 518 135 l 611 88 q 546 30 582 53 q 467 -4 510 7 q 376 -15 425 -15 m 194 392 l 494 392 q 485 460 494 431 q 456 510 475 489 q 411 541 438 531 q 353 551 385 551 q 297 542 322 551 q 250 513 271 532 q 215 463 229 493 q 194 392 200 433 m 243 726 l 154 767 q 240 871 188 835 q 360 907 293 907 q 481 871 428 907 q 565 767 533 835 l 476 726 q 427 800 456 776 q 360 824 399 824 q 313 813 335 824 q 274 782 292 803 q 243 726 257 761 z "},"ē":{"ha":694,"x_min":58,"x_max":629,"o":"m 376 -15 q 249 7 307 -15 q 148 72 190 29 q 82 176 106 114 q 58 318 58 239 q 82 462 58 399 q 147 568 106 525 q 242 635 188 611 q 360 658 297 658 q 463 639 414 658 q 549 581 513 619 q 608 485 586 543 q 629 349 629 426 q 629 317 629 335 q 628 288 629 300 l 192 288 q 211 201 194 238 q 253 140 228 164 q 313 106 279 117 q 382 94 346 94 q 441 101 414 94 q 493 121 468 107 q 539 158 518 135 l 611 88 q 546 30 582 53 q 467 -4 510 7 q 376 -15 425 -15 m 194 392 l 494 392 q 485 460 494 431 q 456 510 475 489 q 411 541 438 531 q 353 551 385 551 q 297 542 322 551 q 250 513 271 532 q 215 463 229 493 q 194 392 200 433 z "},"ḗ":{"ha":694,"x_min":58,"x_max":629,"o":"m 376 -15 q 249 7 307 -15 q 148 72 190 29 q 82 176 106 114 q 58 318 58 239 q 82 462 58 399 q 147 568 106 525 q 242 635 188 611 q 360 658 297 658 q 463 639 414 658 q 549 581 513 619 q 608 485 586 543 q 629 349 629 426 q 629 317 629 335 q 628 288 629 300 l 192 288 q 211 201 194 238 q 253 140 228 164 q 313 106 279 117 q 382 94 346 94 q 441 101 414 94 q 493 121 468 107 q 539 158 518 135 l 611 88 q 546 30 582 53 q 467 -4 510 7 q 376 -15 425 -15 m 194 392 l 494 392 q 485 460 494 431 q 456 510 475 489 q 411 541 438 531 q 353 551 385 551 q 297 542 322 551 q 250 513 271 532 q 215 463 229 493 q 194 392 200 433 z "},"ḕ":{"ha":694,"x_min":58,"x_max":629,"o":"m 376 -15 q 249 7 307 -15 q 148 72 190 29 q 82 176 106 114 q 58 318 58 239 q 82 462 58 399 q 147 568 106 525 q 242 635 188 611 q 360 658 297 658 q 463 639 414 658 q 549 581 513 619 q 608 485 586 543 q 629 349 629 426 q 629 317 629 335 q 628 288 629 300 l 192 288 q 211 201 194 238 q 253 140 228 164 q 313 106 279 117 q 382 94 346 94 q 441 101 414 94 q 493 121 468 107 q 539 158 518 135 l 611 88 q 546 30 582 53 q 467 -4 510 7 q 376 -15 425 -15 m 194 392 l 494 392 q 485 460 494 431 q 456 510 475 489 q 411 541 438 531 q 353 551 385 551 q 297 542 322 551 q 250 513 271 532 q 215 463 229 493 q 194 392 200 433 z "},"ę":{"ha":694,"x_min":58,"x_max":629,"o":"m 376 -15 q 249 7 307 -15 q 148 72 190 29 q 82 176 106 114 q 58 318 58 239 q 82 462 58 399 q 147 568 106 525 q 242 635 188 611 q 360 658 297 658 q 463 639 414 658 q 549 581 513 619 q 608 485 586 543 q 629 349 629 426 q 629 317 629 335 q 628 288 629 300 l 192 288 q 211 201 194 238 q 253 140 228 164 q 313 106 279 117 q 382 94 346 94 q 441 101 414 94 q 493 121 468 107 q 539 158 518 135 l 611 88 q 546 30 582 53 q 467 -4 510 7 q 376 -15 425 -15 m 194 392 l 494 392 q 485 460 494 431 q 456 510 475 489 q 411 541 438 531 q 353 551 385 551 q 297 542 322 551 q 250 513 271 532 q 215 463 229 493 q 194 392 200 433 m 521 -201 l 472 -304 q 376 -270 415 -292 q 317 -221 338 -249 q 297 -160 297 -193 q 318 -87 297 -124 q 381 -14 339 -50 q 481 54 422 22 l 531 21 q 476 -31 499 -6 q 442 -81 454 -57 q 431 -125 431 -104 q 453 -172 431 -151 q 521 -201 475 -192 z "},"ʚ":{"ha":694,"x_min":49,"x_max":644,"o":"m 322 -19 q 172 8 233 -18 q 80 81 111 35 q 49 186 49 128 q 63 256 49 225 q 105 310 78 288 q 168 346 132 332 q 101 408 124 371 q 79 488 79 444 q 109 572 79 533 q 195 635 139 611 q 325 660 251 660 q 497 617 426 660 q 606 499 568 575 q 644 322 644 424 q 606 142 644 219 q 494 23 567 65 q 322 -19 422 -19 m 325 93 q 425 119 385 93 q 487 195 465 144 q 508 322 508 246 q 490 442 508 392 q 433 519 471 492 q 335 547 394 547 q 267 535 293 547 q 229 505 242 524 q 217 463 217 486 q 227 425 217 443 q 262 397 238 407 q 328 386 286 386 q 351 386 342 386 q 376 389 361 386 l 376 281 q 353 282 361 282 q 338 283 346 282 q 318 283 331 283 q 260 277 285 283 q 218 258 235 271 q 193 230 201 246 q 185 194 185 214 q 201 144 185 168 q 249 107 218 121 q 325 93 281 93 z "},"ẽ":{"ha":694,"x_min":58,"x_max":629,"o":"m 376 -15 q 249 7 307 -15 q 148 72 190 29 q 82 176 106 114 q 58 318 58 239 q 82 462 58 399 q 147 568 106 525 q 242 635 188 611 q 360 658 297 658 q 463 639 414 658 q 549 581 513 619 q 608 485 586 543 q 629 349 629 426 q 629 317 629 335 q 628 288 629 300 l 192 288 q 211 201 194 238 q 253 140 228 164 q 313 106 279 117 q 382 94 346 94 q 441 101 414 94 q 493 121 468 107 q 539 158 518 135 l 611 88 q 546 30 582 53 q 467 -4 510 7 q 376 -15 425 -15 m 194 392 l 494 392 q 485 460 494 431 q 456 510 475 489 q 411 541 438 531 q 353 551 385 551 q 297 542 322 551 q 250 513 271 532 q 215 463 229 493 q 194 392 200 433 m 519 932 l 597 890 q 537 807 568 832 q 463 782 506 782 q 399 794 425 782 q 355 822 374 806 q 319 851 336 839 q 279 864 301 864 q 238 847 257 864 q 204 797 219 831 l 125 833 q 183 921 146 890 q 275 951 219 951 q 334 940 310 951 q 377 911 358 928 q 415 883 396 894 q 456 871 433 871 q 491 885 478 871 q 519 932 504 900 z "},"ə":{"ha":694,"x_min":65,"x_max":636,"o":"m 318 657 q 446 635 388 657 q 547 572 504 614 q 613 467 589 529 q 636 325 636 404 q 613 181 636 244 q 548 74 589 118 q 453 8 507 31 q 335 -15 399 -15 q 231 4 281 -15 q 145 62 182 24 q 87 158 108 100 q 65 294 65 217 q 65 325 65 308 q 67 354 65 342 l 503 354 q 483 442 500 406 q 441 503 467 479 q 382 538 415 526 q 313 549 349 549 q 254 542 282 549 q 202 522 226 536 q 156 485 178 507 l 83 554 q 149 613 113 590 q 227 647 185 636 q 318 657 269 657 m 500 250 l 200 250 q 210 183 200 213 q 238 133 219 154 q 283 102 257 113 q 342 92 310 92 q 398 101 372 92 q 444 130 424 110 q 480 180 465 150 q 500 250 494 210 z "},"ƹ":{"ha":694,"x_min":92,"x_max":632,"o":"m 385 -247 q 228 -211 293 -247 q 127 -116 163 -175 q 92 15 92 -57 q 115 133 92 79 q 183 224 139 186 q 286 283 226 263 q 419 304 346 304 l 481 304 l 481 197 q 366 189 414 200 q 288 156 318 178 q 242 99 257 133 q 228 22 228 65 q 249 -60 228 -26 q 308 -112 271 -94 q 394 -131 346 -131 q 472 -119 440 -131 q 529 -83 504 -108 q 549 -56 544 -65 q 551 -36 553 -46 l 560 -26 l 569 -35 l 632 -140 q 524 -221 585 -194 q 385 -247 463 -247 l 385 -247 m 117 535 l 117 640 l 581 640 l 581 521 l 279 521 l 481 304 l 365 274 l 117 535 z "},"f":{"ha":694,"x_min":65,"x_max":671,"o":"m 203 533 l 65 533 l 65 643 l 203 643 l 203 686 q 238 828 203 772 q 332 912 274 885 q 460 939 390 939 q 578 917 524 939 q 671 850 632 894 l 613 754 l 606 743 l 596 749 q 588 771 593 760 q 567 797 583 782 q 521 822 543 815 q 467 829 499 829 q 399 815 428 829 q 355 769 371 800 q 339 686 339 738 l 339 643 l 539 643 l 539 533 l 339 533 l 339 0 l 203 0 l 203 533 z "},"g":{"ha":694,"x_min":44,"x_max":668,"o":"m 335 -244 q 214 -233 268 -244 q 122 -201 160 -222 q 64 -148 83 -179 q 44 -78 44 -117 q 61 -12 44 -42 q 106 38 78 17 q 167 71 133 60 l 228 43 q 189 15 206 29 q 163 -16 172 1 q 154 -57 154 -33 q 168 -93 154 -78 q 207 -118 182 -108 q 267 -133 232 -128 q 344 -139 301 -139 q 439 -128 401 -139 q 495 -99 476 -118 q 514 -54 514 -79 q 503 -15 514 -29 q 461 8 492 0 q 372 15 431 15 q 283 19 325 15 q 205 32 240 22 q 143 57 169 42 q 102 95 117 72 q 88 150 88 118 q 113 226 88 192 q 175 288 138 260 l 238 249 q 215 225 225 235 q 200 206 206 215 q 194 185 194 197 q 215 154 194 167 q 283 136 236 142 q 407 131 329 131 q 516 117 472 131 q 585 81 560 104 q 620 27 610 57 q 631 -39 631 -3 q 614 -115 631 -78 q 562 -181 597 -151 q 470 -227 526 -210 q 335 -244 414 -244 m 317 217 q 196 247 249 217 q 113 326 143 276 q 83 439 83 376 q 113 552 83 501 q 196 633 143 603 q 317 663 249 663 q 439 633 386 663 q 522 552 492 603 q 551 439 551 501 q 522 326 551 376 q 439 247 492 276 q 317 217 386 217 m 317 321 q 378 336 351 321 q 419 378 404 351 q 435 439 435 406 q 419 499 435 474 q 377 540 404 525 q 317 556 350 556 q 258 540 285 556 q 216 499 232 525 q 200 439 200 472 q 215 380 200 407 q 257 337 231 353 q 317 321 283 321 m 513 529 l 460 594 q 548 645 500 628 q 654 658 596 663 l 668 560 q 585 559 625 565 q 513 529 544 553 z "},"ğ":{"ha":694,"x_min":44,"x_max":668,"o":"m 335 -244 q 214 -233 268 -244 q 122 -201 160 -222 q 64 -148 83 -179 q 44 -78 44 -117 q 61 -12 44 -42 q 106 38 78 17 q 167 71 133 60 l 228 43 q 189 15 206 29 q 163 -16 172 1 q 154 -57 154 -33 q 168 -93 154 -78 q 207 -118 182 -108 q 267 -133 232 -128 q 344 -139 301 -139 q 439 -128 401 -139 q 495 -99 476 -118 q 514 -54 514 -79 q 503 -15 514 -29 q 461 8 492 0 q 372 15 431 15 q 283 19 325 15 q 205 32 240 22 q 143 57 169 42 q 102 95 117 72 q 88 150 88 118 q 113 226 88 192 q 175 288 138 260 l 238 249 q 215 225 225 235 q 200 206 206 215 q 194 185 194 197 q 215 154 194 167 q 283 136 236 142 q 407 131 329 131 q 516 117 472 131 q 585 81 560 104 q 620 27 610 57 q 631 -39 631 -3 q 614 -115 631 -78 q 562 -181 597 -151 q 470 -227 526 -210 q 335 -244 414 -244 m 317 217 q 196 247 249 217 q 113 326 143 276 q 83 439 83 376 q 113 552 83 501 q 196 633 143 603 q 317 663 249 663 q 439 633 386 663 q 522 552 492 603 q 551 439 551 501 q 522 326 551 376 q 439 247 492 276 q 317 217 386 217 m 317 321 q 378 336 351 321 q 419 378 404 351 q 435 439 435 406 q 419 499 435 474 q 377 540 404 525 q 317 556 350 556 q 258 540 285 556 q 216 499 232 525 q 200 439 200 472 q 215 380 200 407 q 257 337 231 353 q 317 321 283 321 m 513 529 l 460 594 q 548 645 500 628 q 654 658 596 663 l 668 560 q 585 559 625 565 q 513 529 544 553 m 360 722 q 248 749 304 722 q 138 835 192 776 l 211 924 q 280 851 240 876 q 363 826 319 826 q 442 849 401 826 q 519 924 482 871 l 576 838 q 513 776 549 801 q 438 736 476 750 q 360 722 399 722 z "},"ǧ":{"ha":694,"x_min":44,"x_max":668,"o":"m 335 -244 q 214 -233 268 -244 q 122 -201 160 -222 q 64 -148 83 -179 q 44 -78 44 -117 q 61 -12 44 -42 q 106 38 78 17 q 167 71 133 60 l 228 43 q 189 15 206 29 q 163 -16 172 1 q 154 -57 154 -33 q 168 -93 154 -78 q 207 -118 182 -108 q 267 -133 232 -128 q 344 -139 301 -139 q 439 -128 401 -139 q 495 -99 476 -118 q 514 -54 514 -79 q 503 -15 514 -29 q 461 8 492 0 q 372 15 431 15 q 283 19 325 15 q 205 32 240 22 q 143 57 169 42 q 102 95 117 72 q 88 150 88 118 q 113 226 88 192 q 175 288 138 260 l 238 249 q 215 225 225 235 q 200 206 206 215 q 194 185 194 197 q 215 154 194 167 q 283 136 236 142 q 407 131 329 131 q 516 117 472 131 q 585 81 560 104 q 620 27 610 57 q 631 -39 631 -3 q 614 -115 631 -78 q 562 -181 597 -151 q 470 -227 526 -210 q 335 -244 414 -244 m 317 217 q 196 247 249 217 q 113 326 143 276 q 83 439 83 376 q 113 552 83 501 q 196 633 143 603 q 317 663 249 663 q 439 633 386 663 q 522 552 492 603 q 551 439 551 501 q 522 326 551 376 q 439 247 492 276 q 317 217 386 217 m 317 321 q 378 336 351 321 q 419 378 404 351 q 435 439 435 406 q 419 499 435 474 q 377 540 404 525 q 317 556 350 556 q 258 540 285 556 q 216 499 232 525 q 200 439 200 472 q 215 380 200 407 q 257 337 231 353 q 317 321 283 321 m 513 529 l 460 594 q 548 645 500 628 q 654 658 596 663 l 668 560 q 585 559 625 565 q 513 529 544 553 m 161 969 l 315 824 l 469 969 l 538 910 l 338 717 l 293 717 l 93 910 l 161 969 z "},"ĝ":{"ha":694,"x_min":44,"x_max":668,"o":"m 335 -244 q 214 -233 268 -244 q 122 -201 160 -222 q 64 -148 83 -179 q 44 -78 44 -117 q 61 -12 44 -42 q 106 38 78 17 q 167 71 133 60 l 228 43 q 189 15 206 29 q 163 -16 172 1 q 154 -57 154 -33 q 168 -93 154 -78 q 207 -118 182 -108 q 267 -133 232 -128 q 344 -139 301 -139 q 439 -128 401 -139 q 495 -99 476 -118 q 514 -54 514 -79 q 503 -15 514 -29 q 461 8 492 0 q 372 15 431 15 q 283 19 325 15 q 205 32 240 22 q 143 57 169 42 q 102 95 117 72 q 88 150 88 118 q 113 226 88 192 q 175 288 138 260 l 238 249 q 215 225 225 235 q 200 206 206 215 q 194 185 194 197 q 215 154 194 167 q 283 136 236 142 q 407 131 329 131 q 516 117 472 131 q 585 81 560 104 q 620 27 610 57 q 631 -39 631 -3 q 614 -115 631 -78 q 562 -181 597 -151 q 470 -227 526 -210 q 335 -244 414 -244 m 317 217 q 196 247 249 217 q 113 326 143 276 q 83 439 83 376 q 113 552 83 501 q 196 633 143 603 q 317 663 249 663 q 439 633 386 663 q 522 552 492 603 q 551 439 551 501 q 522 326 551 376 q 439 247 492 276 q 317 217 386 217 m 317 321 q 378 336 351 321 q 419 378 404 351 q 435 439 435 406 q 419 499 435 474 q 377 540 404 525 q 317 556 350 556 q 258 540 285 556 q 216 499 232 525 q 200 439 200 472 q 215 380 200 407 q 257 337 231 353 q 317 321 283 321 m 513 529 l 460 594 q 548 645 500 628 q 654 658 596 663 l 668 560 q 585 559 625 565 q 513 529 544 553 m 164 697 l 96 758 l 296 951 l 340 951 l 540 758 l 472 697 l 318 843 l 164 697 z "},"ģ":{"ha":694,"x_min":44,"x_max":668,"o":"m 335 -244 q 214 -233 268 -244 q 122 -201 160 -222 q 64 -148 83 -179 q 44 -78 44 -117 q 61 -12 44 -42 q 106 38 78 17 q 167 71 133 60 l 228 43 q 189 15 206 29 q 163 -16 172 1 q 154 -57 154 -33 q 168 -93 154 -78 q 207 -118 182 -108 q 267 -133 232 -128 q 344 -139 301 -139 q 439 -128 401 -139 q 495 -99 476 -118 q 514 -54 514 -79 q 503 -15 514 -29 q 461 8 492 0 q 372 15 431 15 q 283 19 325 15 q 205 32 240 22 q 143 57 169 42 q 102 95 117 72 q 88 150 88 118 q 113 226 88 192 q 175 288 138 260 l 238 249 q 215 225 225 235 q 200 206 206 215 q 194 185 194 197 q 215 154 194 167 q 283 136 236 142 q 407 131 329 131 q 516 117 472 131 q 585 81 560 104 q 620 27 610 57 q 631 -39 631 -3 q 614 -115 631 -78 q 562 -181 597 -151 q 470 -227 526 -210 q 335 -244 414 -244 m 317 217 q 196 247 249 217 q 113 326 143 276 q 83 439 83 376 q 113 552 83 501 q 196 633 143 603 q 317 663 249 663 q 439 633 386 663 q 522 552 492 603 q 551 439 551 501 q 522 326 551 376 q 439 247 492 276 q 317 217 386 217 m 317 321 q 378 336 351 321 q 419 378 404 351 q 435 439 435 406 q 419 499 435 474 q 377 540 404 525 q 317 556 350 556 q 258 540 285 556 q 216 499 232 525 q 200 439 200 472 q 215 380 200 407 q 257 337 231 353 q 317 321 283 321 m 513 529 l 460 594 q 548 645 500 628 q 654 658 596 663 l 668 560 q 585 559 625 565 q 513 529 544 553 m 357 1135 l 431 1074 q 369 1000 392 1038 q 347 938 347 963 q 357 909 347 922 q 380 883 367 896 q 403 854 393 871 q 413 814 413 838 q 384 747 413 772 q 314 722 356 722 q 235 759 267 722 q 204 854 204 796 q 214 917 204 885 q 242 985 224 950 q 290 1058 261 1021 q 357 1135 318 1094 z "},"ġ":{"ha":694,"x_min":44,"x_max":668,"o":"m 335 -244 q 214 -233 268 -244 q 122 -201 160 -222 q 64 -148 83 -179 q 44 -78 44 -117 q 61 -12 44 -42 q 106 38 78 17 q 167 71 133 60 l 228 43 q 189 15 206 29 q 163 -16 172 1 q 154 -57 154 -33 q 168 -93 154 -78 q 207 -118 182 -108 q 267 -133 232 -128 q 344 -139 301 -139 q 439 -128 401 -139 q 495 -99 476 -118 q 514 -54 514 -79 q 503 -15 514 -29 q 461 8 492 0 q 372 15 431 15 q 283 19 325 15 q 205 32 240 22 q 143 57 169 42 q 102 95 117 72 q 88 150 88 118 q 113 226 88 192 q 175 288 138 260 l 238 249 q 215 225 225 235 q 200 206 206 215 q 194 185 194 197 q 215 154 194 167 q 283 136 236 142 q 407 131 329 131 q 516 117 472 131 q 585 81 560 104 q 620 27 610 57 q 631 -39 631 -3 q 614 -115 631 -78 q 562 -181 597 -151 q 470 -227 526 -210 q 335 -244 414 -244 m 317 217 q 196 247 249 217 q 113 326 143 276 q 83 439 83 376 q 113 552 83 501 q 196 633 143 603 q 317 663 249 663 q 439 633 386 663 q 522 552 492 603 q 551 439 551 501 q 522 326 551 376 q 439 247 492 276 q 317 217 386 217 m 317 321 q 378 336 351 321 q 419 378 404 351 q 435 439 435 406 q 419 499 435 474 q 377 540 404 525 q 317 556 350 556 q 258 540 285 556 q 216 499 232 525 q 200 439 200 472 q 215 380 200 407 q 257 337 231 353 q 317 321 283 321 m 513 529 l 460 594 q 548 645 500 628 q 654 658 596 663 l 668 560 q 585 559 625 565 q 513 529 544 553 z "},"ḡ":{"ha":694,"x_min":44,"x_max":668,"o":"m 335 -244 q 214 -233 268 -244 q 122 -201 160 -222 q 64 -148 83 -179 q 44 -78 44 -117 q 61 -12 44 -42 q 106 38 78 17 q 167 71 133 60 l 228 43 q 189 15 206 29 q 163 -16 172 1 q 154 -57 154 -33 q 168 -93 154 -78 q 207 -118 182 -108 q 267 -133 232 -128 q 344 -139 301 -139 q 439 -128 401 -139 q 495 -99 476 -118 q 514 -54 514 -79 q 503 -15 514 -29 q 461 8 492 0 q 372 15 431 15 q 283 19 325 15 q 205 32 240 22 q 143 57 169 42 q 102 95 117 72 q 88 150 88 118 q 113 226 88 192 q 175 288 138 260 l 238 249 q 215 225 225 235 q 200 206 206 215 q 194 185 194 197 q 215 154 194 167 q 283 136 236 142 q 407 131 329 131 q 516 117 472 131 q 585 81 560 104 q 620 27 610 57 q 631 -39 631 -3 q 614 -115 631 -78 q 562 -181 597 -151 q 470 -227 526 -210 q 335 -244 414 -244 m 317 217 q 196 247 249 217 q 113 326 143 276 q 83 439 83 376 q 113 552 83 501 q 196 633 143 603 q 317 663 249 663 q 439 633 386 663 q 522 552 492 603 q 551 439 551 501 q 522 326 551 376 q 439 247 492 276 q 317 217 386 217 m 317 321 q 378 336 351 321 q 419 378 404 351 q 435 439 435 406 q 419 499 435 474 q 377 540 404 525 q 317 556 350 556 q 258 540 285 556 q 216 499 232 525 q 200 439 200 472 q 215 380 200 407 q 257 337 231 353 q 317 321 283 321 m 513 529 l 460 594 q 548 645 500 628 q 654 658 596 663 l 668 560 q 585 559 625 565 q 513 529 544 553 z "},"h":{"ha":694,"x_min":85,"x_max":619,"o":"m 85 929 l 221 929 l 235 929 l 235 917 q 224 899 226 908 q 222 865 222 889 l 222 549 q 278 608 246 583 q 347 645 311 632 q 418 658 382 658 q 524 631 479 658 q 594 544 569 603 q 619 388 619 485 l 619 0 l 483 0 l 483 386 q 471 481 483 446 q 436 533 458 517 q 383 549 414 549 q 335 540 358 549 q 292 517 313 532 q 256 481 271 503 q 231 431 240 458 q 222 369 222 403 l 222 0 l 85 0 l 85 929 z "},"ħ":{"ha":694,"x_min":-3,"x_max":619,"o":"m 85 929 l 221 929 l 235 929 l 235 917 q 224 899 226 908 q 222 865 222 889 l 222 549 q 278 608 246 583 q 347 645 311 632 q 418 658 382 658 q 524 631 479 658 q 594 544 569 603 q 619 388 619 485 l 619 0 l 483 0 l 483 386 q 471 481 483 446 q 436 533 458 517 q 383 549 414 549 q 335 540 358 549 q 292 517 313 532 q 256 481 271 503 q 231 431 240 458 q 222 369 222 403 l 222 0 l 85 0 l 85 929 m -3 721 l -3 814 l 378 814 l 378 721 l -3 721 z "},"ḫ":{"ha":694,"x_min":85,"x_max":619,"o":"m 85 929 l 221 929 l 235 929 l 235 917 q 224 899 226 908 q 222 865 222 889 l 222 549 q 278 608 246 583 q 347 645 311 632 q 418 658 382 658 q 524 631 479 658 q 594 544 569 603 q 619 388 619 485 l 619 0 l 483 0 l 483 386 q 471 481 483 446 q 436 533 458 517 q 383 549 414 549 q 335 540 358 549 q 292 517 313 532 q 256 481 271 503 q 231 431 240 458 q 222 369 222 403 l 222 0 l 85 0 l 85 929 z "},"ĥ":{"ha":694,"x_min":-72,"x_max":619,"o":"m 85 929 l 221 929 l 235 929 l 235 917 q 224 899 226 908 q 222 865 222 889 l 222 549 q 278 608 246 583 q 347 645 311 632 q 418 658 382 658 q 524 631 479 658 q 594 544 569 603 q 619 388 619 485 l 619 0 l 483 0 l 483 386 q 471 481 483 446 q 436 533 458 517 q 383 549 414 549 q 335 540 358 549 q 292 517 313 532 q 256 481 271 503 q 231 431 240 458 q 222 369 222 403 l 222 0 l 85 0 l 85 929 m -24 968 l -72 1036 l 143 1171 l 182 1171 l 397 1038 l 349 968 l 164 1063 l -24 968 z "},"ḥ":{"ha":694,"x_min":85,"x_max":619,"o":"m 85 929 l 221 929 l 235 929 l 235 917 q 224 899 226 908 q 222 865 222 889 l 222 549 q 278 608 246 583 q 347 645 311 632 q 418 658 382 658 q 524 631 479 658 q 594 544 569 603 q 619 388 619 485 l 619 0 l 483 0 l 483 386 q 471 481 483 446 q 436 533 458 517 q 383 549 414 549 q 335 540 358 549 q 292 517 313 532 q 256 481 271 503 q 231 431 240 458 q 222 369 222 403 l 222 0 l 85 0 l 85 929 z "},"i":{"ha":694,"x_min":125,"x_max":569,"o":"m 125 0 l 125 110 l 285 110 l 285 533 l 132 533 l 132 643 l 424 643 l 424 110 l 569 110 l 569 0 l 125 0 z "},"ı":{"ha":694,"x_min":125,"x_max":569,"o":"m 125 0 l 125 110 l 285 110 l 285 533 l 132 533 l 132 643 l 424 643 l 424 110 l 569 110 l 569 0 l 125 0 z "},"í":{"ha":694,"x_min":125,"x_max":569,"o":"m 125 0 l 125 110 l 285 110 l 285 533 l 132 533 l 132 643 l 424 643 l 424 110 l 569 110 l 569 0 l 125 0 m 343 714 l 278 757 l 393 979 l 493 908 l 343 714 z "},"ĭ":{"ha":694,"x_min":125,"x_max":569,"o":"m 125 0 l 125 110 l 285 110 l 285 533 l 132 533 l 132 643 l 424 643 l 424 110 l 569 110 l 569 0 l 125 0 m 464 921 l 553 881 q 468 777 521 814 q 347 740 415 740 q 228 777 281 740 q 142 881 175 814 l 231 921 q 281 847 253 871 q 347 824 308 824 q 395 834 374 824 q 434 866 417 844 q 464 921 451 888 z "},"î":{"ha":694,"x_min":124,"x_max":569,"o":"m 125 0 l 125 110 l 285 110 l 285 533 l 132 533 l 132 643 l 424 643 l 424 110 l 569 110 l 569 0 l 125 0 m 192 697 l 124 758 l 324 951 l 368 951 l 568 758 l 500 697 l 346 843 l 192 697 z "},"ȉ":{"ha":694,"x_min":103,"x_max":569,"o":"m 125 0 l 125 110 l 285 110 l 285 533 l 132 533 l 132 643 l 424 643 l 424 110 l 569 110 l 569 0 l 125 0 z "},"ï":{"ha":694,"x_min":125,"x_max":569,"o":"m 125 0 l 125 110 l 285 110 l 285 533 l 132 533 l 132 643 l 424 643 l 424 110 l 569 110 l 569 0 l 125 0 m 213 769 q 151 794 176 769 q 126 851 126 818 q 151 910 126 885 q 213 935 176 935 q 273 909 249 935 q 297 851 297 883 q 272 794 297 818 q 213 769 246 769 m 465 769 q 404 793 429 769 q 379 851 379 817 q 404 910 379 886 q 465 935 429 935 q 525 909 501 935 q 549 851 549 883 q 524 794 549 818 q 465 769 499 769 z "},"ḯ":{"ha":694,"x_min":125,"x_max":569,"o":"m 125 0 l 125 110 l 285 110 l 285 533 l 132 533 l 132 643 l 424 643 l 424 110 l 569 110 l 569 0 l 125 0 z "},"ị":{"ha":694,"x_min":125,"x_max":569,"o":"m 125 0 l 125 110 l 285 110 l 285 533 l 132 533 l 132 643 l 424 643 l 424 110 l 569 110 l 569 0 l 125 0 z "},"ì":{"ha":694,"x_min":125,"x_max":569,"o":"m 125 0 l 125 110 l 285 110 l 285 533 l 132 533 l 132 643 l 424 643 l 424 110 l 569 110 l 569 0 l 125 0 z "},"ỉ":{"ha":694,"x_min":125,"x_max":569,"o":"m 125 0 l 125 110 l 285 110 l 285 533 l 132 533 l 132 643 l 424 643 l 424 110 l 569 110 l 569 0 l 125 0 m 492 883 q 478 835 492 854 q 447 802 464 817 q 416 772 429 788 q 403 733 403 756 l 403 722 l 314 722 l 314 761 q 326 797 314 781 q 356 826 339 813 q 385 853 372 840 q 397 879 397 865 q 384 909 397 899 q 351 919 371 919 q 310 909 329 919 q 281 869 292 899 l 225 938 q 286 985 251 971 q 360 999 321 1000 q 427 984 397 999 q 474 944 457 969 q 492 883 492 918 z "},"ȋ":{"ha":694,"x_min":125,"x_max":569,"o":"m 125 0 l 125 110 l 285 110 l 285 533 l 132 533 l 132 643 l 424 643 l 424 110 l 569 110 l 569 0 l 125 0 m 231 726 l 142 767 q 228 871 175 835 q 347 907 281 907 q 468 871 415 907 q 553 767 521 835 l 464 726 q 415 800 443 776 q 347 824 386 824 q 301 813 322 824 q 262 782 279 803 q 231 726 244 761 z "},"ī":{"ha":694,"x_min":125,"x_max":569,"o":"m 125 0 l 125 110 l 285 110 l 285 533 l 132 533 l 132 643 l 424 643 l 424 110 l 569 110 l 569 0 l 125 0 z "},"į":{"ha":694,"x_min":125,"x_max":571,"o":"m 125 0 l 125 110 l 285 110 l 285 533 l 132 533 l 132 643 l 424 643 l 424 110 l 569 110 l 569 0 l 125 0 m 561 -222 l 513 -325 q 417 -291 456 -312 q 358 -242 378 -269 q 338 -181 338 -214 q 358 -108 338 -144 q 421 -35 379 -71 q 521 33 463 1 l 571 0 q 517 -52 539 -26 q 483 -101 494 -78 q 471 -146 471 -125 q 493 -192 471 -172 q 561 -222 515 -212 z "},"ĩ":{"ha":694,"x_min":125,"x_max":569,"o":"m 125 0 l 125 110 l 285 110 l 285 533 l 132 533 l 132 643 l 424 643 l 424 110 l 569 110 l 569 0 l 125 0 m 478 932 l 551 896 q 496 815 526 840 q 429 790 465 790 q 381 801 403 790 q 342 828 360 813 q 309 854 325 843 q 278 865 293 865 q 244 851 260 865 q 218 808 229 836 l 144 844 q 197 922 161 893 q 267 950 232 950 q 316 939 293 950 q 358 913 339 928 q 394 888 378 899 q 425 876 411 876 q 453 889 440 876 q 478 932 465 901 z "},"j":{"ha":694,"x_min":54,"x_max":533,"o":"m 267 -243 q 149 -219 203 -243 q 54 -147 94 -194 l 131 -47 l 139 -36 l 149 -43 q 155 -65 151 -54 q 172 -93 158 -76 q 213 -118 190 -108 q 265 -128 236 -128 q 331 -112 304 -128 q 370 -62 357 -96 q 383 25 383 -28 l 383 532 l 154 532 l 154 643 l 524 643 l 524 36 q 488 -124 524 -62 q 393 -215 451 -186 q 267 -243 335 -243 l 267 -243 z "},"ȷ":{"ha":694,"x_min":54,"x_max":524,"o":"m 267 -243 q 149 -219 203 -243 q 54 -147 94 -194 l 131 -47 l 139 -36 l 149 -43 q 155 -65 151 -54 q 172 -93 158 -76 q 213 -118 190 -108 q 265 -128 236 -128 q 331 -112 304 -128 q 370 -62 357 -96 q 383 25 383 -28 l 383 532 l 154 532 l 154 643 l 524 643 l 524 36 q 488 -124 524 -62 q 393 -215 451 -186 q 267 -243 335 -243 l 267 -243 z "},"ĵ":{"ha":694,"x_min":54,"x_max":665,"o":"m 267 -243 q 149 -219 203 -243 q 54 -147 94 -194 l 131 -47 l 139 -36 l 149 -43 q 155 -65 151 -54 q 172 -93 158 -76 q 213 -118 190 -108 q 265 -128 236 -128 q 331 -112 304 -128 q 370 -62 357 -96 q 383 25 383 -28 l 383 532 l 154 532 l 154 643 l 524 643 l 524 36 q 488 -124 524 -62 q 393 -215 451 -186 q 267 -243 335 -243 l 267 -243 m 289 697 l 221 758 l 421 951 l 465 951 l 665 758 l 597 697 l 443 843 l 289 697 z "},"k":{"ha":694,"x_min":79,"x_max":676,"o":"m 282 301 l 218 242 l 218 0 l 79 0 l 79 929 l 217 929 l 231 929 l 231 917 q 220 899 222 908 q 218 865 218 889 l 218 389 l 490 647 q 511 643 500 644 q 534 641 522 642 q 557 640 546 640 q 576 639 568 639 l 639 639 l 379 386 l 676 0 l 515 -6 l 282 301 z "},"ķ":{"ha":694,"x_min":79,"x_max":676,"o":"m 282 301 l 218 242 l 218 0 l 79 0 l 79 929 l 217 929 l 231 929 l 231 917 q 220 899 222 908 q 218 865 218 889 l 218 389 l 490 647 q 511 643 500 644 q 534 641 522 642 q 557 640 546 640 q 576 639 568 639 l 639 639 l 379 386 l 676 0 l 515 -6 l 282 301 m 317 -401 l 251 -346 q 306 -280 285 -314 q 326 -224 326 -246 q 311 -190 326 -206 q 281 -158 296 -175 q 267 -112 267 -140 q 292 -53 267 -75 q 356 -31 318 -31 q 426 -63 399 -31 q 454 -149 454 -96 q 439 -226 454 -186 q 393 -310 424 -267 q 317 -401 363 -353 z "},"ĸ":{"ha":694,"x_min":79,"x_max":676,"o":"m 282 301 l 218 242 l 218 0 l 79 0 l 79 643 l 217 643 l 231 643 l 231 631 q 220 613 222 622 q 218 579 218 603 l 218 389 l 490 647 q 511 643 500 644 q 534 641 522 642 q 557 640 546 640 q 576 639 568 639 l 639 639 l 379 386 l 676 0 l 515 -6 l 282 301 z "},"l":{"ha":694,"x_min":94,"x_max":600,"o":"m 94 0 l 94 110 l 278 110 l 278 819 l 103 819 l 103 929 l 418 929 l 418 110 l 600 110 l 600 0 l 94 0 z "},"ĺ":{"ha":694,"x_min":94,"x_max":600,"o":"m 94 0 l 94 110 l 278 110 l 278 819 l 103 819 l 103 929 l 418 929 l 418 110 l 600 110 l 600 0 l 94 0 z "},"ľ":{"ha":694,"x_min":94,"x_max":665,"o":"m 94 0 l 94 110 l 278 110 l 278 819 l 103 819 l 103 929 l 418 929 l 418 110 l 600 110 l 600 0 l 94 0 m 533 615 l 467 674 q 506 714 489 694 q 531 751 522 733 q 540 781 540 768 q 533 799 540 790 q 515 817 525 808 q 497 838 504 826 q 489 865 489 850 q 513 922 489 900 q 572 944 536 944 q 637 915 608 944 q 665 840 665 886 q 651 774 665 810 q 607 699 636 739 q 533 615 578 660 z "},"ļ":{"ha":694,"x_min":94,"x_max":600,"o":"m 94 0 l 94 110 l 278 110 l 278 819 l 103 819 l 103 929 l 418 929 l 418 110 l 600 110 l 600 0 l 94 0 m 317 -401 l 251 -346 q 306 -280 285 -314 q 326 -224 326 -246 q 311 -190 326 -206 q 281 -158 296 -175 q 267 -112 267 -140 q 292 -53 267 -75 q 356 -31 318 -31 q 426 -63 399 -31 q 454 -149 454 -96 q 439 -226 454 -186 q 393 -310 424 -267 q 317 -401 363 -353 z "},"ŀ":{"ha":694,"x_min":85,"x_max":644,"o":"m 85 0 l 85 110 l 236 110 l 236 824 l 93 824 l 93 933 l 376 933 l 376 110 l 583 110 l 583 0 l 85 0 m 546 365 q 476 393 504 365 q 447 461 447 421 q 476 531 447 503 q 546 558 506 558 q 615 530 585 558 q 644 463 644 501 q 615 394 644 422 q 546 365 586 365 z "},"ḷ":{"ha":694,"x_min":94,"x_max":600,"o":"m 94 0 l 94 110 l 278 110 l 278 819 l 103 819 l 103 929 l 418 929 l 418 110 l 600 110 l 600 0 l 94 0 z "},"ǉ":{"ha":694,"x_min":32,"x_max":629,"o":"m 357 -244 q 263 -226 306 -244 q 186 -169 219 -207 l 260 -60 q 269 -70 267 -64 q 273 -83 271 -76 q 283 -98 275 -90 q 311 -115 292 -106 q 335 -124 322 -119 q 363 -128 347 -128 q 422 -112 396 -128 q 464 -62 449 -96 q 479 26 479 -28 l 479 532 l 319 532 l 319 643 l 617 643 l 617 32 q 597 -94 617 -42 q 541 -178 576 -146 q 458 -227 506 -211 q 357 -244 411 -243 m 32 0 l 32 110 l 107 110 l 107 824 l 40 824 l 40 933 l 244 933 l 244 110 l 392 110 l 392 0 l 32 0 m 539 758 q 476 784 503 758 q 450 844 450 810 q 475 907 450 882 q 539 932 500 932 q 602 906 575 932 q 629 844 629 879 q 602 784 629 810 q 539 758 575 758 z "},"ḻ":{"ha":694,"x_min":94,"x_max":600,"o":"m 94 0 l 94 110 l 278 110 l 278 819 l 103 819 l 103 929 l 418 929 l 418 110 l 600 110 l 600 0 l 94 0 z "},"ł":{"ha":694,"x_min":99,"x_max":597,"o":"m 99 0 l 99 110 l 278 110 l 278 364 l 175 328 l 175 454 l 278 489 l 278 819 l 107 819 l 107 929 l 418 929 l 418 538 l 538 578 l 538 450 l 418 408 l 418 110 l 597 110 l 597 0 l 99 0 z "},"m":{"ha":694,"x_min":46,"x_max":661,"o":"m 46 0 l 46 643 l 164 643 l 164 590 q 198 627 179 613 q 238 650 217 642 q 282 658 260 658 q 329 649 307 658 q 368 621 351 639 q 393 574 385 603 q 427 619 407 601 q 474 648 447 638 q 532 658 501 658 q 590 645 565 658 q 630 609 614 632 q 653 553 646 586 q 660 481 661 521 l 660 0 l 539 0 l 539 444 q 533 517 539 493 q 517 549 528 540 q 493 557 507 557 q 453 538 472 557 q 423 488 435 519 q 411 417 411 456 l 411 0 l 294 0 l 294 439 q 283 535 294 511 q 242 558 271 558 q 215 549 228 558 q 190 523 201 540 q 173 481 179 506 q 167 422 167 456 l 167 0 l 46 0 z "},"ṃ":{"ha":694,"x_min":46,"x_max":661,"o":"m 46 0 l 46 643 l 164 643 l 164 590 q 198 627 179 613 q 238 650 217 642 q 282 658 260 658 q 329 649 307 658 q 368 621 351 639 q 393 574 385 603 q 427 619 407 601 q 474 648 447 638 q 532 658 501 658 q 590 645 565 658 q 630 609 614 632 q 653 553 646 586 q 660 481 661 521 l 660 0 l 539 0 l 539 444 q 533 517 539 493 q 517 549 528 540 q 493 557 507 557 q 453 538 472 557 q 423 488 435 519 q 411 417 411 456 l 411 0 l 294 0 l 294 439 q 283 535 294 511 q 242 558 271 558 q 215 549 228 558 q 190 523 201 540 q 173 481 179 506 q 167 422 167 456 l 167 0 l 46 0 z "},"n":{"ha":694,"x_min":83,"x_max":619,"o":"m 83 0 l 83 643 l 222 643 l 222 544 q 275 604 246 579 q 340 644 304 629 q 418 658 376 658 q 518 631 472 658 q 592 544 564 603 q 619 388 619 485 l 619 0 l 482 0 l 482 386 q 469 479 482 443 q 434 532 457 515 q 379 549 411 549 q 324 536 351 549 q 273 502 296 524 q 236 449 250 481 q 222 379 222 418 l 222 0 l 83 0 z "},"ń":{"ha":694,"x_min":83,"x_max":619,"o":"m 83 0 l 83 643 l 222 643 l 222 544 q 275 604 246 579 q 340 644 304 629 q 418 658 376 658 q 518 631 472 658 q 592 544 564 603 q 619 388 619 485 l 619 0 l 482 0 l 482 386 q 469 479 482 443 q 434 532 457 515 q 379 549 411 549 q 324 536 351 549 q 273 502 296 524 q 236 449 250 481 q 222 379 222 418 l 222 0 l 83 0 z "},"ň":{"ha":694,"x_min":83,"x_max":619,"o":"m 83 0 l 83 643 l 222 643 l 222 544 q 275 604 246 579 q 340 644 304 629 q 418 658 376 658 q 518 631 472 658 q 592 544 564 603 q 619 388 619 485 l 619 0 l 482 0 l 482 386 q 469 479 482 443 q 434 532 457 515 q 379 549 411 549 q 324 536 351 549 q 273 502 296 524 q 236 449 250 481 q 222 379 222 418 l 222 0 l 83 0 m 207 969 l 361 824 l 515 969 l 583 910 l 383 717 l 339 717 l 139 910 l 207 969 z "},"ņ":{"ha":694,"x_min":83,"x_max":619,"o":"m 83 0 l 83 643 l 222 643 l 222 544 q 275 604 246 579 q 340 644 304 629 q 418 658 376 658 q 518 631 472 658 q 592 544 564 603 q 619 388 619 485 l 619 0 l 482 0 l 482 386 q 469 479 482 443 q 434 532 457 515 q 379 549 411 549 q 324 536 351 549 q 273 502 296 524 q 236 449 250 481 q 222 379 222 418 l 222 0 l 83 0 m 331 -401 l 265 -346 q 319 -280 299 -314 q 340 -224 340 -246 q 325 -190 340 -206 q 295 -158 310 -175 q 281 -112 281 -140 q 306 -53 281 -75 q 369 -31 332 -31 q 440 -63 413 -31 q 468 -149 468 -96 q 453 -226 468 -186 q 407 -310 438 -267 q 331 -401 376 -353 z "},"ṅ":{"ha":694,"x_min":83,"x_max":619,"o":"m 83 0 l 83 643 l 222 643 l 222 544 q 275 604 246 579 q 340 644 304 629 q 418 658 376 658 q 518 631 472 658 q 592 544 564 603 q 619 388 619 485 l 619 0 l 482 0 l 482 386 q 469 479 482 443 q 434 532 457 515 q 379 549 411 549 q 324 536 351 549 q 273 502 296 524 q 236 449 250 481 q 222 379 222 418 l 222 0 l 83 0 z "},"ṇ":{"ha":694,"x_min":83,"x_max":619,"o":"m 83 0 l 83 643 l 222 643 l 222 544 q 275 604 246 579 q 340 644 304 629 q 418 658 376 658 q 518 631 472 658 q 592 544 564 603 q 619 388 619 485 l 619 0 l 482 0 l 482 386 q 469 479 482 443 q 434 532 457 515 q 379 549 411 549 q 324 536 351 549 q 273 502 296 524 q 236 449 250 481 q 222 379 222 418 l 222 0 l 83 0 z "},"ŋ":{"ha":694,"x_min":81,"x_max":619,"o":"m 369 -247 q 290 -233 331 -247 q 217 -190 250 -218 l 275 -76 q 285 -85 282 -78 q 297 -102 289 -93 q 320 -118 304 -111 q 367 -125 336 -125 q 433 -105 407 -125 q 472 -43 458 -85 q 485 61 485 -1 l 485 389 q 476 460 485 431 q 453 508 468 490 q 419 535 438 526 q 376 544 400 544 q 328 536 351 544 q 285 513 306 528 q 251 477 265 499 q 228 429 236 456 q 219 372 219 403 l 219 0 l 81 0 l 81 643 l 219 643 l 219 544 q 258 590 236 569 q 306 626 281 611 q 359 649 332 640 q 414 657 386 657 q 494 642 457 657 q 560 597 532 628 q 604 514 589 565 q 619 390 619 463 l 619 75 q 600 -71 619 -10 q 547 -171 581 -132 q 467 -228 513 -210 q 369 -247 421 -247 z "},"ṉ":{"ha":694,"x_min":83,"x_max":619,"o":"m 83 0 l 83 643 l 222 643 l 222 544 q 275 604 246 579 q 340 644 304 629 q 418 658 376 658 q 518 631 472 658 q 592 544 564 603 q 619 388 619 485 l 619 0 l 482 0 l 482 386 q 469 479 482 443 q 434 532 457 515 q 379 549 411 549 q 324 536 351 549 q 273 502 296 524 q 236 449 250 481 q 222 379 222 418 l 222 0 l 83 0 z "},"ñ":{"ha":694,"x_min":83,"x_max":619,"o":"m 83 0 l 83 643 l 222 643 l 222 544 q 275 604 246 579 q 340 644 304 629 q 418 658 376 658 q 518 631 472 658 q 592 544 564 603 q 619 388 619 485 l 619 0 l 482 0 l 482 386 q 469 479 482 443 q 434 532 457 515 q 379 549 411 549 q 324 536 351 549 q 273 502 296 524 q 236 449 250 481 q 222 379 222 418 l 222 0 l 83 0 m 524 932 l 601 890 q 541 807 572 832 q 467 782 510 782 q 403 794 429 782 q 359 822 378 806 q 323 851 340 839 q 283 864 306 864 q 242 847 261 864 q 208 797 224 831 l 129 833 q 187 921 150 890 q 279 951 224 951 q 338 940 314 951 q 381 911 363 928 q 419 883 400 894 q 460 871 438 871 q 495 885 482 871 q 524 932 508 900 z "},"o":{"ha":694,"x_min":43,"x_max":651,"o":"m 347 -14 q 192 28 260 -14 q 83 147 124 71 q 43 321 43 222 q 83 494 43 418 q 192 613 124 569 q 347 657 260 657 q 502 613 433 657 q 611 494 571 569 q 651 321 651 418 q 611 148 651 224 q 502 29 571 72 q 347 -14 433 -14 m 347 99 q 431 127 394 99 q 489 206 468 156 q 510 322 510 256 q 489 440 510 390 q 431 518 468 490 q 347 546 394 546 q 263 518 300 546 q 206 440 226 490 q 185 322 185 390 q 206 206 185 256 q 263 127 226 156 q 347 99 300 99 z "},"ó":{"ha":694,"x_min":43,"x_max":651,"o":"m 347 -14 q 192 28 260 -14 q 83 147 124 71 q 43 321 43 222 q 83 494 43 418 q 192 613 124 569 q 347 657 260 657 q 502 613 433 657 q 611 494 571 569 q 651 321 651 418 q 611 148 651 224 q 502 29 571 72 q 347 -14 433 -14 m 347 99 q 431 127 394 99 q 489 206 468 156 q 510 322 510 256 q 489 440 510 390 q 431 518 468 490 q 347 546 394 546 q 263 518 300 546 q 206 440 226 490 q 185 322 185 390 q 206 206 185 256 q 263 127 226 156 q 347 99 300 99 z "},"ŏ":{"ha":694,"x_min":43,"x_max":651,"o":"m 347 -14 q 192 28 260 -14 q 83 147 124 71 q 43 321 43 222 q 83 494 43 418 q 192 613 124 569 q 347 657 260 657 q 502 613 433 657 q 611 494 571 569 q 651 321 651 418 q 611 148 651 224 q 502 29 571 72 q 347 -14 433 -14 m 347 99 q 431 127 394 99 q 489 206 468 156 q 510 322 510 256 q 489 440 510 390 q 431 518 468 490 q 347 546 394 546 q 263 518 300 546 q 206 440 226 490 q 185 322 185 390 q 206 206 185 256 q 263 127 226 156 q 347 99 300 99 m 464 921 l 553 881 q 468 777 521 814 q 347 740 415 740 q 228 777 281 740 q 142 881 175 814 l 231 921 q 281 847 253 871 q 347 824 308 824 q 395 834 374 824 q 434 866 417 844 q 464 921 451 888 z "},"ô":{"ha":694,"x_min":43,"x_max":651,"o":"m 347 -14 q 192 28 260 -14 q 83 147 124 71 q 43 321 43 222 q 83 494 43 418 q 192 613 124 569 q 347 657 260 657 q 502 613 433 657 q 611 494 571 569 q 651 321 651 418 q 611 148 651 224 q 502 29 571 72 q 347 -14 433 -14 m 347 99 q 431 127 394 99 q 489 206 468 156 q 510 322 510 256 q 489 440 510 390 q 431 518 468 490 q 347 546 394 546 q 263 518 300 546 q 206 440 226 490 q 185 322 185 390 q 206 206 185 256 q 263 127 226 156 q 347 99 300 99 m 193 697 l 125 758 l 325 951 l 369 951 l 569 758 l 501 697 l 347 843 l 193 697 z "},"ố":{"ha":694,"x_min":43,"x_max":692,"o":"m 347 -14 q 192 28 260 -14 q 83 147 124 71 q 43 321 43 222 q 83 494 43 418 q 192 613 124 569 q 347 657 260 657 q 502 613 433 657 q 611 494 571 569 q 651 321 651 418 q 611 148 651 224 q 502 29 571 72 q 347 -14 433 -14 m 347 99 q 431 127 394 99 q 489 206 468 156 q 510 322 510 256 q 489 440 510 390 q 431 518 468 490 q 347 546 394 546 q 263 518 300 546 q 206 440 226 490 q 185 322 185 390 q 206 206 185 256 q 263 127 226 156 q 347 99 300 99 z "},"ộ":{"ha":694,"x_min":43,"x_max":651,"o":"m 347 -14 q 192 28 260 -14 q 83 147 124 71 q 43 321 43 222 q 83 494 43 418 q 192 613 124 569 q 347 657 260 657 q 502 613 433 657 q 611 494 571 569 q 651 321 651 418 q 611 148 651 224 q 502 29 571 72 q 347 -14 433 -14 m 347 99 q 431 127 394 99 q 489 206 468 156 q 510 322 510 256 q 489 440 510 390 q 431 518 468 490 q 347 546 394 546 q 263 518 300 546 q 206 440 226 490 q 185 322 185 390 q 206 206 185 256 q 263 127 226 156 q 347 99 300 99 m 193 697 l 125 758 l 325 951 l 369 951 l 569 758 l 501 697 l 347 843 l 193 697 z "},"ồ":{"ha":694,"x_min":43,"x_max":651,"o":"m 347 -14 q 192 28 260 -14 q 83 147 124 71 q 43 321 43 222 q 83 494 43 418 q 192 613 124 569 q 347 657 260 657 q 502 613 433 657 q 611 494 571 569 q 651 321 651 418 q 611 148 651 224 q 502 29 571 72 q 347 -14 433 -14 m 347 99 q 431 127 394 99 q 489 206 468 156 q 510 322 510 256 q 489 440 510 390 q 431 518 468 490 q 347 546 394 546 q 263 518 300 546 q 206 440 226 490 q 185 322 185 390 q 206 206 185 256 q 263 127 226 156 q 347 99 300 99 z "},"ổ":{"ha":694,"x_min":43,"x_max":668,"o":"m 347 -14 q 192 28 260 -14 q 83 147 124 71 q 43 321 43 222 q 83 494 43 418 q 192 613 124 569 q 347 657 260 657 q 502 613 433 657 q 611 494 571 569 q 651 321 651 418 q 611 148 651 224 q 502 29 571 72 q 347 -14 433 -14 m 347 99 q 431 127 394 99 q 489 206 468 156 q 510 322 510 256 q 489 440 510 390 q 431 518 468 490 q 347 546 394 546 q 263 518 300 546 q 206 440 226 490 q 185 322 185 390 q 206 206 185 256 q 263 127 226 156 q 347 99 300 99 z "},"ỗ":{"ha":694,"x_min":43,"x_max":651,"o":"m 347 -14 q 192 28 260 -14 q 83 147 124 71 q 43 321 43 222 q 83 494 43 418 q 192 613 124 569 q 347 657 260 657 q 502 613 433 657 q 611 494 571 569 q 651 321 651 418 q 611 148 651 224 q 502 29 571 72 q 347 -14 433 -14 m 347 99 q 431 127 394 99 q 489 206 468 156 q 510 322 510 256 q 489 440 510 390 q 431 518 468 490 q 347 546 394 546 q 263 518 300 546 q 206 440 226 490 q 185 322 185 390 q 206 206 185 256 q 263 127 226 156 q 347 99 300 99 z "},"ȍ":{"ha":694,"x_min":43,"x_max":651,"o":"m 347 -14 q 192 28 260 -14 q 83 147 124 71 q 43 321 43 222 q 83 494 43 418 q 192 613 124 569 q 347 657 260 657 q 502 613 433 657 q 611 494 571 569 q 651 321 651 418 q 611 148 651 224 q 502 29 571 72 q 347 -14 433 -14 m 347 99 q 431 127 394 99 q 489 206 468 156 q 510 322 510 256 q 489 440 510 390 q 431 518 468 490 q 347 546 394 546 q 263 518 300 546 q 206 440 226 490 q 185 322 185 390 q 206 206 185 256 q 263 127 226 156 q 347 99 300 99 z "},"ö":{"ha":694,"x_min":43,"x_max":651,"o":"m 347 -14 q 192 28 260 -14 q 83 147 124 71 q 43 321 43 222 q 83 494 43 418 q 192 613 124 569 q 347 657 260 657 q 502 613 433 657 q 611 494 571 569 q 651 321 651 418 q 611 148 651 224 q 502 29 571 72 q 347 -14 433 -14 m 347 99 q 431 127 394 99 q 489 206 468 156 q 510 322 510 256 q 489 440 510 390 q 431 518 468 490 q 347 546 394 546 q 263 518 300 546 q 206 440 226 490 q 185 322 185 390 q 206 206 185 256 q 263 127 226 156 q 347 99 300 99 z "},"ȫ":{"ha":694,"x_min":43,"x_max":651,"o":"m 347 -14 q 192 28 260 -14 q 83 147 124 71 q 43 321 43 222 q 83 494 43 418 q 192 613 124 569 q 347 657 260 657 q 502 613 433 657 q 611 494 571 569 q 651 321 651 418 q 611 148 651 224 q 502 29 571 72 q 347 -14 433 -14 m 347 99 q 431 127 394 99 q 489 206 468 156 q 510 322 510 256 q 489 440 510 390 q 431 518 468 490 q 347 546 394 546 q 263 518 300 546 q 206 440 226 490 q 185 322 185 390 q 206 206 185 256 q 263 127 226 156 q 347 99 300 99 z "},"ȱ":{"ha":694,"x_min":43,"x_max":651,"o":"m 347 -14 q 192 28 260 -14 q 83 147 124 71 q 43 321 43 222 q 83 494 43 418 q 192 613 124 569 q 347 657 260 657 q 502 613 433 657 q 611 494 571 569 q 651 321 651 418 q 611 148 651 224 q 502 29 571 72 q 347 -14 433 -14 m 347 99 q 431 127 394 99 q 489 206 468 156 q 510 322 510 256 q 489 440 510 390 q 431 518 468 490 q 347 546 394 546 q 263 518 300 546 q 206 440 226 490 q 185 322 185 390 q 206 206 185 256 q 263 127 226 156 q 347 99 300 99 z "},"ọ":{"ha":694,"x_min":43,"x_max":651,"o":"m 347 -14 q 192 28 260 -14 q 83 147 124 71 q 43 321 43 222 q 83 494 43 418 q 192 613 124 569 q 347 657 260 657 q 502 613 433 657 q 611 494 571 569 q 651 321 651 418 q 611 148 651 224 q 502 29 571 72 q 347 -14 433 -14 m 347 99 q 431 127 394 99 q 489 206 468 156 q 510 322 510 256 q 489 440 510 390 q 431 518 468 490 q 347 546 394 546 q 263 518 300 546 q 206 440 226 490 q 185 322 185 390 q 206 206 185 256 q 263 127 226 156 q 347 99 300 99 z "},"ò":{"ha":694,"x_min":43,"x_max":651,"o":"m 347 -14 q 192 28 260 -14 q 83 147 124 71 q 43 321 43 222 q 83 494 43 418 q 192 613 124 569 q 347 657 260 657 q 502 613 433 657 q 611 494 571 569 q 651 321 651 418 q 611 148 651 224 q 502 29 571 72 q 347 -14 433 -14 m 347 99 q 431 127 394 99 q 489 206 468 156 q 510 322 510 256 q 489 440 510 390 q 431 518 468 490 q 347 546 394 546 q 263 518 300 546 q 206 440 226 490 q 185 322 185 390 q 206 206 185 256 q 263 127 226 156 q 347 99 300 99 z "},"ỏ":{"ha":694,"x_min":43,"x_max":651,"o":"m 347 -14 q 192 28 260 -14 q 83 147 124 71 q 43 321 43 222 q 83 494 43 418 q 192 613 124 569 q 347 657 260 657 q 502 613 433 657 q 611 494 571 569 q 651 321 651 418 q 611 148 651 224 q 502 29 571 72 q 347 -14 433 -14 m 347 99 q 431 127 394 99 q 489 206 468 156 q 510 322 510 256 q 489 440 510 390 q 431 518 468 490 q 347 546 394 546 q 263 518 300 546 q 206 440 226 490 q 185 322 185 390 q 206 206 185 256 q 263 127 226 156 q 347 99 300 99 m 492 883 q 478 835 492 854 q 447 802 464 817 q 416 772 429 788 q 403 733 403 756 l 403 722 l 314 722 l 314 761 q 326 797 314 781 q 356 826 339 813 q 385 853 372 840 q 397 879 397 865 q 384 909 397 899 q 351 919 371 919 q 310 909 329 919 q 281 869 292 899 l 225 938 q 286 985 251 971 q 360 999 321 1000 q 427 984 397 999 q 474 944 457 969 q 492 883 492 918 z "},"ơ":{"ha":694,"x_min":43,"x_max":651,"o":"m 347 -14 q 192 28 260 -14 q 83 147 124 71 q 43 321 43 222 q 83 494 43 418 q 192 613 124 569 q 347 657 260 657 q 502 613 433 657 q 611 494 571 569 q 651 321 651 418 q 611 148 651 224 q 502 29 571 72 q 347 -14 433 -14 m 347 99 q 431 127 394 99 q 489 206 468 156 q 510 322 510 256 q 489 440 510 390 q 431 518 468 490 q 347 546 394 546 q 263 518 300 546 q 206 440 226 490 q 185 322 185 390 q 206 206 185 256 q 263 127 226 156 q 347 99 300 99 m 638 739 q 623 611 638 658 q 576 544 608 564 q 493 525 544 525 l 493 613 q 519 640 511 613 q 528 739 528 668 l 638 739 z "},"ớ":{"ha":694,"x_min":43,"x_max":651,"o":"m 347 -14 q 192 28 260 -14 q 83 147 124 71 q 43 321 43 222 q 83 494 43 418 q 192 613 124 569 q 347 657 260 657 q 502 613 433 657 q 611 494 571 569 q 651 321 651 418 q 611 148 651 224 q 502 29 571 72 q 347 -14 433 -14 m 347 99 q 431 127 394 99 q 489 206 468 156 q 510 322 510 256 q 489 440 510 390 q 431 518 468 490 q 347 546 394 546 q 263 518 300 546 q 206 440 226 490 q 185 322 185 390 q 206 206 185 256 q 263 127 226 156 q 347 99 300 99 m 638 739 q 623 611 638 658 q 576 544 608 564 q 493 525 544 525 l 493 613 q 519 640 511 613 q 528 739 528 668 l 638 739 z "},"ợ":{"ha":694,"x_min":43,"x_max":651,"o":"m 347 -14 q 192 28 260 -14 q 83 147 124 71 q 43 321 43 222 q 83 494 43 418 q 192 613 124 569 q 347 657 260 657 q 502 613 433 657 q 611 494 571 569 q 651 321 651 418 q 611 148 651 224 q 502 29 571 72 q 347 -14 433 -14 m 347 99 q 431 127 394 99 q 489 206 468 156 q 510 322 510 256 q 489 440 510 390 q 431 518 468 490 q 347 546 394 546 q 263 518 300 546 q 206 440 226 490 q 185 322 185 390 q 206 206 185 256 q 263 127 226 156 q 347 99 300 99 m 638 739 q 623 611 638 658 q 576 544 608 564 q 493 525 544 525 l 493 613 q 519 640 511 613 q 528 739 528 668 l 638 739 z "},"ờ":{"ha":694,"x_min":43,"x_max":651,"o":"m 347 -14 q 192 28 260 -14 q 83 147 124 71 q 43 321 43 222 q 83 494 43 418 q 192 613 124 569 q 347 657 260 657 q 502 613 433 657 q 611 494 571 569 q 651 321 651 418 q 611 148 651 224 q 502 29 571 72 q 347 -14 433 -14 m 347 99 q 431 127 394 99 q 489 206 468 156 q 510 322 510 256 q 489 440 510 390 q 431 518 468 490 q 347 546 394 546 q 263 518 300 546 q 206 440 226 490 q 185 322 185 390 q 206 206 185 256 q 263 127 226 156 q 347 99 300 99 m 638 739 q 623 611 638 658 q 576 544 608 564 q 493 525 544 525 l 493 613 q 519 640 511 613 q 528 739 528 668 l 638 739 z "},"ở":{"ha":694,"x_min":43,"x_max":651,"o":"m 347 -14 q 192 28 260 -14 q 83 147 124 71 q 43 321 43 222 q 83 494 43 418 q 192 613 124 569 q 347 657 260 657 q 502 613 433 657 q 611 494 571 569 q 651 321 651 418 q 611 148 651 224 q 502 29 571 72 q 347 -14 433 -14 m 347 99 q 431 127 394 99 q 489 206 468 156 q 510 322 510 256 q 489 440 510 390 q 431 518 468 490 q 347 546 394 546 q 263 518 300 546 q 206 440 226 490 q 185 322 185 390 q 206 206 185 256 q 263 127 226 156 q 347 99 300 99 m 638 739 q 623 611 638 658 q 576 544 608 564 q 493 525 544 525 l 493 613 q 519 640 511 613 q 528 739 528 668 l 638 739 m 492 883 q 478 835 492 854 q 447 802 464 817 q 416 772 429 788 q 403 733 403 756 l 403 722 l 314 722 l 314 761 q 326 797 314 781 q 356 826 339 813 q 385 853 372 840 q 397 879 397 865 q 384 909 397 899 q 351 919 371 919 q 310 909 329 919 q 281 869 292 899 l 225 938 q 286 985 251 971 q 360 999 321 1000 q 427 984 397 999 q 474 944 457 969 q 492 883 492 918 z "},"ỡ":{"ha":694,"x_min":43,"x_max":651,"o":"m 347 -14 q 192 28 260 -14 q 83 147 124 71 q 43 321 43 222 q 83 494 43 418 q 192 613 124 569 q 347 657 260 657 q 502 613 433 657 q 611 494 571 569 q 651 321 651 418 q 611 148 651 224 q 502 29 571 72 q 347 -14 433 -14 m 347 99 q 431 127 394 99 q 489 206 468 156 q 510 322 510 256 q 489 440 510 390 q 431 518 468 490 q 347 546 394 546 q 263 518 300 546 q 206 440 226 490 q 185 322 185 390 q 206 206 185 256 q 263 127 226 156 q 347 99 300 99 m 638 739 q 623 611 638 658 q 576 544 608 564 q 493 525 544 525 l 493 613 q 519 640 511 613 q 528 739 528 668 l 638 739 m 507 932 l 585 890 q 524 807 556 832 q 450 782 493 782 q 387 794 413 782 q 342 822 361 806 q 306 851 324 839 q 267 864 289 864 q 226 847 244 864 q 192 797 207 831 l 113 833 q 170 921 133 890 q 263 951 207 951 q 322 940 297 951 q 365 911 346 928 q 402 883 383 894 q 443 871 421 871 q 478 885 465 871 q 507 932 492 900 z "},"ő":{"ha":694,"x_min":43,"x_max":651,"o":"m 347 -14 q 192 28 260 -14 q 83 147 124 71 q 43 321 43 222 q 83 494 43 418 q 192 613 124 569 q 347 657 260 657 q 502 613 433 657 q 611 494 571 569 q 651 321 651 418 q 611 148 651 224 q 502 29 571 72 q 347 -14 433 -14 m 347 99 q 431 127 394 99 q 489 206 468 156 q 510 322 510 256 q 489 440 510 390 q 431 518 468 490 q 347 546 394 546 q 263 518 300 546 q 206 440 226 490 q 185 322 185 390 q 206 206 185 256 q 263 127 226 156 q 347 99 300 99 z "},"ȏ":{"ha":694,"x_min":43,"x_max":651,"o":"m 347 -14 q 192 28 260 -14 q 83 147 124 71 q 43 321 43 222 q 83 494 43 418 q 192 613 124 569 q 347 657 260 657 q 502 613 433 657 q 611 494 571 569 q 651 321 651 418 q 611 148 651 224 q 502 29 571 72 q 347 -14 433 -14 m 347 99 q 431 127 394 99 q 489 206 468 156 q 510 322 510 256 q 489 440 510 390 q 431 518 468 490 q 347 546 394 546 q 263 518 300 546 q 206 440 226 490 q 185 322 185 390 q 206 206 185 256 q 263 127 226 156 q 347 99 300 99 m 232 726 l 143 767 q 229 871 176 835 q 349 907 282 907 q 469 871 417 907 q 554 767 522 835 l 465 726 q 416 800 444 776 q 349 824 388 824 q 302 813 324 824 q 263 782 281 803 q 232 726 246 761 z "},"ō":{"ha":694,"x_min":43,"x_max":651,"o":"m 347 -14 q 192 28 260 -14 q 83 147 124 71 q 43 321 43 222 q 83 494 43 418 q 192 613 124 569 q 347 657 260 657 q 502 613 433 657 q 611 494 571 569 q 651 321 651 418 q 611 148 651 224 q 502 29 571 72 q 347 -14 433 -14 m 347 99 q 431 127 394 99 q 489 206 468 156 q 510 322 510 256 q 489 440 510 390 q 431 518 468 490 q 347 546 394 546 q 263 518 300 546 q 206 440 226 490 q 185 322 185 390 q 206 206 185 256 q 263 127 226 156 q 347 99 300 99 z "},"ṓ":{"ha":694,"x_min":43,"x_max":651,"o":"m 347 -14 q 192 28 260 -14 q 83 147 124 71 q 43 321 43 222 q 83 494 43 418 q 192 613 124 569 q 347 657 260 657 q 502 613 433 657 q 611 494 571 569 q 651 321 651 418 q 611 148 651 224 q 502 29 571 72 q 347 -14 433 -14 m 347 99 q 431 127 394 99 q 489 206 468 156 q 510 322 510 256 q 489 440 510 390 q 431 518 468 490 q 347 546 394 546 q 263 518 300 546 q 206 440 226 490 q 185 322 185 390 q 206 206 185 256 q 263 127 226 156 q 347 99 300 99 z "},"ṑ":{"ha":694,"x_min":43,"x_max":651,"o":"m 347 -14 q 192 28 260 -14 q 83 147 124 71 q 43 321 43 222 q 83 494 43 418 q 192 613 124 569 q 347 657 260 657 q 502 613 433 657 q 611 494 571 569 q 651 321 651 418 q 611 148 651 224 q 502 29 571 72 q 347 -14 433 -14 m 347 99 q 431 127 394 99 q 489 206 468 156 q 510 322 510 256 q 489 440 510 390 q 431 518 468 490 q 347 546 394 546 q 263 518 300 546 q 206 440 226 490 q 185 322 185 390 q 206 206 185 256 q 263 127 226 156 q 347 99 300 99 z "},"ǫ":{"ha":694,"x_min":43,"x_max":651,"o":"m 347 -14 q 192 28 260 -14 q 83 147 124 71 q 43 321 43 222 q 83 494 43 418 q 192 613 124 569 q 347 657 260 657 q 502 613 433 657 q 611 494 571 569 q 651 321 651 418 q 611 148 651 224 q 502 29 571 72 q 347 -14 433 -14 m 347 99 q 431 127 394 99 q 489 206 468 156 q 510 322 510 256 q 489 440 510 390 q 431 518 468 490 q 347 546 394 546 q 263 518 300 546 q 206 440 226 490 q 185 322 185 390 q 206 206 185 256 q 263 127 226 156 q 347 99 300 99 m 486 -194 l 438 -297 q 342 -263 381 -285 q 283 -214 303 -242 q 263 -153 263 -186 q 283 -80 263 -117 q 346 -7 304 -43 q 446 61 388 29 l 496 28 q 442 -24 464 1 q 408 -74 419 -50 q 396 -118 396 -97 q 418 -165 396 -144 q 486 -194 440 -185 z "},"ø":{"ha":694,"x_min":43,"x_max":651,"o":"m 185 -92 l 86 -40 l 500 725 l 601 671 l 185 -92 m 347 -14 q 192 28 260 -14 q 83 147 124 71 q 43 321 43 222 q 83 494 43 418 q 192 613 124 569 q 347 657 260 657 q 502 613 433 657 q 611 494 571 569 q 651 321 651 418 q 611 148 651 224 q 502 29 571 72 q 347 -14 433 -14 m 347 99 q 431 127 394 99 q 489 206 468 156 q 510 322 510 256 q 489 440 510 390 q 431 518 468 490 q 347 546 394 546 q 263 518 300 546 q 206 440 226 490 q 185 322 185 390 q 206 206 185 256 q 263 127 226 156 q 347 99 300 99 z "},"ǿ":{"ha":694,"x_min":43,"x_max":651,"o":"m 185 -92 l 86 -40 l 500 725 l 601 671 l 185 -92 m 347 -14 q 192 28 260 -14 q 83 147 124 71 q 43 321 43 222 q 83 494 43 418 q 192 613 124 569 q 347 657 260 657 q 502 613 433 657 q 611 494 571 569 q 651 321 651 418 q 611 148 651 224 q 502 29 571 72 q 347 -14 433 -14 m 347 99 q 431 127 394 99 q 489 206 468 156 q 510 322 510 256 q 489 440 510 390 q 431 518 468 490 q 347 546 394 546 q 263 518 300 546 q 206 440 226 490 q 185 322 185 390 q 206 206 185 256 q 263 127 226 156 q 347 99 300 99 z "},"õ":{"ha":694,"x_min":43,"x_max":651,"o":"m 347 -14 q 192 28 260 -14 q 83 147 124 71 q 43 321 43 222 q 83 494 43 418 q 192 613 124 569 q 347 657 260 657 q 502 613 433 657 q 611 494 571 569 q 651 321 651 418 q 611 148 651 224 q 502 29 571 72 q 347 -14 433 -14 m 347 99 q 431 127 394 99 q 489 206 468 156 q 510 322 510 256 q 489 440 510 390 q 431 518 468 490 q 347 546 394 546 q 263 518 300 546 q 206 440 226 490 q 185 322 185 390 q 206 206 185 256 q 263 127 226 156 q 347 99 300 99 m 507 932 l 585 890 q 524 807 556 832 q 450 782 493 782 q 387 794 413 782 q 342 822 361 806 q 306 851 324 839 q 267 864 289 864 q 226 847 244 864 q 192 797 207 831 l 113 833 q 170 921 133 890 q 263 951 207 951 q 322 940 297 951 q 365 911 346 928 q 402 883 383 894 q 443 871 421 871 q 478 885 465 871 q 507 932 492 900 z "},"ṍ":{"ha":694,"x_min":43,"x_max":651,"o":"m 347 -14 q 192 28 260 -14 q 83 147 124 71 q 43 321 43 222 q 83 494 43 418 q 192 613 124 569 q 347 657 260 657 q 502 613 433 657 q 611 494 571 569 q 651 321 651 418 q 611 148 651 224 q 502 29 571 72 q 347 -14 433 -14 m 347 99 q 431 127 394 99 q 489 206 468 156 q 510 322 510 256 q 489 440 510 390 q 431 518 468 490 q 347 546 394 546 q 263 518 300 546 q 206 440 226 490 q 185 322 185 390 q 206 206 185 256 q 263 127 226 156 q 347 99 300 99 m 507 932 l 585 890 q 524 807 556 832 q 450 782 493 782 q 387 794 413 782 q 342 822 361 806 q 306 851 324 839 q 267 864 289 864 q 226 847 244 864 q 192 797 207 831 l 113 833 q 170 921 133 890 q 263 951 207 951 q 322 940 297 951 q 365 911 346 928 q 402 883 383 894 q 443 871 421 871 q 478 885 465 871 q 507 932 492 900 z "},"ṏ":{"ha":694,"x_min":43,"x_max":651,"o":"m 347 -14 q 192 28 260 -14 q 83 147 124 71 q 43 321 43 222 q 83 494 43 418 q 192 613 124 569 q 347 657 260 657 q 502 613 433 657 q 611 494 571 569 q 651 321 651 418 q 611 148 651 224 q 502 29 571 72 q 347 -14 433 -14 m 347 99 q 431 127 394 99 q 489 206 468 156 q 510 322 510 256 q 489 440 510 390 q 431 518 468 490 q 347 546 394 546 q 263 518 300 546 q 206 440 226 490 q 185 322 185 390 q 206 206 185 256 q 263 127 226 156 q 347 99 300 99 m 507 932 l 585 890 q 524 807 556 832 q 450 782 493 782 q 387 794 413 782 q 342 822 361 806 q 306 851 324 839 q 267 864 289 864 q 226 847 244 864 q 192 797 207 831 l 113 833 q 170 921 133 890 q 263 951 207 951 q 322 940 297 951 q 365 911 346 928 q 402 883 383 894 q 443 871 421 871 q 478 885 465 871 q 507 932 492 900 z "},"ȭ":{"ha":694,"x_min":43,"x_max":651,"o":"m 347 -14 q 192 28 260 -14 q 83 147 124 71 q 43 321 43 222 q 83 494 43 418 q 192 613 124 569 q 347 657 260 657 q 502 613 433 657 q 611 494 571 569 q 651 321 651 418 q 611 148 651 224 q 502 29 571 72 q 347 -14 433 -14 m 347 99 q 431 127 394 99 q 489 206 468 156 q 510 322 510 256 q 489 440 510 390 q 431 518 468 490 q 347 546 394 546 q 263 518 300 546 q 206 440 226 490 q 185 322 185 390 q 206 206 185 256 q 263 127 226 156 q 347 99 300 99 m 507 932 l 585 890 q 524 807 556 832 q 450 782 493 782 q 387 794 413 782 q 342 822 361 806 q 306 851 324 839 q 267 864 289 864 q 226 847 244 864 q 192 797 207 831 l 113 833 q 170 921 133 890 q 263 951 207 951 q 322 940 297 951 q 365 911 346 928 q 402 883 383 894 q 443 871 421 871 q 478 885 465 871 q 507 932 492 900 z "},"œ":{"ha":694,"x_min":8,"x_max":685,"o":"m 507 -17 q 427 -4 465 -17 q 354 38 389 8 q 291 -3 324 8 q 221 -15 258 -15 q 146 0 183 -15 q 77 53 108 15 q 27 156 46 90 q 8 321 8 221 q 40 516 8 443 q 122 622 71 589 q 231 656 172 656 q 302 641 271 656 q 357 596 333 626 q 414 640 381 625 q 486 656 447 656 q 592 626 549 656 q 660 537 636 596 q 685 393 685 478 l 685 299 l 385 299 q 403 166 388 213 q 446 103 418 119 q 511 88 474 88 q 575 99 546 88 q 626 138 604 110 l 682 63 q 603 3 644 22 q 507 -17 561 -17 m 233 92 q 256 95 246 92 q 275 106 267 99 q 288 121 283 113 q 293 139 293 129 q 292 152 293 146 q 289 169 290 158 q 281 222 285 197 q 276 273 278 246 q 275 333 275 300 q 279 418 275 385 q 288 471 283 451 q 292 496 292 490 q 288 514 292 504 q 276 531 283 524 q 256 542 268 538 q 231 547 244 547 q 178 526 203 547 q 139 458 154 504 q 124 338 124 411 q 135 203 124 258 q 171 120 147 149 q 233 92 194 92 m 388 394 l 583 394 q 574 483 583 449 q 544 533 565 517 q 489 550 524 550 q 435 531 458 550 q 400 476 413 511 q 388 394 388 440 z "},"p":{"ha":694,"x_min":72,"x_max":654,"o":"m 72 -232 l 72 643 l 210 643 l 210 540 q 256 608 228 582 q 319 645 285 633 q 394 657 354 657 q 494 635 447 657 q 576 572 540 614 q 633 468 613 531 q 654 322 654 406 q 632 174 654 238 q 573 67 610 110 q 489 4 536 25 q 392 -17 442 -17 q 323 -8 357 -17 q 261 20 289 1 q 213 64 233 39 l 213 -232 l 72 -232 m 357 94 q 417 106 389 94 q 467 144 444 118 q 501 215 489 169 q 514 325 514 260 q 497 443 514 394 q 447 518 479 492 q 368 546 414 544 q 304 534 333 547 q 254 492 275 521 q 223 417 233 464 q 213 307 213 371 q 219 230 213 264 q 238 170 225 196 q 267 128 250 144 q 308 103 285 111 q 357 94 331 94 z "},"þ":{"ha":694,"x_min":72,"x_max":654,"o":"m 72 929 l 208 929 l 221 929 l 221 917 q 212 899 214 908 q 210 865 210 889 l 210 540 q 256 608 228 582 q 319 645 285 633 q 394 657 354 657 q 494 635 447 657 q 576 572 540 614 q 633 468 613 531 q 654 322 654 406 q 632 174 654 238 q 573 67 610 110 q 489 4 536 25 q 392 -17 442 -17 q 323 -8 357 -17 q 261 20 289 1 q 213 64 233 39 l 213 -232 l 72 -232 l 72 929 m 357 94 q 417 106 389 94 q 467 144 444 118 q 501 215 489 169 q 514 325 514 260 q 497 443 514 394 q 447 518 479 492 q 368 546 414 544 q 304 534 333 547 q 254 492 275 521 q 223 417 233 464 q 213 307 213 371 q 219 230 213 264 q 238 170 225 196 q 267 128 250 144 q 308 103 285 111 q 357 94 331 94 l 357 94 z "},"q":{"ha":694,"x_min":44,"x_max":625,"o":"m 486 -232 l 486 74 q 444 26 469 47 q 385 -5 418 6 q 317 -15 353 -15 q 205 9 256 -15 q 119 78 154 33 q 64 184 83 122 q 44 322 44 246 q 65 462 44 400 q 122 567 85 524 q 210 635 158 611 q 326 658 263 658 q 381 652 356 658 q 426 635 406 646 q 463 606 447 624 q 492 568 479 589 l 492 643 l 625 643 l 625 -232 l 486 -232 m 340 96 q 397 109 371 96 q 444 150 424 122 q 475 223 464 178 q 486 332 486 268 q 476 435 486 393 q 446 502 465 476 q 401 539 426 528 q 346 550 376 550 q 281 538 311 550 q 229 499 251 525 q 194 429 207 472 q 182 326 182 386 q 193 226 182 269 q 226 154 204 183 q 276 110 247 125 q 340 96 306 96 z "},"r":{"ha":694,"x_min":138,"x_max":644,"o":"m 138 643 l 281 643 l 278 460 l 261 475 q 288 551 268 517 q 335 608 307 585 q 399 645 364 632 q 471 658 433 658 q 567 640 524 658 q 644 586 610 622 l 586 472 l 581 460 l 569 465 q 561 488 565 476 q 540 514 557 499 q 499 535 519 528 q 453 542 479 542 q 388 530 419 542 q 332 493 357 518 q 292 430 307 468 q 278 338 278 392 l 278 -1 l 138 -1 l 138 643 z "},"ŕ":{"ha":694,"x_min":138,"x_max":644,"o":"m 138 643 l 281 643 l 278 460 l 261 475 q 288 551 268 517 q 335 608 307 585 q 399 645 364 632 q 471 658 433 658 q 567 640 524 658 q 644 586 610 622 l 586 472 l 581 460 l 569 465 q 561 488 565 476 q 540 514 557 499 q 499 535 519 528 q 453 542 479 542 q 388 530 419 542 q 332 493 357 518 q 292 430 307 468 q 278 338 278 392 l 278 -1 l 138 -1 l 138 643 z "},"ř":{"ha":694,"x_min":138,"x_max":644,"o":"m 138 643 l 281 643 l 278 460 l 261 475 q 288 551 268 517 q 335 608 307 585 q 399 645 364 632 q 471 658 433 658 q 567 640 524 658 q 644 586 610 622 l 586 472 l 581 460 l 569 465 q 561 488 565 476 q 540 514 557 499 q 499 535 519 528 q 453 542 479 542 q 388 530 419 542 q 332 493 357 518 q 292 430 307 468 q 278 338 278 392 l 278 -1 l 138 -1 l 138 643 m 239 969 l 393 824 l 547 969 l 615 910 l 415 717 l 371 717 l 171 910 l 239 969 z "}}}
